<mxfile host="app.diagrams.net" agent="Mozilla/5.0 (Windows NT 10.0; Win64; x64) AppleWebKit/537.36 (KHTML, like Gecko) Chrome/136.0.0.0 Safari/537.36" version="27.1.1" pages="2">
  <diagram name="usage-chart" id="b5b7bab2-c9e2-2cf4-8b2a-24fd1a2a6d21">
    <mxGraphModel dx="1421" dy="1479" grid="1" gridSize="10" guides="1" tooltips="1" connect="1" arrows="1" fold="1" page="1" pageScale="1" pageWidth="827" pageHeight="1169" background="none" math="0" shadow="0">
      <root>
        <mxCell id="0" />
        <mxCell id="1" parent="0" />
        <mxCell id="Nl0KgVND-EZbPuXgW0HM-77" value="" style="rounded=0;whiteSpace=wrap;html=1;strokeColor=none;" vertex="1" parent="1">
          <mxGeometry x="-170" y="-70" width="1030" height="920" as="geometry" />
        </mxCell>
        <mxCell id="Nl0KgVND-EZbPuXgW0HM-24" style="rounded=0;orthogonalLoop=1;jettySize=auto;html=1;entryX=0;entryY=0.5;entryDx=0;entryDy=0;endArrow=none;startFill=0;" edge="1" parent="1" target="Nl0KgVND-EZbPuXgW0HM-2">
          <mxGeometry relative="1" as="geometry">
            <mxPoint x="-70" y="330" as="sourcePoint" />
          </mxGeometry>
        </mxCell>
        <mxCell id="Nl0KgVND-EZbPuXgW0HM-25" style="rounded=0;orthogonalLoop=1;jettySize=auto;html=1;entryX=0;entryY=0.5;entryDx=0;entryDy=0;endArrow=none;startFill=0;" edge="1" parent="1" target="Nl0KgVND-EZbPuXgW0HM-3">
          <mxGeometry relative="1" as="geometry">
            <mxPoint x="-70" y="330" as="sourcePoint" />
          </mxGeometry>
        </mxCell>
        <mxCell id="Nl0KgVND-EZbPuXgW0HM-26" style="rounded=0;orthogonalLoop=1;jettySize=auto;html=1;entryX=0;entryY=0.5;entryDx=0;entryDy=0;endArrow=none;startFill=0;" edge="1" parent="1" target="Nl0KgVND-EZbPuXgW0HM-4">
          <mxGeometry relative="1" as="geometry">
            <mxPoint x="-70" y="330" as="sourcePoint" />
          </mxGeometry>
        </mxCell>
        <mxCell id="Nl0KgVND-EZbPuXgW0HM-27" style="rounded=0;orthogonalLoop=1;jettySize=auto;html=1;entryX=0;entryY=0.5;entryDx=0;entryDy=0;endArrow=none;startFill=0;" edge="1" parent="1" target="Nl0KgVND-EZbPuXgW0HM-5">
          <mxGeometry relative="1" as="geometry">
            <mxPoint x="-70" y="330" as="sourcePoint" />
          </mxGeometry>
        </mxCell>
        <mxCell id="Nl0KgVND-EZbPuXgW0HM-28" style="rounded=0;orthogonalLoop=1;jettySize=auto;html=1;entryX=0;entryY=0.5;entryDx=0;entryDy=0;endArrow=none;endFill=1;startFill=0;" edge="1" parent="1" target="Nl0KgVND-EZbPuXgW0HM-6">
          <mxGeometry relative="1" as="geometry">
            <mxPoint x="-70" y="330" as="sourcePoint" />
          </mxGeometry>
        </mxCell>
        <mxCell id="Nl0KgVND-EZbPuXgW0HM-29" style="rounded=0;orthogonalLoop=1;jettySize=auto;html=1;entryX=0;entryY=0.5;entryDx=0;entryDy=0;endArrow=none;startFill=0;" edge="1" parent="1" target="Nl0KgVND-EZbPuXgW0HM-7">
          <mxGeometry relative="1" as="geometry">
            <mxPoint x="-70" y="330" as="sourcePoint" />
          </mxGeometry>
        </mxCell>
        <mxCell id="Nl0KgVND-EZbPuXgW0HM-30" style="rounded=0;orthogonalLoop=1;jettySize=auto;html=1;entryX=0;entryY=0.5;entryDx=0;entryDy=0;endArrow=none;startFill=0;" edge="1" parent="1" target="Nl0KgVND-EZbPuXgW0HM-8">
          <mxGeometry relative="1" as="geometry">
            <mxPoint x="-70" y="330" as="sourcePoint" />
          </mxGeometry>
        </mxCell>
        <mxCell id="Nl0KgVND-EZbPuXgW0HM-66" style="rounded=0;orthogonalLoop=1;jettySize=auto;html=1;entryX=0;entryY=0.5;entryDx=0;entryDy=0;endArrow=none;startFill=0;" edge="1" parent="1" target="Nl0KgVND-EZbPuXgW0HM-56">
          <mxGeometry relative="1" as="geometry">
            <mxPoint x="-70" y="330" as="sourcePoint" />
          </mxGeometry>
        </mxCell>
        <mxCell id="Nl0KgVND-EZbPuXgW0HM-67" style="rounded=0;orthogonalLoop=1;jettySize=auto;html=1;entryX=0;entryY=0.5;entryDx=0;entryDy=0;endArrow=none;startFill=0;" edge="1" parent="1" target="Nl0KgVND-EZbPuXgW0HM-60">
          <mxGeometry relative="1" as="geometry">
            <mxPoint x="-70" y="330" as="sourcePoint" />
          </mxGeometry>
        </mxCell>
        <mxCell id="Nl0KgVND-EZbPuXgW0HM-1" value="&lt;font face=&quot;Times New Roman&quot; style=&quot;font-size: 14px;&quot;&gt;Працівник&lt;/font&gt;&lt;div&gt;&lt;font face=&quot;Times New Roman&quot; style=&quot;font-size: 14px;&quot;&gt;крамниці&lt;/font&gt;&lt;/div&gt;" style="shape=umlActor;verticalLabelPosition=bottom;verticalAlign=top;html=1;outlineConnect=0;strokeWidth=1;perimeterSpacing=0;" vertex="1" parent="1">
          <mxGeometry x="-140" y="250" width="70" height="140" as="geometry" />
        </mxCell>
        <mxCell id="Nl0KgVND-EZbPuXgW0HM-21" style="edgeStyle=orthogonalEdgeStyle;rounded=0;orthogonalLoop=1;jettySize=auto;html=1;entryX=0;entryY=0.5;entryDx=0;entryDy=0;dashed=1;strokeWidth=1;endArrow=classic;startFill=0;startArrow=none;endFill=1;" edge="1" parent="1" source="Nl0KgVND-EZbPuXgW0HM-2" target="Nl0KgVND-EZbPuXgW0HM-12">
          <mxGeometry relative="1" as="geometry" />
        </mxCell>
        <mxCell id="Nl0KgVND-EZbPuXgW0HM-22" value="&lt;font face=&quot;Times New Roman&quot; style=&quot;font-size: 14px;&quot;&gt;include&lt;/font&gt;" style="edgeLabel;html=1;align=center;verticalAlign=middle;resizable=0;points=[];" vertex="1" connectable="0" parent="Nl0KgVND-EZbPuXgW0HM-21">
          <mxGeometry x="-0.1238" relative="1" as="geometry">
            <mxPoint as="offset" />
          </mxGeometry>
        </mxCell>
        <mxCell id="Nl0KgVND-EZbPuXgW0HM-2" value="&lt;font style=&quot;font-size: 14px;&quot; face=&quot;Times New Roman&quot;&gt;Перегляд&lt;/font&gt;&lt;div&gt;&lt;font style=&quot;font-size: 14px;&quot; face=&quot;Times New Roman&quot;&gt;телефонів&lt;/font&gt;&lt;/div&gt;" style="ellipse;whiteSpace=wrap;html=1;" vertex="1" parent="1">
          <mxGeometry x="190" y="20" width="140" height="60" as="geometry" />
        </mxCell>
        <mxCell id="Nl0KgVND-EZbPuXgW0HM-3" value="&lt;font style=&quot;font-size: 14px;&quot; face=&quot;Times New Roman&quot;&gt;Додавання&lt;/font&gt;&lt;div&gt;&lt;font style=&quot;font-size: 14px;&quot; face=&quot;Times New Roman&quot;&gt;телефонів&lt;/font&gt;&lt;/div&gt;" style="ellipse;whiteSpace=wrap;html=1;" vertex="1" parent="1">
          <mxGeometry x="190" y="90" width="140" height="60" as="geometry" />
        </mxCell>
        <mxCell id="Nl0KgVND-EZbPuXgW0HM-4" value="&lt;font style=&quot;font-size: 14px;&quot; face=&quot;Times New Roman&quot;&gt;Видалення&lt;/font&gt;&lt;div&gt;&lt;font style=&quot;font-size: 14px;&quot; face=&quot;Times New Roman&quot;&gt;телефонів&lt;/font&gt;&lt;/div&gt;" style="ellipse;whiteSpace=wrap;html=1;" vertex="1" parent="1">
          <mxGeometry x="190" y="160" width="140" height="60" as="geometry" />
        </mxCell>
        <mxCell id="Nl0KgVND-EZbPuXgW0HM-5" value="&lt;font style=&quot;font-size: 14px;&quot; face=&quot;Times New Roman&quot;&gt;Збереження у&lt;/font&gt;&lt;div&gt;&lt;font style=&quot;font-size: 14px;&quot; face=&quot;Times New Roman&quot;&gt;файл&lt;/font&gt;&lt;/div&gt;" style="ellipse;whiteSpace=wrap;html=1;" vertex="1" parent="1">
          <mxGeometry x="190" y="230" width="140" height="60" as="geometry" />
        </mxCell>
        <mxCell id="Nl0KgVND-EZbPuXgW0HM-6" value="&lt;font face=&quot;Times New Roman&quot;&gt;&lt;span style=&quot;font-size: 14px;&quot;&gt;Завантаження&amp;nbsp;&lt;/span&gt;&lt;/font&gt;&lt;div&gt;&lt;font face=&quot;Times New Roman&quot;&gt;&lt;span style=&quot;font-size: 14px;&quot;&gt;з файлу&lt;/span&gt;&lt;/font&gt;&lt;/div&gt;" style="ellipse;whiteSpace=wrap;html=1;" vertex="1" parent="1">
          <mxGeometry x="190" y="300" width="140" height="60" as="geometry" />
        </mxCell>
        <mxCell id="Nl0KgVND-EZbPuXgW0HM-33" style="rounded=0;orthogonalLoop=1;jettySize=auto;html=1;entryX=0;entryY=0.5;entryDx=0;entryDy=0;dashed=1;exitX=1;exitY=0.5;exitDx=0;exitDy=0;endArrow=none;startFill=1;startArrow=classic;" edge="1" parent="1" source="Nl0KgVND-EZbPuXgW0HM-7" target="Nl0KgVND-EZbPuXgW0HM-13">
          <mxGeometry relative="1" as="geometry" />
        </mxCell>
        <mxCell id="Nl0KgVND-EZbPuXgW0HM-34" value="&lt;span style=&quot;font-family: &amp;quot;Times New Roman&amp;quot;; font-size: 14px;&quot;&gt;extend&lt;/span&gt;" style="edgeLabel;html=1;align=center;verticalAlign=middle;resizable=0;points=[];" vertex="1" connectable="0" parent="Nl0KgVND-EZbPuXgW0HM-33">
          <mxGeometry x="0.0734" y="-2" relative="1" as="geometry">
            <mxPoint as="offset" />
          </mxGeometry>
        </mxCell>
        <mxCell id="Nl0KgVND-EZbPuXgW0HM-7" value="&lt;font face=&quot;Times New Roman&quot;&gt;&lt;span style=&quot;font-size: 14px;&quot;&gt;Пошук телефонів&lt;/span&gt;&lt;/font&gt;" style="ellipse;whiteSpace=wrap;html=1;" vertex="1" parent="1">
          <mxGeometry x="190" y="370" width="140" height="60" as="geometry" />
        </mxCell>
        <mxCell id="Nl0KgVND-EZbPuXgW0HM-31" style="rounded=0;orthogonalLoop=1;jettySize=auto;html=1;entryX=0;entryY=0;entryDx=0;entryDy=0;dashed=1;strokeWidth=1;exitX=1;exitY=1;exitDx=0;exitDy=0;startArrow=classic;startFill=1;endArrow=none;" edge="1" parent="1" source="Nl0KgVND-EZbPuXgW0HM-8" target="Nl0KgVND-EZbPuXgW0HM-18">
          <mxGeometry relative="1" as="geometry" />
        </mxCell>
        <mxCell id="Nl0KgVND-EZbPuXgW0HM-32" value="&lt;font face=&quot;Times New Roman&quot; style=&quot;font-size: 14px;&quot;&gt;extend&lt;/font&gt;" style="edgeLabel;html=1;align=center;verticalAlign=middle;resizable=0;points=[];" vertex="1" connectable="0" parent="Nl0KgVND-EZbPuXgW0HM-31">
          <mxGeometry x="-0.1208" y="-1" relative="1" as="geometry">
            <mxPoint as="offset" />
          </mxGeometry>
        </mxCell>
        <mxCell id="Nl0KgVND-EZbPuXgW0HM-8" value="&lt;font face=&quot;Times New Roman&quot;&gt;&lt;span style=&quot;font-size: 14px;&quot;&gt;Сортування&amp;nbsp;&lt;/span&gt;&lt;/font&gt;&lt;div&gt;&lt;font face=&quot;Times New Roman&quot;&gt;&lt;span style=&quot;font-size: 14px;&quot;&gt;телефонів&lt;/span&gt;&lt;/font&gt;&lt;/div&gt;" style="ellipse;whiteSpace=wrap;html=1;" vertex="1" parent="1">
          <mxGeometry x="190" y="440" width="140" height="60" as="geometry" />
        </mxCell>
        <mxCell id="Nl0KgVND-EZbPuXgW0HM-12" value="&lt;font face=&quot;Times New Roman&quot;&gt;&lt;span style=&quot;font-size: 14px;&quot;&gt;Завантаження&amp;nbsp;&lt;/span&gt;&lt;/font&gt;&lt;div&gt;&lt;font face=&quot;Times New Roman&quot;&gt;&lt;span style=&quot;font-size: 14px;&quot;&gt;даних&lt;/span&gt;&lt;/font&gt;&lt;/div&gt;" style="ellipse;whiteSpace=wrap;html=1;" vertex="1" parent="1">
          <mxGeometry x="510" y="20" width="140" height="60" as="geometry" />
        </mxCell>
        <mxCell id="Nl0KgVND-EZbPuXgW0HM-13" value="&lt;font face=&quot;Times New Roman&quot;&gt;&lt;span style=&quot;font-size: 14px;&quot;&gt;Пошук за&amp;nbsp;&lt;/span&gt;&lt;/font&gt;&lt;div&gt;&lt;font face=&quot;Times New Roman&quot;&gt;&lt;span style=&quot;font-size: 14px;&quot;&gt;моделлю&lt;/span&gt;&lt;/font&gt;&lt;/div&gt;" style="ellipse;whiteSpace=wrap;html=1;" vertex="1" parent="1">
          <mxGeometry x="710" y="330" width="140" height="60" as="geometry" />
        </mxCell>
        <mxCell id="Nl0KgVND-EZbPuXgW0HM-14" value="&lt;font face=&quot;Times New Roman&quot;&gt;&lt;span style=&quot;font-size: 14px;&quot;&gt;Пошук за роками&lt;/span&gt;&lt;/font&gt;&lt;div&gt;&lt;font face=&quot;Times New Roman&quot;&gt;&lt;span style=&quot;font-size: 14px;&quot;&gt;експлуатації&lt;/span&gt;&lt;/font&gt;&lt;/div&gt;" style="ellipse;whiteSpace=wrap;html=1;" vertex="1" parent="1">
          <mxGeometry x="710" y="400" width="140" height="60" as="geometry" />
        </mxCell>
        <mxCell id="Nl0KgVND-EZbPuXgW0HM-15" value="&lt;font face=&quot;Times New Roman&quot;&gt;&lt;span style=&quot;font-size: 14px;&quot;&gt;Пошук за роком&lt;/span&gt;&lt;/font&gt;&lt;div&gt;&lt;font face=&quot;Times New Roman&quot;&gt;&lt;span style=&quot;font-size: 14px;&quot;&gt;та ціною&lt;/span&gt;&lt;/font&gt;&lt;/div&gt;" style="ellipse;whiteSpace=wrap;html=1;" vertex="1" parent="1">
          <mxGeometry x="710" y="470" width="140" height="60" as="geometry" />
        </mxCell>
        <mxCell id="Nl0KgVND-EZbPuXgW0HM-16" value="&lt;font face=&quot;Times New Roman&quot;&gt;&lt;span style=&quot;font-size: 14px;&quot;&gt;Пошук за серійним&lt;/span&gt;&lt;/font&gt;&lt;div&gt;&lt;font face=&quot;Times New Roman&quot;&gt;&lt;span style=&quot;font-size: 14px;&quot;&gt;номером&lt;/span&gt;&lt;/font&gt;&lt;/div&gt;" style="ellipse;whiteSpace=wrap;html=1;" vertex="1" parent="1">
          <mxGeometry x="710" y="540" width="140" height="60" as="geometry" />
        </mxCell>
        <mxCell id="Nl0KgVND-EZbPuXgW0HM-17" value="&lt;font face=&quot;Times New Roman&quot;&gt;&lt;span style=&quot;font-size: 14px;&quot;&gt;Пошук тлефонів&lt;/span&gt;&lt;/font&gt;&lt;div&gt;&lt;font face=&quot;Times New Roman&quot;&gt;&lt;span style=&quot;font-size: 14px;&quot;&gt;до заданого року&lt;/span&gt;&lt;/font&gt;&lt;/div&gt;" style="ellipse;whiteSpace=wrap;html=1;" vertex="1" parent="1">
          <mxGeometry x="710" y="610" width="140" height="60" as="geometry" />
        </mxCell>
        <mxCell id="Nl0KgVND-EZbPuXgW0HM-18" value="&lt;font face=&quot;Times New Roman&quot;&gt;&lt;span style=&quot;font-size: 14px;&quot;&gt;Сортування за датою&lt;/span&gt;&lt;/font&gt;&lt;div&gt;&lt;font face=&quot;Times New Roman&quot;&gt;&lt;span style=&quot;font-size: 14px;&quot;&gt;перевірки та серійним номером&lt;/span&gt;&lt;/font&gt;&lt;/div&gt;" style="ellipse;whiteSpace=wrap;html=1;" vertex="1" parent="1">
          <mxGeometry x="399" y="560" width="170" height="70" as="geometry" />
        </mxCell>
        <mxCell id="Nl0KgVND-EZbPuXgW0HM-19" value="&lt;font face=&quot;Times New Roman&quot;&gt;&lt;span style=&quot;font-size: 14px;&quot;&gt;Карта моделей&lt;/span&gt;&lt;/font&gt;&lt;div&gt;&lt;font face=&quot;Times New Roman&quot;&gt;&lt;span style=&quot;font-size: 14px;&quot;&gt;до телефонів&lt;/span&gt;&lt;/font&gt;&lt;/div&gt;" style="ellipse;whiteSpace=wrap;html=1;" vertex="1" parent="1">
          <mxGeometry x="414" y="710" width="140" height="60" as="geometry" />
        </mxCell>
        <mxCell id="Nl0KgVND-EZbPuXgW0HM-20" value="&lt;font face=&quot;Times New Roman&quot;&gt;&lt;span style=&quot;font-size: 14px;&quot;&gt;Найдорожчі за моделями&lt;/span&gt;&lt;/font&gt;" style="ellipse;whiteSpace=wrap;html=1;" vertex="1" parent="1">
          <mxGeometry x="410" y="780" width="140" height="60" as="geometry" />
        </mxCell>
        <mxCell id="Nl0KgVND-EZbPuXgW0HM-35" style="rounded=0;orthogonalLoop=1;jettySize=auto;html=1;entryX=0;entryY=0.5;entryDx=0;entryDy=0;dashed=1;exitX=1;exitY=0.5;exitDx=0;exitDy=0;endArrow=none;startFill=1;startArrow=classic;" edge="1" parent="1" source="Nl0KgVND-EZbPuXgW0HM-7" target="Nl0KgVND-EZbPuXgW0HM-14">
          <mxGeometry relative="1" as="geometry">
            <mxPoint x="400" y="620" as="sourcePoint" />
            <mxPoint x="580" y="440" as="targetPoint" />
          </mxGeometry>
        </mxCell>
        <mxCell id="Nl0KgVND-EZbPuXgW0HM-36" value="&lt;span style=&quot;font-family: &amp;quot;Times New Roman&amp;quot;; font-size: 14px;&quot;&gt;extend&lt;/span&gt;" style="edgeLabel;html=1;align=center;verticalAlign=middle;resizable=0;points=[];" vertex="1" connectable="0" parent="Nl0KgVND-EZbPuXgW0HM-35">
          <mxGeometry x="0.0734" y="-2" relative="1" as="geometry">
            <mxPoint as="offset" />
          </mxGeometry>
        </mxCell>
        <mxCell id="Nl0KgVND-EZbPuXgW0HM-37" style="rounded=0;orthogonalLoop=1;jettySize=auto;html=1;entryX=0;entryY=0.5;entryDx=0;entryDy=0;dashed=1;exitX=1;exitY=0.5;exitDx=0;exitDy=0;endArrow=none;startFill=1;startArrow=classic;" edge="1" parent="1" source="Nl0KgVND-EZbPuXgW0HM-7" target="Nl0KgVND-EZbPuXgW0HM-15">
          <mxGeometry relative="1" as="geometry">
            <mxPoint x="420" y="650" as="sourcePoint" />
            <mxPoint x="600" y="470" as="targetPoint" />
          </mxGeometry>
        </mxCell>
        <mxCell id="Nl0KgVND-EZbPuXgW0HM-38" value="&lt;span style=&quot;font-family: &amp;quot;Times New Roman&amp;quot;; font-size: 14px;&quot;&gt;extend&lt;/span&gt;" style="edgeLabel;html=1;align=center;verticalAlign=middle;resizable=0;points=[];" vertex="1" connectable="0" parent="Nl0KgVND-EZbPuXgW0HM-37">
          <mxGeometry x="0.0734" y="-2" relative="1" as="geometry">
            <mxPoint as="offset" />
          </mxGeometry>
        </mxCell>
        <mxCell id="Nl0KgVND-EZbPuXgW0HM-39" style="rounded=0;orthogonalLoop=1;jettySize=auto;html=1;entryX=0;entryY=0.5;entryDx=0;entryDy=0;dashed=1;exitX=1;exitY=0.5;exitDx=0;exitDy=0;endArrow=none;startFill=1;startArrow=classic;" edge="1" parent="1" source="Nl0KgVND-EZbPuXgW0HM-7" target="Nl0KgVND-EZbPuXgW0HM-16">
          <mxGeometry relative="1" as="geometry">
            <mxPoint x="360" y="680" as="sourcePoint" />
            <mxPoint x="540" y="500" as="targetPoint" />
          </mxGeometry>
        </mxCell>
        <mxCell id="Nl0KgVND-EZbPuXgW0HM-40" value="&lt;span style=&quot;font-family: &amp;quot;Times New Roman&amp;quot;; font-size: 14px;&quot;&gt;extend&lt;/span&gt;" style="edgeLabel;html=1;align=center;verticalAlign=middle;resizable=0;points=[];" vertex="1" connectable="0" parent="Nl0KgVND-EZbPuXgW0HM-39">
          <mxGeometry x="0.0734" y="-2" relative="1" as="geometry">
            <mxPoint as="offset" />
          </mxGeometry>
        </mxCell>
        <mxCell id="Nl0KgVND-EZbPuXgW0HM-41" style="rounded=0;orthogonalLoop=1;jettySize=auto;html=1;entryX=0;entryY=0.5;entryDx=0;entryDy=0;dashed=1;exitX=1;exitY=0.5;exitDx=0;exitDy=0;endArrow=none;startFill=1;startArrow=classic;" edge="1" parent="1" source="Nl0KgVND-EZbPuXgW0HM-7" target="Nl0KgVND-EZbPuXgW0HM-17">
          <mxGeometry relative="1" as="geometry">
            <mxPoint x="440" y="730" as="sourcePoint" />
            <mxPoint x="620" y="550" as="targetPoint" />
          </mxGeometry>
        </mxCell>
        <mxCell id="Nl0KgVND-EZbPuXgW0HM-42" value="&lt;span style=&quot;font-family: &amp;quot;Times New Roman&amp;quot;; font-size: 14px;&quot;&gt;extend&lt;/span&gt;" style="edgeLabel;html=1;align=center;verticalAlign=middle;resizable=0;points=[];" vertex="1" connectable="0" parent="Nl0KgVND-EZbPuXgW0HM-41">
          <mxGeometry x="0.0734" y="-2" relative="1" as="geometry">
            <mxPoint as="offset" />
          </mxGeometry>
        </mxCell>
        <mxCell id="Nl0KgVND-EZbPuXgW0HM-47" value="&lt;font face=&quot;Times New Roman&quot;&gt;&lt;span style=&quot;font-size: 14px;&quot;&gt;Валідація даних&lt;/span&gt;&lt;/font&gt;" style="ellipse;whiteSpace=wrap;html=1;" vertex="1" parent="1">
          <mxGeometry x="510" y="90" width="140" height="60" as="geometry" />
        </mxCell>
        <mxCell id="Nl0KgVND-EZbPuXgW0HM-48" style="edgeStyle=orthogonalEdgeStyle;rounded=0;orthogonalLoop=1;jettySize=auto;html=1;entryX=0;entryY=0.5;entryDx=0;entryDy=0;dashed=1;strokeWidth=1;endArrow=none;startFill=1;startArrow=classic;" edge="1" parent="1">
          <mxGeometry relative="1" as="geometry">
            <mxPoint x="330" y="119.71000000000001" as="sourcePoint" />
            <mxPoint x="510" y="119.71000000000001" as="targetPoint" />
          </mxGeometry>
        </mxCell>
        <mxCell id="Nl0KgVND-EZbPuXgW0HM-49" value="&lt;span style=&quot;font-family: &amp;quot;Times New Roman&amp;quot;; font-size: 14px;&quot;&gt;extend&lt;/span&gt;" style="edgeLabel;html=1;align=center;verticalAlign=middle;resizable=0;points=[];" vertex="1" connectable="0" parent="Nl0KgVND-EZbPuXgW0HM-48">
          <mxGeometry x="-0.1238" relative="1" as="geometry">
            <mxPoint as="offset" />
          </mxGeometry>
        </mxCell>
        <mxCell id="Nl0KgVND-EZbPuXgW0HM-50" value="&lt;font face=&quot;Times New Roman&quot;&gt;&lt;span style=&quot;font-size: 14px;&quot;&gt;Видалення за ID&lt;/span&gt;&lt;/font&gt;" style="ellipse;whiteSpace=wrap;html=1;" vertex="1" parent="1">
          <mxGeometry x="510" y="160" width="140" height="60" as="geometry" />
        </mxCell>
        <mxCell id="Nl0KgVND-EZbPuXgW0HM-51" style="edgeStyle=orthogonalEdgeStyle;rounded=0;orthogonalLoop=1;jettySize=auto;html=1;entryX=0;entryY=0.5;entryDx=0;entryDy=0;dashed=1;strokeWidth=1;endArrow=none;startFill=1;startArrow=classic;" edge="1" parent="1">
          <mxGeometry relative="1" as="geometry">
            <mxPoint x="330" y="189.71" as="sourcePoint" />
            <mxPoint x="510" y="189.71" as="targetPoint" />
          </mxGeometry>
        </mxCell>
        <mxCell id="Nl0KgVND-EZbPuXgW0HM-52" value="&lt;span style=&quot;font-family: &amp;quot;Times New Roman&amp;quot;; font-size: 14px;&quot;&gt;extend&lt;/span&gt;" style="edgeLabel;html=1;align=center;verticalAlign=middle;resizable=0;points=[];" vertex="1" connectable="0" parent="Nl0KgVND-EZbPuXgW0HM-51">
          <mxGeometry x="-0.1238" relative="1" as="geometry">
            <mxPoint as="offset" />
          </mxGeometry>
        </mxCell>
        <mxCell id="Nl0KgVND-EZbPuXgW0HM-53" value="&lt;font face=&quot;Times New Roman&quot;&gt;&lt;span style=&quot;font-size: 14px;&quot;&gt;Вибір файлу&lt;/span&gt;&lt;/font&gt;&lt;div&gt;&lt;font face=&quot;Times New Roman&quot;&gt;&lt;span style=&quot;font-size: 14px;&quot;&gt;для збереження&lt;/span&gt;&lt;/font&gt;&lt;/div&gt;" style="ellipse;whiteSpace=wrap;html=1;" vertex="1" parent="1">
          <mxGeometry x="510" y="230" width="140" height="60" as="geometry" />
        </mxCell>
        <mxCell id="Nl0KgVND-EZbPuXgW0HM-54" style="edgeStyle=orthogonalEdgeStyle;rounded=0;orthogonalLoop=1;jettySize=auto;html=1;entryX=0;entryY=0.5;entryDx=0;entryDy=0;dashed=1;strokeWidth=1;endArrow=none;startFill=1;startArrow=classic;" edge="1" parent="1">
          <mxGeometry relative="1" as="geometry">
            <mxPoint x="330" y="259.75" as="sourcePoint" />
            <mxPoint x="510" y="259.75" as="targetPoint" />
          </mxGeometry>
        </mxCell>
        <mxCell id="Nl0KgVND-EZbPuXgW0HM-55" value="&lt;span style=&quot;font-family: &amp;quot;Times New Roman&amp;quot;; font-size: 14px;&quot;&gt;extend&lt;/span&gt;" style="edgeLabel;html=1;align=center;verticalAlign=middle;resizable=0;points=[];" vertex="1" connectable="0" parent="Nl0KgVND-EZbPuXgW0HM-54">
          <mxGeometry x="-0.1238" relative="1" as="geometry">
            <mxPoint as="offset" />
          </mxGeometry>
        </mxCell>
        <mxCell id="Nl0KgVND-EZbPuXgW0HM-56" value="&lt;font face=&quot;Times New Roman&quot;&gt;&lt;span style=&quot;font-size: 14px;&quot;&gt;Очищення полів&lt;/span&gt;&lt;/font&gt;" style="ellipse;whiteSpace=wrap;html=1;" vertex="1" parent="1">
          <mxGeometry x="190" y="520" width="140" height="60" as="geometry" />
        </mxCell>
        <mxCell id="Nl0KgVND-EZbPuXgW0HM-57" value="&lt;font face=&quot;Times New Roman&quot;&gt;&lt;span style=&quot;font-size: 14px;&quot;&gt;Очищення полів&lt;/span&gt;&lt;/font&gt;&lt;div&gt;&lt;font face=&quot;Times New Roman&quot;&gt;&lt;span style=&quot;font-size: 14px;&quot;&gt;додавання&lt;/span&gt;&lt;/font&gt;&lt;/div&gt;" style="ellipse;whiteSpace=wrap;html=1;" vertex="1" parent="1">
          <mxGeometry x="414" y="640" width="140" height="60" as="geometry" />
        </mxCell>
        <mxCell id="Nl0KgVND-EZbPuXgW0HM-58" style="rounded=0;orthogonalLoop=1;jettySize=auto;html=1;dashed=1;strokeWidth=1;exitX=1;exitY=1;exitDx=0;exitDy=0;entryX=0;entryY=0.5;entryDx=0;entryDy=0;startArrow=classic;startFill=1;endArrow=none;" edge="1" parent="1" source="Nl0KgVND-EZbPuXgW0HM-56" target="Nl0KgVND-EZbPuXgW0HM-57">
          <mxGeometry relative="1" as="geometry">
            <mxPoint x="330" y="680" as="sourcePoint" />
            <mxPoint x="420" y="750" as="targetPoint" />
          </mxGeometry>
        </mxCell>
        <mxCell id="Nl0KgVND-EZbPuXgW0HM-59" value="&lt;font face=&quot;Times New Roman&quot; style=&quot;font-size: 14px;&quot;&gt;extend&lt;/font&gt;" style="edgeLabel;html=1;align=center;verticalAlign=middle;resizable=0;points=[];" vertex="1" connectable="0" parent="Nl0KgVND-EZbPuXgW0HM-58">
          <mxGeometry x="-0.1208" y="-1" relative="1" as="geometry">
            <mxPoint as="offset" />
          </mxGeometry>
        </mxCell>
        <mxCell id="Nl0KgVND-EZbPuXgW0HM-60" value="&lt;font face=&quot;Times New Roman&quot;&gt;&lt;span style=&quot;font-size: 14px;&quot;&gt;Аналіз даних&lt;/span&gt;&lt;/font&gt;" style="ellipse;whiteSpace=wrap;html=1;" vertex="1" parent="1">
          <mxGeometry x="190" y="600" width="140" height="60" as="geometry" />
        </mxCell>
        <mxCell id="Nl0KgVND-EZbPuXgW0HM-62" style="rounded=0;orthogonalLoop=1;jettySize=auto;html=1;dashed=1;strokeWidth=1;exitX=1;exitY=1;exitDx=0;exitDy=0;entryX=0;entryY=0.5;entryDx=0;entryDy=0;startArrow=classic;startFill=1;endArrow=none;" edge="1" parent="1" source="Nl0KgVND-EZbPuXgW0HM-60" target="Nl0KgVND-EZbPuXgW0HM-19">
          <mxGeometry relative="1" as="geometry">
            <mxPoint x="360" y="800" as="sourcePoint" />
            <mxPoint x="479" y="909" as="targetPoint" />
          </mxGeometry>
        </mxCell>
        <mxCell id="Nl0KgVND-EZbPuXgW0HM-63" value="&lt;font face=&quot;Times New Roman&quot; style=&quot;font-size: 14px;&quot;&gt;extend&lt;/font&gt;" style="edgeLabel;html=1;align=center;verticalAlign=middle;resizable=0;points=[];" vertex="1" connectable="0" parent="Nl0KgVND-EZbPuXgW0HM-62">
          <mxGeometry x="-0.1208" y="-1" relative="1" as="geometry">
            <mxPoint as="offset" />
          </mxGeometry>
        </mxCell>
        <mxCell id="Nl0KgVND-EZbPuXgW0HM-64" style="rounded=0;orthogonalLoop=1;jettySize=auto;html=1;dashed=1;strokeWidth=1;exitX=0.5;exitY=1;exitDx=0;exitDy=0;entryX=0;entryY=0.5;entryDx=0;entryDy=0;startArrow=classic;startFill=1;endArrow=none;" edge="1" parent="1" source="Nl0KgVND-EZbPuXgW0HM-60" target="Nl0KgVND-EZbPuXgW0HM-20">
          <mxGeometry relative="1" as="geometry">
            <mxPoint x="350" y="860" as="sourcePoint" />
            <mxPoint x="469" y="969" as="targetPoint" />
          </mxGeometry>
        </mxCell>
        <mxCell id="Nl0KgVND-EZbPuXgW0HM-65" value="&lt;font face=&quot;Times New Roman&quot; style=&quot;font-size: 14px;&quot;&gt;extend&lt;/font&gt;" style="edgeLabel;html=1;align=center;verticalAlign=middle;resizable=0;points=[];" vertex="1" connectable="0" parent="Nl0KgVND-EZbPuXgW0HM-64">
          <mxGeometry x="-0.1208" y="-1" relative="1" as="geometry">
            <mxPoint as="offset" />
          </mxGeometry>
        </mxCell>
        <mxCell id="Nl0KgVND-EZbPuXgW0HM-68" value="&lt;font face=&quot;Times New Roman&quot;&gt;&lt;span style=&quot;font-size: 14px;&quot;&gt;Вибір файлу&lt;/span&gt;&lt;/font&gt;&lt;div&gt;&lt;font face=&quot;Times New Roman&quot;&gt;&lt;span style=&quot;font-size: 14px;&quot;&gt;для завантаження&lt;/span&gt;&lt;/font&gt;&lt;/div&gt;" style="ellipse;whiteSpace=wrap;html=1;" vertex="1" parent="1">
          <mxGeometry x="510" y="300" width="140" height="60" as="geometry" />
        </mxCell>
        <mxCell id="Nl0KgVND-EZbPuXgW0HM-69" style="edgeStyle=orthogonalEdgeStyle;rounded=0;orthogonalLoop=1;jettySize=auto;html=1;entryX=0;entryY=0.5;entryDx=0;entryDy=0;dashed=1;strokeWidth=1;endArrow=none;startFill=1;startArrow=classic;" edge="1" parent="1">
          <mxGeometry relative="1" as="geometry">
            <mxPoint x="330" y="329.75" as="sourcePoint" />
            <mxPoint x="510" y="329.75" as="targetPoint" />
          </mxGeometry>
        </mxCell>
        <mxCell id="Nl0KgVND-EZbPuXgW0HM-70" value="&lt;span style=&quot;font-family: &amp;quot;Times New Roman&amp;quot;; font-size: 14px;&quot;&gt;extend&lt;/span&gt;" style="edgeLabel;html=1;align=center;verticalAlign=middle;resizable=0;points=[];" vertex="1" connectable="0" parent="Nl0KgVND-EZbPuXgW0HM-69">
          <mxGeometry x="-0.1238" relative="1" as="geometry">
            <mxPoint as="offset" />
          </mxGeometry>
        </mxCell>
        <mxCell id="Nl0KgVND-EZbPuXgW0HM-73" value="&lt;font face=&quot;Times New Roman&quot;&gt;&lt;span style=&quot;font-size: 14px;&quot;&gt;&amp;nbsp;Ініціалізація&lt;/span&gt;&lt;/font&gt;&lt;div&gt;&lt;font face=&quot;Times New Roman&quot;&gt;&lt;span style=&quot;font-size: 14px;&quot;&gt;тестових&lt;/span&gt;&lt;/font&gt;&lt;div&gt;&lt;font face=&quot;Times New Roman&quot;&gt;&lt;span style=&quot;font-size: 14px;&quot;&gt;даних&lt;/span&gt;&lt;/font&gt;&lt;/div&gt;&lt;/div&gt;" style="ellipse;whiteSpace=wrap;html=1;" vertex="1" parent="1">
          <mxGeometry x="510" y="-60" width="140" height="60" as="geometry" />
        </mxCell>
        <mxCell id="Nl0KgVND-EZbPuXgW0HM-74" style="rounded=0;orthogonalLoop=1;jettySize=auto;html=1;entryX=0;entryY=0.5;entryDx=0;entryDy=0;dashed=1;strokeWidth=1;endArrow=classic;startFill=0;startArrow=none;endFill=1;exitX=1;exitY=0.5;exitDx=0;exitDy=0;" edge="1" parent="1" source="Nl0KgVND-EZbPuXgW0HM-2" target="Nl0KgVND-EZbPuXgW0HM-73">
          <mxGeometry relative="1" as="geometry">
            <mxPoint x="570" y="40" as="sourcePoint" />
            <mxPoint x="750" y="40" as="targetPoint" />
          </mxGeometry>
        </mxCell>
        <mxCell id="Nl0KgVND-EZbPuXgW0HM-75" value="&lt;font face=&quot;Times New Roman&quot; style=&quot;font-size: 14px;&quot;&gt;include&lt;/font&gt;" style="edgeLabel;html=1;align=center;verticalAlign=middle;resizable=0;points=[];" vertex="1" connectable="0" parent="Nl0KgVND-EZbPuXgW0HM-74">
          <mxGeometry x="-0.1238" relative="1" as="geometry">
            <mxPoint as="offset" />
          </mxGeometry>
        </mxCell>
      </root>
    </mxGraphModel>
  </diagram>
  <diagram id="Ul1_96swG6PB7tGZbE2a" name="Сторінка-2">
    <mxGraphModel dx="1141" dy="1763" grid="1" gridSize="10" guides="1" tooltips="1" connect="1" arrows="1" fold="1" page="1" pageScale="1" pageWidth="827" pageHeight="1169" math="0" shadow="0">
      <root>
        <mxCell id="0" />
        <mxCell id="1" parent="0" />
        <mxCell id="DyQPFfsiVf1X-Cu4L0ly-2" value="" style="shape=image;verticalLabelPosition=bottom;labelBackgroundColor=default;verticalAlign=top;aspect=fixed;imageAspect=0;editableCssRules=.*;image=data:image/svg+xml,PHN2ZyB4bWxucz0iaHR0cDovL3d3dy53My5vcmcvMjAwMC9zdmciIHhtbG5zOnhsaW5rPSJodHRwOi8vd3d3LnczLm9yZy8xOTk5L3hsaW5rIiBpZD0ibXktc3ZnIiB3aWR0aD0iMzU0MS43ODUxNTYyNSIgY2xhc3M9ImZsb3djaGFydCIgc3R5bGU9Im1heC13aWR0aDogMzg0MHB4OyBiYWNrZ3JvdW5kLWNvbG9yOiB3aGl0ZTsgbWF4LWhlaWdodDogMzg0MHB4OyIgdmlld0JveD0iOCA4IDM1NDEuNzg1MTU2MjUgMTQ3NS44NDM3NSIgcm9sZT0iZ3JhcGhpY3MtZG9jdW1lbnQgZG9jdW1lbnQiIGFyaWEtcm9sZWRlc2NyaXB0aW9uPSJmbG93Y2hhcnQtdjIiIGhlaWdodD0iMTQ3NS44NDM3NSI+PHN0eWxlPiNteS1zdmd7Zm9udC1mYW1pbHk6YXJpYWwsc2Fucy1zZXJpZjtmb250LXNpemU6MTRweDtmaWxsOiMzMzM7fUBrZXlmcmFtZXMgZWRnZS1hbmltYXRpb24tZnJhbWV7ZnJvbXtzdHJva2UtZGFzaG9mZnNldDowO319QGtleWZyYW1lcyBkYXNoe3Rve3N0cm9rZS1kYXNob2Zmc2V0OjA7fX0jbXktc3ZnIC5lZGdlLWFuaW1hdGlvbi1zbG93e3N0cm9rZS1kYXNoYXJyYXk6OSw1IWltcG9ydGFudDtzdHJva2UtZGFzaG9mZnNldDo5MDA7YW5pbWF0aW9uOmRhc2ggNTBzIGxpbmVhciBpbmZpbml0ZTtzdHJva2UtbGluZWNhcDpyb3VuZDt9I215LXN2ZyAuZWRnZS1hbmltYXRpb24tZmFzdHtzdHJva2UtZGFzaGFycmF5OjksNSFpbXBvcnRhbnQ7c3Ryb2tlLWRhc2hvZmZzZXQ6OTAwO2FuaW1hdGlvbjpkYXNoIDIwcyBsaW5lYXIgaW5maW5pdGU7c3Ryb2tlLWxpbmVjYXA6cm91bmQ7fSNteS1zdmcgLmVycm9yLWljb257ZmlsbDojZmZmZmZmO30jbXktc3ZnIC5lcnJvci10ZXh0e2ZpbGw6IzAwMDAwMDtzdHJva2U6IzAwMDAwMDt9I215LXN2ZyAuZWRnZS10aGlja25lc3Mtbm9ybWFse3N0cm9rZS13aWR0aDoycHg7fSNteS1zdmcgLmVkZ2UtdGhpY2tuZXNzLXRoaWNre3N0cm9rZS13aWR0aDozLjVweDt9I215LXN2ZyAuZWRnZS1wYXR0ZXJuLXNvbGlke3N0cm9rZS1kYXNoYXJyYXk6MDt9I215LXN2ZyAuZWRnZS10aGlja25lc3MtaW52aXNpYmxle3N0cm9rZS13aWR0aDowO2ZpbGw6bm9uZTt9I215LXN2ZyAuZWRnZS1wYXR0ZXJuLWRhc2hlZHtzdHJva2UtZGFzaGFycmF5OjM7fSNteS1zdmcgLmVkZ2UtcGF0dGVybi1kb3R0ZWR7c3Ryb2tlLWRhc2hhcnJheToyO30jbXktc3ZnIC5tYXJrZXJ7ZmlsbDojMDAwMDAwO3N0cm9rZTojMDAwMDAwO30jbXktc3ZnIC5tYXJrZXIuY3Jvc3N7c3Ryb2tlOiMwMDAwMDA7fSNteS1zdmcgc3Zne2ZvbnQtZmFtaWx5OmFyaWFsLHNhbnMtc2VyaWY7Zm9udC1zaXplOjE0cHg7fSNteS1zdmcgcHttYXJnaW46MDt9I215LXN2ZyAubGFiZWx7Zm9udC1mYW1pbHk6YXJpYWwsc2Fucy1zZXJpZjtjb2xvcjojMzMzO30jbXktc3ZnIC5jbHVzdGVyLWxhYmVsIHRleHR7ZmlsbDojMDAwMDAwO30jbXktc3ZnIC5jbHVzdGVyLWxhYmVsIHNwYW57Y29sb3I6IzAwMDAwMDt9I215LXN2ZyAuY2x1c3Rlci1sYWJlbCBzcGFuIHB7YmFja2dyb3VuZC1jb2xvcjp0cmFuc3BhcmVudDt9I215LXN2ZyAubGFiZWwgdGV4dCwjbXktc3ZnIHNwYW57ZmlsbDojMzMzO2NvbG9yOiMzMzM7fSNteS1zdmcgLm5vZGUgcmVjdCwjbXktc3ZnIC5ub2RlIGNpcmNsZSwjbXktc3ZnIC5ub2RlIGVsbGlwc2UsI215LXN2ZyAubm9kZSBwb2x5Z29uLCNteS1zdmcgLm5vZGUgcGF0aHtmaWxsOiNmZmZmZmY7c3Ryb2tlOiMwMDAwMDA7c3Ryb2tlLXdpZHRoOjJweDt9I215LXN2ZyAucm91Z2gtbm9kZSAubGFiZWwgdGV4dCwjbXktc3ZnIC5ub2RlIC5sYWJlbCB0ZXh0LCNteS1zdmcgLmltYWdlLXNoYXBlIC5sYWJlbCwjbXktc3ZnIC5pY29uLXNoYXBlIC5sYWJlbHt0ZXh0LWFuY2hvcjptaWRkbGU7fSNteS1zdmcgLm5vZGUgLmthdGV4IHBhdGh7ZmlsbDojMDAwO3N0cm9rZTojMDAwO3N0cm9rZS13aWR0aDoxcHg7fSNteS1zdmcgLnJvdWdoLW5vZGUgLmxhYmVsLCNteS1zdmcgLm5vZGUgLmxhYmVsLCNteS1zdmcgLmltYWdlLXNoYXBlIC5sYWJlbCwjbXktc3ZnIC5pY29uLXNoYXBlIC5sYWJlbHt0ZXh0LWFsaWduOmNlbnRlcjt9I215LXN2ZyAubm9kZS5jbGlja2FibGV7Y3Vyc29yOnBvaW50ZXI7fSNteS1zdmcgLnJvb3QgLmFuY2hvciBwYXRoe2ZpbGw6IzAwMDAwMCFpbXBvcnRhbnQ7c3Ryb2tlLXdpZHRoOjA7c3Ryb2tlOiMwMDAwMDA7fSNteS1zdmcgLmFycm93aGVhZFBhdGh7ZmlsbDojMDAwMDAwO30jbXktc3ZnIC5lZGdlUGF0aCAucGF0aHtzdHJva2U6IzAwMDAwMDtzdHJva2Utd2lkdGg6MnB4O30jbXktc3ZnIC5mbG93Y2hhcnQtbGlua3tzdHJva2U6IzAwMDAwMDtmaWxsOm5vbmU7fSNteS1zdmcgLmVkZ2VMYWJlbHtiYWNrZ3JvdW5kLWNvbG9yOmhzbCgtMTIwLCAwJSwgODAlKTt0ZXh0LWFsaWduOmNlbnRlcjt9I215LXN2ZyAuZWRnZUxhYmVsIHB7YmFja2dyb3VuZC1jb2xvcjpoc2woLTEyMCwgMCUsIDgwJSk7fSNteS1zdmcgLmVkZ2VMYWJlbCByZWN0e29wYWNpdHk6MC41O2JhY2tncm91bmQtY29sb3I6aHNsKC0xMjAsIDAlLCA4MCUpO2ZpbGw6aHNsKC0xMjAsIDAlLCA4MCUpO30jbXktc3ZnIC5sYWJlbEJrZ3tiYWNrZ3JvdW5kLWNvbG9yOnJnYmEoMjA0LCAyMDQsIDIwNCwgMC41KTt9I215LXN2ZyAuY2x1c3RlciByZWN0e2ZpbGw6I2ZmZmZmZjtzdHJva2U6aHNsKDAsIDAlLCA5MCUpO3N0cm9rZS13aWR0aDoycHg7fSNteS1zdmcgLmNsdXN0ZXIgdGV4dHtmaWxsOiMwMDAwMDA7fSNteS1zdmcgLmNsdXN0ZXIgc3Bhbntjb2xvcjojMDAwMDAwO30jbXktc3ZnIGRpdi5tZXJtYWlkVG9vbHRpcHtwb3NpdGlvbjphYnNvbHV0ZTt0ZXh0LWFsaWduOmNlbnRlcjttYXgtd2lkdGg6MjAwcHg7cGFkZGluZzoycHg7Zm9udC1mYW1pbHk6YXJpYWwsc2Fucy1zZXJpZjtmb250LXNpemU6MTJweDtiYWNrZ3JvdW5kOiNmZmZmZmY7Ym9yZGVyOjFweCBzb2xpZCBoc2woMCwgMCUsIDkwJSk7Ym9yZGVyLXJhZGl1czoycHg7cG9pbnRlci1ldmVudHM6bm9uZTt6LWluZGV4OjEwMDt9I215LXN2ZyAuZmxvd2NoYXJ0VGl0bGVUZXh0e3RleHQtYW5jaG9yOm1pZGRsZTtmb250LXNpemU6MThweDtmaWxsOiMzMzM7fSNteS1zdmcgcmVjdC50ZXh0e2ZpbGw6bm9uZTtzdHJva2Utd2lkdGg6MDt9I215LXN2ZyAuaWNvbi1zaGFwZSwjbXktc3ZnIC5pbWFnZS1zaGFwZXtiYWNrZ3JvdW5kLWNvbG9yOmhzbCgtMTIwLCAwJSwgODAlKTt0ZXh0LWFsaWduOmNlbnRlcjt9I215LXN2ZyAuaWNvbi1zaGFwZSBwLCNteS1zdmcgLmltYWdlLXNoYXBlIHB7YmFja2dyb3VuZC1jb2xvcjpoc2woLTEyMCwgMCUsIDgwJSk7cGFkZGluZzoycHg7fSNteS1zdmcgLmljb24tc2hhcGUgcmVjdCwjbXktc3ZnIC5pbWFnZS1zaGFwZSByZWN0e29wYWNpdHk6MC41O2JhY2tncm91bmQtY29sb3I6aHNsKC0xMjAsIDAlLCA4MCUpO2ZpbGw6aHNsKC0xMjAsIDAlLCA4MCUpO30jbXktc3ZnIC5ub2RlIC5uZW8tbm9kZXtzdHJva2U6IzAwMDAwMDt9I215LXN2ZyBbZGF0YS1sb29rPSJuZW8iXS5ub2RlIHJlY3QsI215LXN2ZyBbZGF0YS1sb29rPSJuZW8iXS5jbHVzdGVyIHJlY3QsI215LXN2ZyBbZGF0YS1sb29rPSJuZW8iXS5ub2RlIHBvbHlnb257c3Ryb2tlOnVybCgjbXktc3ZnLWdyYWRpZW50KTtmaWx0ZXI6ZHJvcC1zaGFkb3coIDBweCAxcHggMnB4IHJnYmEoMCwgMCwgMCwgMC4yNSkpO30jbXktc3ZnIFtkYXRhLWxvb2s9Im5lbyJdLm5vZGUgcGF0aHtzdHJva2U6dXJsKCNteS1zdmctZ3JhZGllbnQpO3N0cm9rZS13aWR0aDoyO30jbXktc3ZnIFtkYXRhLWxvb2s9Im5lbyJdLm5vZGUgLm91dGVyLXBhdGh7ZmlsdGVyOmRyb3Atc2hhZG93KCAwcHggMXB4IDJweCByZ2JhKDAsIDAsIDAsIDAuMjUpKTt9I215LXN2ZyBbZGF0YS1sb29rPSJuZW8iXS5ub2RlIC5uZW8tbGluZSBwYXRoe3N0cm9rZTojMDAwMDAwO2ZpbHRlcjpub25lO30jbXktc3ZnIFtkYXRhLWxvb2s9Im5lbyJdLm5vZGUgY2lyY2xle3N0cm9rZTp1cmwoI215LXN2Zy1ncmFkaWVudCk7ZmlsdGVyOmRyb3Atc2hhZG93KCAwcHggMXB4IDJweCByZ2JhKDAsIDAsIDAsIDAuMjUpKTt9I215LXN2ZyBbZGF0YS1sb29rPSJuZW8iXS5ub2RlIGNpcmNsZSAuc3RhdGUtc3RhcnR7ZmlsbDojMDAwMDAwO30jbXktc3ZnIFtkYXRhLWxvb2s9Im5lbyJdLnN0YXRlZGlhZ3JhbS1jbHVzdGVyIHJlY3R7ZmlsbDojZmZmZmZmO3N0cm9rZTp1cmwoI215LXN2Zy1ncmFkaWVudCk7c3Ryb2tlLXdpZHRoOjI7fSNteS1zdmcgW2RhdGEtbG9vaz0ibmVvIl0uaWNvbi1zaGFwZSAuaWNvbntmaWxsOnVybCgjbXktc3ZnLWdyYWRpZW50KTtmaWx0ZXI6ZHJvcC1zaGFkb3coIDBweCAxcHggMnB4IHJnYmEoMCwgMCwgMCwgMC4yNSkpO30jbXktc3ZnIFtkYXRhLWxvb2s9Im5lbyJdLmljb24tc2hhcGUgLmljb24tbmVvIHBhdGh7c3Ryb2tlOnVybCgjbXktc3ZnLWdyYWRpZW50KTtmaWx0ZXI6ZHJvcC1zaGFkb3coIDBweCAxcHggMnB4IHJnYmEoMCwgMCwgMCwgMC4yNSkpO30jbXktc3ZnIDpyb290ey0tbWVybWFpZC1mb250LWZhbWlseToidHJlYnVjaGV0IG1zIix2ZXJkYW5hLGFyaWFsLHNhbnMtc2VyaWY7fSNteS1zdmcgLmVycm9yJmd0Oyp7ZmlsbDojRkZBMDdBIWltcG9ydGFudDt9I215LXN2ZyAuZXJyb3Igc3BhbntmaWxsOiNGRkEwN0EhaW1wb3J0YW50O308L3N0eWxlPjxnPjxtYXJrZXIgaWQ9Im15LXN2Z19mbG93Y2hhcnQtdjItcG9pbnRFbmQiIGNsYXNzPSJtYXJrZXIgZmxvd2NoYXJ0LXYyIiB2aWV3Qm94PSIwIDAgMTEuNSAxNCIgcmVmWD0iNy43NSIgcmVmWT0iNyIgbWFya2VyVW5pdHM9InVzZXJTcGFjZU9uVXNlIiBtYXJrZXJXaWR0aD0iMTAuNSIgbWFya2VySGVpZ2h0PSIxNCIgb3JpZW50PSJhdXRvIj48cGF0aCBkPSJNIDAgMCBMIDExLjUgNyBMIDAgMTQgeiIgY2xhc3M9ImFycm93TWFya2VyUGF0aCIgc3R5bGU9InN0cm9rZS13aWR0aDogMDsgc3Ryb2tlLWRhc2hhcnJheTogMSwgMDsiLz48L21hcmtlcj48bWFya2VyIGlkPSJteS1zdmdfZmxvd2NoYXJ0LXYyLXBvaW50U3RhcnQiIGNsYXNzPSJtYXJrZXIgZmxvd2NoYXJ0LXYyIiB2aWV3Qm94PSIwIDAgMTEuNSAxNCIgcmVmWD0iNCIgcmVmWT0iNyIgbWFya2VyVW5pdHM9InVzZXJTcGFjZU9uVXNlIiBtYXJrZXJXaWR0aD0iMTEuNSIgbWFya2VySGVpZ2h0PSIxNCIgb3JpZW50PSJhdXRvIj48cG9seWdvbiBwb2ludHM9IjAsNyAxMS41LDE0IDExLjUsMCIgY2xhc3M9ImFycm93TWFya2VyUGF0aCIgc3R5bGU9InN0cm9rZS13aWR0aDogMDsgc3Ryb2tlLWRhc2hhcnJheTogMSwgMDsiLz48L21hcmtlcj48bWFya2VyIGlkPSJteS1zdmdfZmxvd2NoYXJ0LXYyLXBvaW50RW5kLW1hcmdpbiIgY2xhc3M9Im1hcmtlciBmbG93Y2hhcnQtdjIiIHZpZXdCb3g9IjAgMCAxMS41IDE0IiByZWZYPSIxMS41IiByZWZZPSI3IiBtYXJrZXJVbml0cz0idXNlclNwYWNlT25Vc2UiIG1hcmtlcldpZHRoPSIxMC41IiBtYXJrZXJIZWlnaHQ9IjE0IiBvcmllbnQ9ImF1dG8iPjxwYXRoIGQ9Ik0gMCAwIEwgMTEuNSA3IEwgMCAxNCB6IiBjbGFzcz0iYXJyb3dNYXJrZXJQYXRoIiBzdHlsZT0ic3Ryb2tlLXdpZHRoOiAwOyBzdHJva2UtZGFzaGFycmF5OiAxLCAwOyIvPjwvbWFya2VyPjxtYXJrZXIgaWQ9Im15LXN2Z19mbG93Y2hhcnQtdjItcG9pbnRTdGFydC1tYXJnaW4iIGNsYXNzPSJtYXJrZXIgZmxvd2NoYXJ0LXYyIiB2aWV3Qm94PSIwIDAgMTEuNSAxNCIgcmVmWD0iMSIgcmVmWT0iNyIgbWFya2VyVW5pdHM9InVzZXJTcGFjZU9uVXNlIiBtYXJrZXJXaWR0aD0iMTEuNSIgbWFya2VySGVpZ2h0PSIxNCIgb3JpZW50PSJhdXRvIj48cG9seWdvbiBwb2ludHM9IjAsNyAxMS41LDE0IDExLjUsMCIgY2xhc3M9ImFycm93TWFya2VyUGF0aCIgc3R5bGU9InN0cm9rZS13aWR0aDogMDsgc3Ryb2tlLWRhc2hhcnJheTogMSwgMDsiLz48L21hcmtlcj48bWFya2VyIGlkPSJteS1zdmdfZmxvd2NoYXJ0LXYyLWNpcmNsZUVuZCIgY2xhc3M9Im1hcmtlciBmbG93Y2hhcnQtdjIiIHZpZXdCb3g9IjAgMCAxMCAxMCIgcmVmWT0iNSIgcmVmWD0iMTAuNzUiIG1hcmtlclVuaXRzPSJ1c2VyU3BhY2VPblVzZSIgbWFya2VyV2lkdGg9IjE0IiBtYXJrZXJIZWlnaHQ9IjE0IiBvcmllbnQ9ImF1dG8iPjxjaXJjbGUgY3g9IjUiIGN5PSI1IiByPSI1IiBjbGFzcz0iYXJyb3dNYXJrZXJQYXRoIiBzdHlsZT0ic3Ryb2tlLXdpZHRoOiAwOyBzdHJva2UtZGFzaGFycmF5OiAxLCAwOyIvPjwvbWFya2VyPjxtYXJrZXIgaWQ9Im15LXN2Z19mbG93Y2hhcnQtdjItY2lyY2xlU3RhcnQiIGNsYXNzPSJtYXJrZXIgZmxvd2NoYXJ0LXYyIiB2aWV3Qm94PSIwIDAgMTAgMTAiIHJlZlg9IjAiIHJlZlk9IjUiIG1hcmtlclVuaXRzPSJ1c2VyU3BhY2VPblVzZSIgbWFya2VyV2lkdGg9IjE0IiBtYXJrZXJIZWlnaHQ9IjE0IiBvcmllbnQ9ImF1dG8iPjxjaXJjbGUgY3g9IjUiIGN5PSI1IiByPSI1IiBjbGFzcz0iYXJyb3dNYXJrZXJQYXRoIiBzdHlsZT0ic3Ryb2tlLXdpZHRoOiAwOyBzdHJva2UtZGFzaGFycmF5OiAxLCAwOyIvPjwvbWFya2VyPjxtYXJrZXIgaWQ9Im15LXN2Z19mbG93Y2hhcnQtdjItY2lyY2xlRW5kLW1hcmdpbiIgY2xhc3M9Im1hcmtlciBmbG93Y2hhcnQtdjIiIHZpZXdCb3g9IjAgMCAxMCAxMCIgcmVmWT0iNSIgcmVmWD0iMTIuMjUiIG1hcmtlclVuaXRzPSJ1c2VyU3BhY2VPblVzZSIgbWFya2VyV2lkdGg9IjE0IiBtYXJrZXJIZWlnaHQ9IjE0IiBvcmllbnQ9ImF1dG8iPjxjaXJjbGUgY3g9IjUiIGN5PSI1IiByPSI1IiBjbGFzcz0iYXJyb3dNYXJrZXJQYXRoIiBzdHlsZT0ic3Ryb2tlLXdpZHRoOiAwOyBzdHJva2UtZGFzaGFycmF5OiAxLCAwOyIvPjwvbWFya2VyPjxtYXJrZXIgaWQ9Im15LXN2Z19mbG93Y2hhcnQtdjItY2lyY2xlU3RhcnQtbWFyZ2luIiBjbGFzcz0ibWFya2VyIGZsb3djaGFydC12MiIgdmlld0JveD0iMCAwIDEwIDEwIiByZWZYPSItMiIgcmVmWT0iNSIgbWFya2VyVW5pdHM9InVzZXJTcGFjZU9uVXNlIiBtYXJrZXJXaWR0aD0iMTQiIG1hcmtlckhlaWdodD0iMTQiIG9yaWVudD0iYXV0byI+PGNpcmNsZSBjeD0iNSIgY3k9IjUiIHI9IjUiIGNsYXNzPSJhcnJvd01hcmtlclBhdGgiIHN0eWxlPSJzdHJva2Utd2lkdGg6IDA7IHN0cm9rZS1kYXNoYXJyYXk6IDEsIDA7Ii8+PC9tYXJrZXI+PG1hcmtlciBpZD0ibXktc3ZnX2Zsb3djaGFydC12Mi1jcm9zc0VuZCIgY2xhc3M9Im1hcmtlciBjcm9zcyBmbG93Y2hhcnQtdjIiIHZpZXdCb3g9IjAgMCAxNSAxNSIgcmVmWD0iMTcuNyIgcmVmWT0iNy41IiBtYXJrZXJVbml0cz0idXNlclNwYWNlT25Vc2UiIG1hcmtlcldpZHRoPSIxMiIgbWFya2VySGVpZ2h0PSIxMiIgb3JpZW50PSJhdXRvIj48cGF0aCBkPSJNIDEsMSBMIDE0LDE0IE0gMSwxNCBMIDE0LDEiIGNsYXNzPSJhcnJvd01hcmtlclBhdGgiIHN0eWxlPSJzdHJva2Utd2lkdGg6IDIuNTsiLz48L21hcmtlcj48bWFya2VyIGlkPSJteS1zdmdfZmxvd2NoYXJ0LXYyLWNyb3NzU3RhcnQiIGNsYXNzPSJtYXJrZXIgY3Jvc3MgZmxvd2NoYXJ0LXYyIiB2aWV3Qm94PSIwIDAgMTUgMTUiIHJlZlg9Ii0zLjUiIHJlZlk9IjcuNSIgbWFya2VyVW5pdHM9InVzZXJTcGFjZU9uVXNlIiBtYXJrZXJXaWR0aD0iMTIiIG1hcmtlckhlaWdodD0iMTIiIG9yaWVudD0iYXV0byI+PHBhdGggZD0iTSAxLDEgTCAxNCwxNCBNIDEsMTQgTCAxNCwxIiBjbGFzcz0iYXJyb3dNYXJrZXJQYXRoIiBzdHlsZT0ic3Ryb2tlLXdpZHRoOiAyLjU7IHN0cm9rZS1kYXNoYXJyYXk6IDEsIDA7Ii8+PC9tYXJrZXI+PG1hcmtlciBpZD0ibXktc3ZnX2Zsb3djaGFydC12Mi1jcm9zc0VuZC1tYXJnaW4iIGNsYXNzPSJtYXJrZXIgY3Jvc3MgZmxvd2NoYXJ0LXYyIiB2aWV3Qm94PSIwIDAgMTUgMTUiIHJlZlg9IjE3LjciIHJlZlk9IjcuNSIgbWFya2VyVW5pdHM9InVzZXJTcGFjZU9uVXNlIiBtYXJrZXJXaWR0aD0iMTIiIG1hcmtlckhlaWdodD0iMTIiIG9yaWVudD0iYXV0byI+PHBhdGggZD0iTSAxLDEgTCAxNCwxNCBNIDEsMTQgTCAxNCwxIiBjbGFzcz0iYXJyb3dNYXJrZXJQYXRoIiBzdHlsZT0ic3Ryb2tlLXdpZHRoOiAyLjU7Ii8+PC9tYXJrZXI+PG1hcmtlciBpZD0ibXktc3ZnX2Zsb3djaGFydC12Mi1jcm9zc1N0YXJ0LW1hcmdpbiIgY2xhc3M9Im1hcmtlciBjcm9zcyBmbG93Y2hhcnQtdjIiIHZpZXdCb3g9IjAgMCAxNSAxNSIgcmVmWD0iLTMuNSIgcmVmWT0iNy41IiBtYXJrZXJVbml0cz0idXNlclNwYWNlT25Vc2UiIG1hcmtlcldpZHRoPSIxMiIgbWFya2VySGVpZ2h0PSIxMiIgb3JpZW50PSJhdXRvIj48cGF0aCBkPSJNIDEsMSBMIDE0LDE0IE0gMSwxNCBMIDE0LDEiIGNsYXNzPSJhcnJvd01hcmtlclBhdGgiIHN0eWxlPSJzdHJva2Utd2lkdGg6IDIuNTsgc3Ryb2tlLWRhc2hhcnJheTogMSwgMDsiLz48L21hcmtlcj48ZyBjbGFzcz0icm9vdCI+PGcgY2xhc3M9ImNsdXN0ZXJzIi8+PGcgY2xhc3M9ImVkZ2VQYXRocyI+PHBhdGggZD0iTTE4NzguMjE0ODQzNzUsMTI0LjQ4NDM3NUwxODc4LjIxNDg0Mzc1LDE0OS40ODQzNzVMMTg3OC4yMTQ4NDM3NSwxNzAuNDg0Mzc1IiBpZD0iTF9BX0JfMCIgY2xhc3M9ImVkZ2UtdGhpY2tuZXNzLW5vcm1hbCBlZGdlLXBhdHRlcm4tc29saWQgZWRnZS10aGlja25lc3Mtbm9ybWFsIGVkZ2UtcGF0dGVybi1zb2xpZCBmbG93Y2hhcnQtbGluayIgc3R5bGU9InN0cm9rZS1kYXNoYXJyYXk6IDAgMCAzNyA5OyBzdHJva2UtZGFzaG9mZnNldDogMDs7IiBkYXRhLWVkZ2U9InRydWUiIGRhdGEtZXQ9ImVkZ2UiIGRhdGEtaWQ9IkxfQV9CXzAiIGRhdGEtcG9pbnRzPSJXM3NpZUNJNk1UZzNPQzR5TVRRNE5ETTNOU3dpZVNJNk1USTBMalE0TkRNM05YMHNleUo0SWpveE9EYzRMakl4TkRnME16YzFMQ0o1SWpveE5Ea3VORGcwTXpjMWZTeDdJbmdpT2pFNE56Z3VNakUwT0RRek56VXNJbmtpT2pFM05DNDBPRFF6TnpWOVhRPT0iIG1hcmtlci1lbmQ9InVybCgjbXktc3ZnX2Zsb3djaGFydC12Mi1wb2ludEVuZC1tYXJnaW4pIi8+PHBhdGggZD0iTTE4NzguMjE0ODQzNzUsMjE5LjQ4NDM3NUwxODc4LjIxNDg0Mzc1LDIzMy43MzE5MjQyNTUxNDMxNlExODc4LjIxNDg0Mzc1LDI0NC40ODQzNzUgMTg3OC40MjU2MzU2MDAxMzEsMjU1LjIzNDc1OTM1NjY4NjU0TDE4NzguNjM2NDI3NDUwMjYyMywyNjUuOTg1MTQzNzEzMzczMSIgaWQ9IkxfQl9DXzAiIGNsYXNzPSJlZGdlLXRoaWNrbmVzcy1ub3JtYWwgZWRnZS1wYXR0ZXJuLXNvbGlkIGVkZ2UtdGhpY2tuZXNzLW5vcm1hbCBlZGdlLXBhdHRlcm4tc29saWQgZmxvd2NoYXJ0LWxpbmsiIHN0eWxlPSJzdHJva2UtZGFzaGFycmF5OiAwIDAgMzcuNTA0MjExNDI1NzgxMjUgOTsgc3Ryb2tlLWRhc2hvZmZzZXQ6IDA7OyIgZGF0YS1lZGdlPSJ0cnVlIiBkYXRhLWV0PSJlZGdlIiBkYXRhLWlkPSJMX0JfQ18wIiBkYXRhLXBvaW50cz0iVzNzaWVDSTZNVGczT0M0eU1UUTRORE0zTlN3aWVTSTZNakU1TGpRNE5ETTNOWDBzZXlKNElqb3hPRGM0TGpJeE5EZzBNemMxTENKNUlqb3lORFF1TkRnME16YzFmU3g3SW5naU9qRTROemd1TnpFME9EUXpOelVzSW5raU9qSTJPUzQ1T0RRek56VjlYUT09IiBtYXJrZXItZW5kPSJ1cmwoI215LXN2Z19mbG93Y2hhcnQtdjItcG9pbnRFbmQtbWFyZ2luKSIvPjxwYXRoIGQ9Ik0xODMwLjk2MzI0OTg5NTQ4NSw0MjguODEwOTA2MTQ1NDg1TDE3NjguMjQ3NzgwMjA1ODk4OCw1MDAuODExMDk0NTk3MDcyNTVRMTc1OC44ODI4MTI1LDUxMS41NjI1IDE3NTguODgyODEyNSw1MjUuODIwNjY3NDIzMjkyTDE3NTguODgyODEyNSw1NDMuMDYyNSIgaWQ9IkxfQ19EXzAiIGNsYXNzPSJlZGdlLXRoaWNrbmVzcy1ub3JtYWwgZWRnZS1wYXR0ZXJuLXNvbGlkIGVkZ2UtdGhpY2tuZXNzLW5vcm1hbCBlZGdlLXBhdHRlcm4tc29saWQgZmxvd2NoYXJ0LWxpbmsiIHN0eWxlPSJzdHJva2UtZGFzaGFycmF5OiAwIDAgMTMxLjA0MzMwNDQ0MzM1OTM4IDk7IHN0cm9rZS1kYXNob2Zmc2V0OiAwOzsiIGRhdGEtZWRnZT0idHJ1ZSIgZGF0YS1ldD0iZWRnZSIgZGF0YS1pZD0iTF9DX0RfMCIgZGF0YS1wb2ludHM9Ilczc2llQ0k2TVRnek1DNDVOak15TkRrNE9UVTBPRFVzSW5raU9qUXlPQzQ0TVRBNU1EWXhORFUwT0RWOUxIc2llQ0k2TVRjMU9DNDRPREk0TVRJMUxDSjVJam8xTVRFdU5UWXlOWDBzZXlKNElqb3hOelU0TGpnNE1qZ3hNalVzSW5raU9qVTBOeTR3TmpJMWZWMD0iIG1hcmtlci1lbmQ9InVybCgjbXktc3ZnX2Zsb3djaGFydC12Mi1wb2ludEVuZC1tYXJnaW4pIi8+PHBhdGggZD0iTTE5MjYuNDY2NDM3NjA0NTE1LDQyOC44MTA5MDYxNDU0ODVMMTk4OC4xNjk4NDMyMzY1MTQ1LDUwMC42NDU3OTI3ODA4ODkzUTE5OTcuNTQ2ODc1LDUxMS41NjI1IDE5OTcuNTQ2ODc1LDUyNS45NTM1ODEzMDc1NzM4TDE5OTcuNTQ2ODc1LDU0My4wNjI1IiBpZD0iTF9DX0VfMCIgY2xhc3M9ImVkZ2UtdGhpY2tuZXNzLW5vcm1hbCBlZGdlLXBhdHRlcm4tc29saWQgZWRnZS10aGlja25lc3Mtbm9ybWFsIGVkZ2UtcGF0dGVybi1zb2xpZCBmbG93Y2hhcnQtbGluayIgc3R5bGU9InN0cm9rZS1kYXNoYXJyYXk6IDAgMCAxMzAuNDAwODYzNjQ3NDYwOTQgOTsgc3Ryb2tlLWRhc2hvZmZzZXQ6IDA7OyIgZGF0YS1lZGdlPSJ0cnVlIiBkYXRhLWV0PSJlZGdlIiBkYXRhLWlkPSJMX0NfRV8wIiBkYXRhLXBvaW50cz0iVzNzaWVDSTZNVGt5Tmk0ME5qWTBNemMyTURRMU1UVXNJbmtpT2pReU9DNDRNVEE1TURZeE5EVTBPRFY5TEhzaWVDSTZNVGs1Tnk0MU5EWTROelVzSW5raU9qVXhNUzQxTmpJMWZTeDdJbmdpT2pFNU9UY3VOVFEyT0RjMUxDSjVJam8xTkRjdU1EWXlOWDFkIiBtYXJrZXItZW5kPSJ1cmwoI215LXN2Z19mbG93Y2hhcnQtdjItcG9pbnRFbmQtbWFyZ2luKSIvPjxwYXRoIGQ9Ik0xNzU4Ljg4MjgxMjUsNTkyLjA2MjVMMTc1OC44ODI4MTI1LDYwNy42Mzc0MjQxNDIyMDE4UTE3NTguODgyODEyNSw2MTcuMDYyNSAxNzY3LjM1OTY2MzY3Njc5NzMsNjIxLjE4MjU3ODc2NzY1NDhMMTgwNi43MjE0NTkyMDAyNjAxLDY0MC4zMTM5Mzk1MzAxMTQzIiBpZD0iTF9EX0ZfMCIgY2xhc3M9ImVkZ2UtdGhpY2tuZXNzLW5vcm1hbCBlZGdlLXBhdHRlcm4tc29saWQgZWRnZS10aGlja25lc3Mtbm9ybWFsIGVkZ2UtcGF0dGVybi1zb2xpZCBmbG93Y2hhcnQtbGluayIgc3R5bGU9InN0cm9rZS1kYXNoYXJyYXk6IDAgMCA2Ny4zMDc5NjgxMzk2NDg0NCA5OyBzdHJva2UtZGFzaG9mZnNldDogMDs7IiBkYXRhLWVkZ2U9InRydWUiIGRhdGEtZXQ9ImVkZ2UiIGRhdGEtaWQ9IkxfRF9GXzAiIGRhdGEtcG9pbnRzPSJXM3NpZUNJNk1UYzFPQzQ0T0RJNE1USTFMQ0o1SWpvMU9USXVNRFl5Tlgwc2V5SjRJam94TnpVNExqZzRNamd4TWpVc0lua2lPall4Tnk0d05qSTFmU3g3SW5naU9qRTRNVEF1TXpFNU1ETXlPRFkyTXpjNU15d2llU0k2TmpReUxqQTJNalY5WFE9PSIgbWFya2VyLWVuZD0idXJsKCNteS1zdmdfZmxvd2NoYXJ0LXYyLXBvaW50RW5kLW1hcmdpbikiLz48cGF0aCBkPSJNMTk5Ny41NDY4NzUsNTkyLjA2MjVMMTk5Ny41NDY4NzUsNjA3LjYzNzQyNDE0MjIwMThRMTk5Ny41NDY4NzUsNjE3LjA2MjUgMTk4OS4wNzAwMjM4MjMyMDI3LDYyMS4xODI1Nzg3Njc2NTQ4TDE5NDkuNzA4MjI4Mjk5NzM5OSw2NDAuMzEzOTM5NTMwMTE0MyIgaWQ9IkxfRV9GXzAiIGNsYXNzPSJlZGdlLXRoaWNrbmVzcy1ub3JtYWwgZWRnZS1wYXR0ZXJuLXNvbGlkIGVkZ2UtdGhpY2tuZXNzLW5vcm1hbCBlZGdlLXBhdHRlcm4tc29saWQgZmxvd2NoYXJ0LWxpbmsiIHN0eWxlPSJzdHJva2UtZGFzaGFycmF5OiAwIDAgNjcuMzA4MDI5MTc0ODA0NjkgOTsgc3Ryb2tlLWRhc2hvZmZzZXQ6IDA7OyIgZGF0YS1lZGdlPSJ0cnVlIiBkYXRhLWV0PSJlZGdlIiBkYXRhLWlkPSJMX0VfRl8wIiBkYXRhLXBvaW50cz0iVzNzaWVDSTZNVGs1Tnk0MU5EWTROelVzSW5raU9qVTVNaTR3TmpJMWZTeDdJbmdpT2pFNU9UY3VOVFEyT0RjMUxDSjVJam8yTVRjdU1EWXlOWDBzZXlKNElqb3hPVFEyTGpFeE1EWTFORFl6TXpZeU1EY3NJbmtpT2pZME1pNHdOakkxZlYwPSIgbWFya2VyLWVuZD0idXJsKCNteS1zdmdfZmxvd2NoYXJ0LXYyLXBvaW50RW5kLW1hcmdpbikiLz48cGF0aCBkPSJNMTg3OC4yMTQ4NDM3NSw3MDguMDYyNUwxODc4LjIxNDg0Mzc1LDcyMi4zMTAwNDkyNTUxNDMyUTE4NzguMjE0ODQzNzUsNzMzLjA2MjUgMTg3OC40MjU2MzU2MDAxMzEsNzQzLjgxMjg4NDM1NjY4NjVMMTg3OC42MzY0Mjc0NTAyNjIzLDc1NC41NjMyNjg3MTMzNzMxIiBpZD0iTF9GX0dfMCIgY2xhc3M9ImVkZ2UtdGhpY2tuZXNzLW5vcm1hbCBlZGdlLXBhdHRlcm4tc29saWQgZWRnZS10aGlja25lc3Mtbm9ybWFsIGVkZ2UtcGF0dGVybi1zb2xpZCBmbG93Y2hhcnQtbGluayIgc3R5bGU9InN0cm9rZS1kYXNoYXJyYXk6IDAgMCAzNy41MDQyNDE5NDMzNTkzNzUgOTsgc3Ryb2tlLWRhc2hvZmZzZXQ6IDA7OyIgZGF0YS1lZGdlPSJ0cnVlIiBkYXRhLWV0PSJlZGdlIiBkYXRhLWlkPSJMX0ZfR18wIiBkYXRhLXBvaW50cz0iVzNzaWVDSTZNVGczT0M0eU1UUTRORE0zTlN3aWVTSTZOekE0TGpBMk1qVjlMSHNpZUNJNk1UZzNPQzR5TVRRNE5ETTNOU3dpZVNJNk56TXpMakEyTWpWOUxIc2llQ0k2TVRnM09DNDNNVFE0TkRNM05Td2llU0k2TnpVNExqVTJNalY5WFE9PSIgbWFya2VyLWVuZD0idXJsKCNteS1zdmdfZmxvd2NoYXJ0LXYyLXBvaW50RW5kLW1hcmdpbikiLz48cGF0aCBkPSJNMTgwNi40NjM1NzUxNDkxMTEsODM5LjA0NTYwNjM5OTExMDlMMTA2LjA3Mjk5NzI3MzQ2NDQyLDkzNS4zODUwNzI1MDQ2MzQ1UTk4LjgwNDY4NzUsOTM1Ljc5Njg3NSA5OC44MDQ2ODc1LDk0My4wNzY4NDEyMjY0NDgzTDk4LjgwNDY4NzUsOTg3LjM1MTU2MjUiIGlkPSJMX0dfSF8wIiBjbGFzcz0iZWRnZS10aGlja25lc3Mtbm9ybWFsIGVkZ2UtcGF0dGVybi1zb2xpZCBlZGdlLXRoaWNrbmVzcy1ub3JtYWwgZWRnZS1wYXR0ZXJuLXNvbGlkIGZsb3djaGFydC1saW5rIiBzdHlsZT0ic3Ryb2tlLWRhc2hhcnJheTogMCAwIDE3NTAuMzg2NzE4NzUgOTsgc3Ryb2tlLWRhc2hvZmZzZXQ6IDA7OyIgZGF0YS1lZGdlPSJ0cnVlIiBkYXRhLWV0PSJlZGdlIiBkYXRhLWlkPSJMX0dfSF8wIiBkYXRhLXBvaW50cz0iVzNzaWVDSTZNVGd3Tmk0ME5qTTFOelV4TkRreE1URXNJbmtpT2pnek9TNHdORFUyTURZek9Ua3hNVEE1ZlN4N0luZ2lPams0TGpnd05EWTROelVzSW5raU9qa3pOUzQzT1RZNE56VjlMSHNpZUNJNk9UZ3VPREEwTmpnM05Td2llU0k2T1RreExqTTFNVFUyTWpWOVhRPT0iIG1hcmtlci1lbmQ9InVybCgjbXktc3ZnX2Zsb3djaGFydC12Mi1wb2ludEVuZC1tYXJnaW4pIi8+PHBhdGggZD0iTTE4MDcuMDA0OTI1Mjc3MzI3LDgzOS41ODY5NTY1MjczMjcxTDMyNC43MTcyNjQ1OTkwMzUzLDkzNS4zMjU2NzY4MDkwNTczUTMxNy40MjE4NzUsOTM1Ljc5Njg3NSAzMTcuNDIxODc1LDk0My4xMDc0NjU3NTE1NjQ0TDMxNy40MjE4NzUsOTg3LjM1MTU2MjUiIGlkPSJMX0dfSV8wIiBjbGFzcz0iZWRnZS10aGlja25lc3Mtbm9ybWFsIGVkZ2UtcGF0dGVybi1zb2xpZCBlZGdlLXRoaWNrbmVzcy1ub3JtYWwgZWRnZS1wYXR0ZXJuLXNvbGlkIGZsb3djaGFydC1saW5rIiBzdHlsZT0ic3Ryb2tlLWRhc2hhcnJheTogMCAwIDE1MzIuNjg5Njk3MjY1NjI1IDk7IHN0cm9rZS1kYXNob2Zmc2V0OiAwOzsiIGRhdGEtZWRnZT0idHJ1ZSIgZGF0YS1ldD0iZWRnZSIgZGF0YS1pZD0iTF9HX0lfMCIgZGF0YS1wb2ludHM9Ilczc2llQ0k2TVRnd055NHdNRFE1TWpVeU56Y3pNamNzSW5raU9qZ3pPUzQxT0RZNU5UWTFNamN6TWpjeGZTeDdJbmdpT2pNeE55NDBNakU0TnpVc0lua2lPamt6TlM0M09UWTROelY5TEhzaWVDSTZNekUzTGpReU1UZzNOU3dpZVNJNk9Ua3hMak0xTVRVMk1qVjlYUT09IiBtYXJrZXItZW5kPSJ1cmwoI215LXN2Z19mbG93Y2hhcnQtdjItcG9pbnRFbmQtbWFyZ2luKSIvPjxwYXRoIGQ9Ik0xODA5LjA3OTg3MTQxMDE3NTIsODQxLjY2MTkwMjY2MDE3NTNMODM3LjEyMDM2NDAwMzI2OTUsOTM1LjA4NTQ0MTA3MjA2ODlRODI5LjcxODc1LDkzNS43OTY4NzUgODI5LjcxODc1LDk0My4yMzI2MDE0NjY2NzQ3TDgyOS43MTg3NSw5ODcuMzUxNTYyNSIgaWQ9IkxfR19KXzAiIGNsYXNzPSJlZGdlLXRoaWNrbmVzcy1ub3JtYWwgZWRnZS1wYXR0ZXJuLXNvbGlkIGVkZ2UtdGhpY2tuZXNzLW5vcm1hbCBlZGdlLXBhdHRlcm4tc29saWQgZmxvd2NoYXJ0LWxpbmsiIHN0eWxlPSJzdHJva2UtZGFzaGFycmF5OiAwIDAgMTAyMy45MzIwMDY4MzU5Mzc1IDk7IHN0cm9rZS1kYXNob2Zmc2V0OiAwOzsiIGRhdGEtZWRnZT0idHJ1ZSIgZGF0YS1ldD0iZWRnZSIgZGF0YS1pZD0iTF9HX0pfMCIgZGF0YS1wb2ludHM9Ilczc2llQ0k2TVRnd09TNHdOems0TnpFME1UQXhOelV5TENKNUlqbzROREV1TmpZeE9UQXlOall3TVRjMU0zMHNleUo0SWpvNE1qa3VOekU0TnpVc0lua2lPamt6TlM0M09UWTROelY5TEhzaWVDSTZPREk1TGpjeE9EYzFMQ0o1SWpvNU9URXVNelV4TlRZeU5YMWQiIG1hcmtlci1lbmQ9InVybCgjbXktc3ZnX2Zsb3djaGFydC12Mi1wb2ludEVuZC1tYXJnaW4pIi8+PHBhdGggZD0iTTE4MTQuMzA1MjI4OTAyMDU0NSw4NDYuODg3MjYwMTUyMDU0NUwxMzM5Ljg4NDc5MjY1MTQ2Nyw5MzQuMzc5NTA3NDQ3ODk0UTEzMzIuMTk5MjE4NzUsOTM1Ljc5Njg3NSAxMzMyLjE5OTIxODc1LDk0My42MTIwNTEwNjc5MjUzTDEzMzIuMTk5MjE4NzUsOTg3LjM1MTU2MjUiIGlkPSJMX0dfS18wIiBjbGFzcz0iZWRnZS10aGlja25lc3Mtbm9ybWFsIGVkZ2UtcGF0dGVybi1zb2xpZCBlZGdlLXRoaWNrbmVzcy1ub3JtYWwgZWRnZS1wYXR0ZXJuLXNvbGlkIGZsb3djaGFydC1saW5rIiBzdHlsZT0ic3Ryb2tlLWRhc2hhcnJheTogMCAwIDUzMC40NDMyMzczMDQ2ODc1IDk7IHN0cm9rZS1kYXNob2Zmc2V0OiAwOzsiIGRhdGEtZWRnZT0idHJ1ZSIgZGF0YS1ldD0iZWRnZSIgZGF0YS1pZD0iTF9HX0tfMCIgZGF0YS1wb2ludHM9Ilczc2llQ0k2TVRneE5DNHpNRFV5TWpnNU1ESXdOVFExTENKNUlqbzRORFl1T0RnM01qWXdNVFV5TURVME5YMHNleUo0SWpveE16TXlMakU1T1RJeE9EYzFMQ0o1SWpvNU16VXVOemsyT0RjMWZTeDdJbmdpT2pFek16SXVNVGs1TWpFNE56VXNJbmtpT2prNU1TNHpOVEUxTmpJMWZWMD0iIG1hcmtlci1lbmQ9InVybCgjbXktc3ZnX2Zsb3djaGFydC12Mi1wb2ludEVuZC1tYXJnaW4pIi8+PHBhdGggZD0iTTE4MjIuNTk0NTgxMTUyNjg1LDg1NS4xNzY2MTI0MDI2ODVMMTYwNS40MjE4MjA1MTQ4NjMsOTMyLjg3MTk0MTk0OTM5ODdRMTU5Ny4yNDYwOTM3NSw5MzUuNzk2ODc1IDE1OTcuMjQ2MDkzNzUsOTQ0LjQ4MDA2MjI4ODMyODhMMTU5Ny4yNDYwOTM3NSw5ODcuMzUxNTYyNSIgaWQ9IkxfR19MXzAiIGNsYXNzPSJlZGdlLXRoaWNrbmVzcy1ub3JtYWwgZWRnZS1wYXR0ZXJuLXNvbGlkIGVkZ2UtdGhpY2tuZXNzLW5vcm1hbCBlZGdlLXBhdHRlcm4tc29saWQgZmxvd2NoYXJ0LWxpbmsiIHN0eWxlPSJzdHJva2UtZGFzaGFycmF5OiAwIDAgMjc5LjgyMTQ3MjE2Nzk2ODc1IDk7IHN0cm9rZS1kYXNob2Zmc2V0OiAwOzsiIGRhdGEtZWRnZT0idHJ1ZSIgZGF0YS1ldD0iZWRnZSIgZGF0YS1pZD0iTF9HX0xfMCIgZGF0YS1wb2ludHM9Ilczc2llQ0k2TVRneU1pNDFPVFExT0RFeE5USTJPRFVzSW5raU9qZzFOUzR4TnpZMk1USTBNREkyT0RWOUxIc2llQ0k2TVRVNU55NHlORFl3T1RNM05Td2llU0k2T1RNMUxqYzVOamczTlgwc2V5SjRJam94TlRrM0xqSTBOakE1TXpjMUxDSjVJam81T1RFdU16VXhOVFl5TlgxZCIgbWFya2VyLWVuZD0idXJsKCNteS1zdmdfZmxvd2NoYXJ0LXYyLXBvaW50RW5kLW1hcmdpbikiLz48cGF0aCBkPSJNMTg3OC43MTQ4NDM3NSw5MTEuMjk2ODc1TDE4NzguNDY0ODQzNzUsOTIzLjU0Njg3NVExODc4LjIxNDg0Mzc1LDkzNS43OTY4NzUgMTg3OC4yMTQ4NDM3NSw5NDguMDQ5NDI1NzU0ODQyOUwxODc4LjIxNDg0Mzc1LDk4Ny4zNTE1NjI1IiBpZD0iTF9HX01fMCIgY2xhc3M9ImVkZ2UtdGhpY2tuZXNzLW5vcm1hbCBlZGdlLXBhdHRlcm4tc29saWQgZWRnZS10aGlja25lc3Mtbm9ybWFsIGVkZ2UtcGF0dGVybi1zb2xpZCBmbG93Y2hhcnQtbGluayIgc3R5bGU9InN0cm9rZS1kYXNoYXJyYXk6IDAgMCA2Ny4wNTg5NDQ3MDIxNDg0NCA5OyBzdHJva2UtZGFzaG9mZnNldDogMDs7IiBkYXRhLWVkZ2U9InRydWUiIGRhdGEtZXQ9ImVkZ2UiIGRhdGEtaWQ9IkxfR19NXzAiIGRhdGEtcG9pbnRzPSJXM3NpZUNJNk1UZzNPQzQzTVRRNE5ETTNOU3dpZVNJNk9URXhMakk1TmpnM05YMHNleUo0SWpveE9EYzRMakl4TkRnME16YzFMQ0o1SWpvNU16VXVOemsyT0RjMWZTeDdJbmdpT2pFNE56Z3VNakUwT0RRek56VXNJbmtpT2prNU1TNHpOVEUxTmpJMWZWMD0iIG1hcmtlci1lbmQ9InVybCgjbXktc3ZnX2Zsb3djaGFydC12Mi1wb2ludEVuZC1tYXJnaW4pIi8+PHBhdGggZD0iTTE5NDMuMDg2MDIzMzEwMzMzMyw4NDYuOTI1Njk1NDM5NjY2N0wyNDE0LjQ2NzMxMDYzOTI5MzQsOTM0LjM3MDUxODEyNjg2MzRRMjQyMi4xNTYyNSw5MzUuNzk2ODc1IDI0MjIuMTU2MjUsOTQzLjYxNjk5NTM1ODU0NzVMMjQyMi4xNTYyNSw5ODcuMzUxNTYyNSIgaWQ9IkxfR19OXzAiIGNsYXNzPSJlZGdlLXRoaWNrbmVzcy1ub3JtYWwgZWRnZS1wYXR0ZXJuLXNvbGlkIGVkZ2UtdGhpY2tuZXNzLW5vcm1hbCBlZGdlLXBhdHRlcm4tc29saWQgZmxvd2NoYXJ0LWxpbmsiIHN0eWxlPSJzdHJva2UtZGFzaGFycmF5OiAwIDAgNTI3LjQ1MzI0NzA3MDMxMjUgOTsgc3Ryb2tlLWRhc2hvZmZzZXQ6IDA7OyIgZGF0YS1lZGdlPSJ0cnVlIiBkYXRhLWV0PSJlZGdlIiBkYXRhLWlkPSJMX0dfTl8wIiBkYXRhLXBvaW50cz0iVzNzaWVDSTZNVGswTXk0d09EWXdNak16TVRBek16TXpMQ0o1SWpvNE5EWXVPVEkxTmprMU5ETTVOalkyTjMwc2V5SjRJam95TkRJeUxqRTFOakkxTENKNUlqbzVNelV1TnprMk9EYzFmU3g3SW5naU9qSTBNakl1TVRVMk1qVXNJbmtpT2prNU1TNHpOVEUxTmpJMWZWMD0iIG1hcmtlci1lbmQ9InVybCgjbXktc3ZnX2Zsb3djaGFydC12Mi1wb2ludEVuZC1tYXJnaW4pIi8+PHBhdGggZD0iTTE5NDguMjAwMDI1ODMzODQ1NSw4NDEuODExNjkyOTE2MTU0NUwyODk0LjI3MzgyMDA1ODE5NTMsOTM1LjA2NjQ5MTIyMzAxODVRMjkwMS42ODM1OTM3NSw5MzUuNzk2ODc1IDI5MDEuNjgzNTkzNzUsOTQzLjI0MjU1ODc1ODA4NzFMMjkwMS42ODM1OTM3NSw5ODcuMzUxNTYyNSIgaWQ9IkxfR19PXzAiIGNsYXNzPSJlZGdlLXRoaWNrbmVzcy1ub3JtYWwgZWRnZS1wYXR0ZXJuLXNvbGlkIGVkZ2UtdGhpY2tuZXNzLW5vcm1hbCBlZGdlLXBhdHRlcm4tc29saWQgZmxvd2NoYXJ0LWxpbmsiIHN0eWxlPSJzdHJva2UtZGFzaGFycmF5OiAwIDAgOTk4LjE2NjEzNzY5NTMxMjUgOTsgc3Ryb2tlLWRhc2hvZmZzZXQ6IDA7OyIgZGF0YS1lZGdlPSJ0cnVlIiBkYXRhLWV0PSJlZGdlIiBkYXRhLWlkPSJMX0dfT18wIiBkYXRhLXBvaW50cz0iVzNzaWVDSTZNVGswT0M0eU1EQXdNalU0TXpNNE5EVTFMQ0o1SWpvNE5ERXVPREV4TmpreU9URTJNVFUwTlgwc2V5SjRJam95T1RBeExqWTRNelU1TXpjMUxDSjVJam81TXpVdU56azJPRGMxZlN4N0luZ2lPakk1TURFdU5qZ3pOVGt6TnpVc0lua2lPams1TVM0ek5URTFOakkxZlYwPSIgbWFya2VyLWVuZD0idXJsKCNteS1zdmdfZmxvd2NoYXJ0LXYyLXBvaW50RW5kLW1hcmdpbikiLz48cGF0aCBkPSJNMTk0OS4yMzIwODI4NjI4Njc2LDg0MC43Nzk2MzU4ODcxMzI1TDMwOTIuNzcyNjg2NTM3NjIxLDkzNS4xODk1NTA2MzA3MTMxUTMxMDAuMTI4OTA2MjUsOTM1Ljc5Njg3NSAzMTAwLjEyODkwNjI1LDk0My4xNzgxMjIyNzU3ODc0TDMxMDAuMTI4OTA2MjUsOTg3LjM1MTU2MjUiIGlkPSJMX0dfUF8wIiBjbGFzcz0iZWRnZS10aGlja25lc3Mtbm9ybWFsIGVkZ2UtcGF0dGVybi1zb2xpZCBlZGdlLXRoaWNrbmVzcy1ub3JtYWwgZWRnZS1wYXR0ZXJuLXNvbGlkIGZsb3djaGFydC1saW5rIiBzdHlsZT0ic3Ryb2tlLWRhc2hhcnJheTogMCAwIDExOTQuODQ2NTU3NjE3MTg3NSA5OyBzdHJva2UtZGFzaG9mZnNldDogMDs7IiBkYXRhLWVkZ2U9InRydWUiIGRhdGEtZXQ9ImVkZ2UiIGRhdGEtaWQ9IkxfR19QXzAiIGRhdGEtcG9pbnRzPSJXM3NpZUNJNk1UazBPUzR5TXpJd09ESTROakk0TmpjMkxDSjVJam80TkRBdU56YzVOak0xT0RnM01UTXlOWDBzZXlKNElqb3pNVEF3TGpFeU9Ea3dOakkxTENKNUlqbzVNelV1TnprMk9EYzFmU3g3SW5naU9qTXhNREF1TVRJNE9UQTJNalVzSW5raU9qazVNUzR6TlRFMU5qSTFmVjA9IiBtYXJrZXItZW5kPSJ1cmwoI215LXN2Z19mbG93Y2hhcnQtdjItcG9pbnRFbmQtbWFyZ2luKSIvPjxwYXRoIGQ9Ik0xOTUwLjAyMzU1NTk1NDYwNTQsODM5Ljk4ODE2Mjc5NTM5NDdMMzI5OS44NTk5NzU5Mzg0MTc0LDkzNS4yODA0MTI3NTQ1ODc3UTMzMDcuMTc1NzgxMjUsOTM1Ljc5Njg3NSAzMzA3LjE3NTc4MTI1LDk0My4xMzA4ODc1ODU3NDg1TDMzMDcuMTc1NzgxMjUsOTg3LjM1MTU2MjUiIGlkPSJMX0dfUV8wIiBjbGFzcz0iZWRnZS10aGlja25lc3Mtbm9ybWFsIGVkZ2UtcGF0dGVybi1zb2xpZCBlZGdlLXRoaWNrbmVzcy1ub3JtYWwgZWRnZS1wYXR0ZXJuLXNvbGlkIGZsb3djaGFydC1saW5rIiBzdHlsZT0ic3Ryb2tlLWRhc2hhcnJheTogMCAwIDE0MDAuNTQzMzM0OTYwOTM3NSA5OyBzdHJva2UtZGFzaG9mZnNldDogMDs7IiBkYXRhLWVkZ2U9InRydWUiIGRhdGEtZXQ9ImVkZ2UiIGRhdGEtaWQ9IkxfR19RXzAiIGRhdGEtcG9pbnRzPSJXM3NpZUNJNk1UazFNQzR3TWpNMU5UVTVOVFEyTURVMExDSjVJam80TXprdU9UZzRNVFl5TnprMU16azBOMzBzZXlKNElqb3pNekEzTGpFM05UYzRNVEkxTENKNUlqbzVNelV1TnprMk9EYzFmU3g3SW5naU9qTXpNRGN1TVRjMU56Z3hNalVzSW5raU9qazVNUzR6TlRFMU5qSTFmVjA9IiBtYXJrZXItZW5kPSJ1cmwoI215LXN2Z19mbG93Y2hhcnQtdjItcG9pbnRFbmQtbWFyZ2luKSIvPjxwYXRoIGQ9Ik0xOTUwLjU4MTA2OTM0ODQ2OSw4MzkuNDMwNjQ5NDAxNTMwOEwzNDg5LjQ0Mjc4Nzc0NjA4MjYsOTM1LjM0MjY1ODY2NjE5MzVRMzQ5Ni43MzA0Njg3NSw5MzUuNzk2ODc1IDM0OTYuNzMwNDY4NzUsOTQzLjA5ODY5NzE2MjQ5ODZMMzQ5Ni43MzA0Njg3NSw5NTYuNzk2ODc1IiBpZD0iTF9HX1JfMCIgY2xhc3M9ImVkZ2UtdGhpY2tuZXNzLW5vcm1hbCBlZGdlLXBhdHRlcm4tc29saWQgZWRnZS10aGlja25lc3Mtbm9ybWFsIGVkZ2UtcGF0dGVybi1zb2xpZCBmbG93Y2hhcnQtbGluayIgc3R5bGU9InN0cm9rZS1kYXNoYXJyYXk6IDAgMCAxNTU4LjU5Mzk5NDE0MDYyNSA5OyBzdHJva2UtZGFzaG9mZnNldDogMDs7IiBkYXRhLWVkZ2U9InRydWUiIGRhdGEtZXQ9ImVkZ2UiIGRhdGEtaWQ9IkxfR19SXzAiIGRhdGEtcG9pbnRzPSJXM3NpZUNJNk1UazFNQzQxT0RFd05qa3pORGcwTmprc0lua2lPamd6T1M0ME16QTJORGswTURFMU16QTRmU3g3SW5naU9qTTBPVFl1TnpNd05EWTROelVzSW5raU9qa3pOUzQzT1RZNE56VjlMSHNpZUNJNk16UTVOaTQzTXpBME5qZzNOU3dpZVNJNk9UWXdMamM1TmpnM05YMWQiIG1hcmtlci1lbmQ9InVybCgjbXktc3ZnX2Zsb3djaGFydC12Mi1wb2ludEVuZC1tYXJnaW4pIi8+PHBhdGggZD0iTTMxNy40MjE4NzUsMTAzNi4zNTE1NjI1TDMxNy40MjE4NzUsMTA2Ny41NzMwMzIwMDkyMDAyUTMxNy40MjE4NzUsMTA5MS45MDYyNSAzMTcuNjUyODg3NTc1MDYxMTMsMTExNi4yMzgzNzEzODI2MDc1TDMxNy44ODM5MDAxNTAxMjIyLDExNDAuNTcwNDkyNzY1MjE0OCIgaWQ9IkxfSV9TXzAiIGNsYXNzPSJlZGdlLXRoaWNrbmVzcy1ub3JtYWwgZWRnZS1wYXR0ZXJuLXNvbGlkIGVkZ2UtdGhpY2tuZXNzLW5vcm1hbCBlZGdlLXBhdHRlcm4tc29saWQgZmxvd2NoYXJ0LWxpbmsiIHN0eWxlPSJzdHJva2UtZGFzaGFycmF5OiAwIDAgOTUuMjIwNzAzMTI1IDk7IHN0cm9rZS1kYXNob2Zmc2V0OiAwOzsiIGRhdGEtZWRnZT0idHJ1ZSIgZGF0YS1ldD0iZWRnZSIgZGF0YS1pZD0iTF9JX1NfMCIgZGF0YS1wb2ludHM9Ilczc2llQ0k2TXpFM0xqUXlNVGczTlN3aWVTSTZNVEF6Tmk0ek5URTFOakkxZlN4N0luZ2lPak14Tnk0ME1qRTROelVzSW5raU9qRXdPVEV1T1RBMk1qVjlMSHNpZUNJNk16RTNMamt5TVRnM05Td2llU0k2TVRFME5DNDFOekF6TVRJMWZWMD0iIG1hcmtlci1lbmQ9InVybCgjbXktc3ZnX2Zsb3djaGFydC12Mi1wb2ludEVuZC1tYXJnaW4pIi8+PHBhdGggZD0iTTI3Ni42OTk5NzY1MjE3MTk3LDEyNzguOTU3Nzg5MDIxNzE5N0wxOTMuNjExNjQ1NzIwNzg3OTgsMTM3MS44OTQzNDE0ODIxNDQyUTE4NC4yNjk1MzEyNSwxMzgyLjM0Mzc1IDE4NC4yNjk1MzEyNSwxMzk2LjM2MDM1NTkwNzIyMUwxODQuMjY5NTMxMjUsMTQyNC4zNDM3NSIgaWQ9IkxfU19UXzAiIGNsYXNzPSJlZGdlLXRoaWNrbmVzcy1ub3JtYWwgZWRnZS1wYXR0ZXJuLXNvbGlkIGVkZ2UtdGhpY2tuZXNzLW5vcm1hbCBlZGdlLXBhdHRlcm4tc29saWQgZmxvd2NoYXJ0LWxpbmsiIHN0eWxlPSJzdHJva2UtZGFzaGFycmF5OiAwIDAgMTcwLjQ1ODcwOTcxNjc5Njg4IDk7IHN0cm9rZS1kYXNob2Zmc2V0OiAwOzsiIGRhdGEtZWRnZT0idHJ1ZSIgZGF0YS1ldD0iZWRnZSIgZGF0YS1pZD0iTF9TX1RfMCIgZGF0YS1wb2ludHM9Ilczc2llQ0k2TWpjMkxqWTVPVGszTmpVeU1UY3hPVGNzSW5raU9qRXlOemd1T1RVM056ZzVNREl4TnpFNU4zMHNleUo0SWpveE9EUXVNalk1TlRNeE1qVXNJbmtpT2pFek9ESXVNelF6TnpWOUxIc2llQ0k2TVRnMExqSTJPVFV6TVRJMUxDSjVJam94TkRJNExqTTBNemMxZlYwPSIgbWFya2VyLWVuZD0idXJsKCNteS1zdmdfZmxvd2NoYXJ0LXYyLXBvaW50RW5kLW1hcmdpbikiLz48cGF0aCBkPSJNMzU5LjE0Mzc3MzQ3ODI4MDMsMTI3OC45NTc3ODkwMjE3MTk3TDQ0MS4yMjI1MDQwMzc2OTUxLDEzNzEuNzY5MTk3ODQyMzEzUTQ1MC41NzQyMTg3NSwxMzgyLjM0Mzc1IDQ1MC41NzQyMTg3NSwxMzk2LjQ2MDI1NTI4MjY4MThMNDUwLjU3NDIxODc1LDE0MjQuMzQzNzUiIGlkPSJMX1NfVV8wIiBjbGFzcz0iZWRnZS10aGlja25lc3Mtbm9ybWFsIGVkZ2UtcGF0dGVybi1zb2xpZCBlZGdlLXRoaWNrbmVzcy1ub3JtYWwgZWRnZS1wYXR0ZXJuLXNvbGlkIGZsb3djaGFydC1saW5rIiBzdHlsZT0ic3Ryb2tlLWRhc2hhcnJheTogMCAwIDE2OS44MDMzNDQ3MjY1NjI1IDk7IHN0cm9rZS1kYXNob2Zmc2V0OiAwOzsiIGRhdGEtZWRnZT0idHJ1ZSIgZGF0YS1ldD0iZWRnZSIgZGF0YS1pZD0iTF9TX1VfMCIgZGF0YS1wb2ludHM9Ilczc2llQ0k2TXpVNUxqRTBNemMzTXpRM09ESTRNRE1zSW5raU9qRXlOemd1T1RVM056ZzVNREl4TnpFNU4zMHNleUo0SWpvME5UQXVOVGMwTWpFNE56VXNJbmtpT2pFek9ESXVNelF6TnpWOUxIc2llQ0k2TkRVd0xqVTNOREl4T0RjMUxDSjVJam94TkRJNExqTTBNemMxZlYwPSIgbWFya2VyLWVuZD0idXJsKCNteS1zdmdfZmxvd2NoYXJ0LXYyLXBvaW50RW5kLW1hcmdpbikiLz48cGF0aCBkPSJNODI5LjcxODc1LDEwMzYuMzUxNTYyNUw4MjkuNzE4NzUsMTA2NC4xMjg5MDYyNVE4MjkuNzE4NzUsMTA5MS45MDYyNSA4MjkuOTQwNzM5NjYzODc2OCwxMTE5LjY4MjcwNjY5MjU4MDVMODMwLjE4Njc4Mjk4ODkxNzIsMTE1MC40Njg4Nzc3MzgyNjQ0IiBpZD0iTF9KX1ZfMCIgY2xhc3M9ImVkZ2UtdGhpY2tuZXNzLW5vcm1hbCBlZGdlLXBhdHRlcm4tc29saWQgZWRnZS10aGlja25lc3Mtbm9ybWFsIGVkZ2UtcGF0dGVybi1zb2xpZCBmbG93Y2hhcnQtbGluayIgc3R5bGU9InN0cm9rZS1kYXNoYXJyYXk6IDAgMCAxMDUuMTE4ODk2NDg0Mzc1IDk7IHN0cm9rZS1kYXNob2Zmc2V0OiAwOzsiIGRhdGEtZWRnZT0idHJ1ZSIgZGF0YS1ldD0iZWRnZSIgZGF0YS1pZD0iTF9KX1ZfMCIgZGF0YS1wb2ludHM9Ilczc2llQ0k2T0RJNUxqY3hPRGMxTENKNUlqb3hNRE0yTGpNMU1UVTJNalY5TEhzaWVDSTZPREk1TGpjeE9EYzFMQ0o1SWpveE1Ea3hMamt3TmpJMWZTeDdJbmdpT2pnek1DNHlNVGczTlN3aWVTSTZNVEUxTkM0ME5qZzNOWDFkIiBtYXJrZXItZW5kPSJ1cmwoI215LXN2Z19mbG93Y2hhcnQtdjItcG9pbnRFbmQtbWFyZ2luKSIvPjxwYXRoIGQ9Ik03OTQuOTY4MDkwMzc5OTQxMSwxMjc1LjAzMDU5MDM3OTk0MTNMNzE0Ljc3MjIyNDM2NTQxNTQsMTM3MS4wODM3MTgyMTAwMDY1UTcwNS4zNzEwOTM3NSwxMzgyLjM0Mzc1IDcwNS4zNzEwOTM3NSwxMzk3LjAxMjQwOTU0MjAyMjRMNzA1LjM3MTA5Mzc1LDE0MjQuMzQzNzUiIGlkPSJMX1ZfV18wIiBjbGFzcz0iZWRnZS10aGlja25lc3Mtbm9ybWFsIGVkZ2UtcGF0dGVybi1zb2xpZCBlZGdlLXRoaWNrbmVzcy1ub3JtYWwgZWRnZS1wYXR0ZXJuLXNvbGlkIGZsb3djaGFydC1saW5rIiBzdHlsZT0ic3Ryb2tlLWRhc2hhcnJheTogMCAwIDE3MS42MzQ5NjM5ODkyNTc4IDk7IHN0cm9rZS1kYXNob2Zmc2V0OiAwOzsiIGRhdGEtZWRnZT0idHJ1ZSIgZGF0YS1ldD0iZWRnZSIgZGF0YS1pZD0iTF9WX1dfMCIgZGF0YS1wb2ludHM9Ilczc2llQ0k2TnprMExqazJPREE1TURNM09UazBNVEVzSW5raU9qRXlOelV1TURNd05Ua3dNemM1T1RReE0zMHNleUo0SWpvM01EVXVNemN4TURrek56VXNJbmtpT2pFek9ESXVNelF6TnpWOUxIc2llQ0k2TnpBMUxqTTNNVEE1TXpjMUxDSjVJam94TkRJNExqTTBNemMxZlYwPSIgbWFya2VyLWVuZD0idXJsKCNteS1zdmdfZmxvd2NoYXJ0LXYyLXBvaW50RW5kLW1hcmdpbikiLz48cGF0aCBkPSJNODY1LjQ2OTQwOTYyMDA1ODksMTI3NS4wMzA1OTAzNzk5NDEzTDk0NC42NTU5MTAxNDE5NzEzLDEzNzAuOTQ1MjgxNTQ4OTQyNlE5NTQuMDY2NDA2MjUsMTM4Mi4zNDM3NSA5NTQuMDY2NDA2MjUsMTM5Ny4xMjQ5MDQyMTg0Mjg4TDk1NC4wNjY0MDYyNSwxNDI0LjM0Mzc1IiBpZD0iTF9WX1hfMCIgY2xhc3M9ImVkZ2UtdGhpY2tuZXNzLW5vcm1hbCBlZGdlLXBhdHRlcm4tc29saWQgZWRnZS10aGlja25lc3Mtbm9ybWFsIGVkZ2UtcGF0dGVybi1zb2xpZCBmbG93Y2hhcnQtbGluayIgc3R5bGU9InN0cm9rZS1kYXNoYXJyYXk6IDAgMCAxNzEuMDA1NTA4NDIyODUxNTYgOTsgc3Ryb2tlLWRhc2hvZmZzZXQ6IDA7OyIgZGF0YS1lZGdlPSJ0cnVlIiBkYXRhLWV0PSJlZGdlIiBkYXRhLWlkPSJMX1ZfWF8wIiBkYXRhLXBvaW50cz0iVzNzaWVDSTZPRFkxTGpRMk9UUXdPVFl5TURBMU9Ea3NJbmtpT2pFeU56VXVNRE13TlRrd016YzVPVFF4TTMwc2V5SjRJam81TlRRdU1EWTJOREEyTWpVc0lua2lPakV6T0RJdU16UXpOelY5TEhzaWVDSTZPVFUwTGpBMk5qUXdOakkxTENKNUlqb3hOREk0TGpNME16YzFmVjA9IiBtYXJrZXItZW5kPSJ1cmwoI215LXN2Z19mbG93Y2hhcnQtdjItcG9pbnRFbmQtbWFyZ2luKSIvPjxwYXRoIGQ9Ik0xMzMyLjE5OTIxODc1LDEwMzYuMzUxNTYyNUwxMzMyLjE5OTIxODc1LDEwNzMuMTkzODAzNjkwMzc5NlExMzMyLjE5OTIxODc1LDEwOTEuOTA2MjUgMTMzMi40MjUwNzg2NzUzNTQ2LDExMTAuNjE3MzMzMTkxMTA3NUwxMzMyLjY1MDkzODYwMDcwOTQsMTEyOS4zMjg0MTYzODIyMTUiIGlkPSJMX0tfWV8wIiBjbGFzcz0iZWRnZS10aGlja25lc3Mtbm9ybWFsIGVkZ2UtcGF0dGVybi1zb2xpZCBlZGdlLXRoaWNrbmVzcy1ub3JtYWwgZWRnZS1wYXR0ZXJuLXNvbGlkIGZsb3djaGFydC1saW5rIiBzdHlsZT0ic3Ryb2tlLWRhc2hhcnJheTogMCAwIDgzLjk3OTA5NTQ1ODk4NDM4IDk7IHN0cm9rZS1kYXNob2Zmc2V0OiAwOzsiIGRhdGEtZWRnZT0idHJ1ZSIgZGF0YS1ldD0iZWRnZSIgZGF0YS1pZD0iTF9LX1lfMCIgZGF0YS1wb2ludHM9Ilczc2llQ0k2TVRNek1pNHhPVGt5TVRnM05Td2llU0k2TVRBek5pNHpOVEUxTmpJMWZTeDdJbmdpT2pFek16SXVNVGs1TWpFNE56VXNJbmtpT2pFd09URXVPVEEyTWpWOUxIc2llQ0k2TVRNek1pNDJPVGt5TVRnM05Td2llU0k2TVRFek15NHpNamd4TWpWOVhRPT0iIG1hcmtlci1lbmQ9InVybCgjbXktc3ZnX2Zsb3djaGFydC12Mi1wb2ludEVuZC1tYXJnaW4pIi8+PHBhdGggZD0iTTEyODcuMDIwNDQ1OTMyMTIzMywxMjg1Ljc0MzEwMjE4MjEyMzNMMTIxMi43ODA2MzE0MzA3NzU5LDEzNzEuNTE3NDAzNDMxMTA2UTEyMDMuNDEwMTU2MjUsMTM4Mi4zNDM3NSAxMjAzLjQxMDE1NjI1LDEzOTYuNjYyMTE1MzA5NzQ2TDEyMDMuNDEwMTU2MjUsMTQyNC4zNDM3NSIgaWQ9IkxfWV9aXzAiIGNsYXNzPSJlZGdlLXRoaWNrbmVzcy1ub3JtYWwgZWRnZS1wYXR0ZXJuLXNvbGlkIGVkZ2UtdGhpY2tuZXNzLW5vcm1hbCBlZGdlLXBhdHRlcm4tc29saWQgZmxvd2NoYXJ0LWxpbmsiIHN0eWxlPSJzdHJva2UtZGFzaGFycmF5OiAwIDAgMTU5LjU2NTE1NTAyOTI5Njg4IDk7IHN0cm9rZS1kYXNob2Zmc2V0OiAwOzsiIGRhdGEtZWRnZT0idHJ1ZSIgZGF0YS1ldD0iZWRnZSIgZGF0YS1pZD0iTF9ZX1pfMCIgZGF0YS1wb2ludHM9Ilczc2llQ0k2TVRJNE55NHdNakEwTkRVNU16SXhNak16TENKNUlqb3hNamcxTGpjME16RXdNakU0TWpFeU16TjlMSHNpZUNJNk1USXdNeTQwTVRBeE5UWXlOU3dpZVNJNk1UTTRNaTR6TkRNM05YMHNleUo0SWpveE1qQXpMalF4TURFMU5qSTFMQ0o1SWpveE5ESTRMak0wTXpjMWZWMD0iIG1hcmtlci1lbmQ9InVybCgjbXktc3ZnX2Zsb3djaGFydC12Mi1wb2ludEVuZC1tYXJnaW4pIi8+PHBhdGggZD0iTTEzODAuOTg5OTg5MTcyMzE1LDEyODMuMTMxMTA0NTc3Njg1TDE0NjYuMDczNDQxMzk2MjYwMywxMzcyLjU4MTI0MDM2ODY5NjJRMTQ3NS4zNTkzNzUsMTM4Mi4zNDM3NSAxNDc1LjM1OTM3NSwxMzk1LjgxNzI0ODMyNzk5MDVMMTQ3NS4zNTkzNzUsMTQxMy44NDM3NSIgaWQ9IkxfWV9BQV8wIiBjbGFzcz0iZWRnZS10aGlja25lc3Mtbm9ybWFsIGVkZ2UtcGF0dGVybi1zb2xpZCBlZGdlLXRoaWNrbmVzcy1ub3JtYWwgZWRnZS1wYXR0ZXJuLXNvbGlkIGZsb3djaGFydC1saW5rIiBzdHlsZT0ic3Ryb2tlLWRhc2hhcnJheTogMCAwIDE1OC4xNTI4Nzc4MDc2MTcyIDk7IHN0cm9rZS1kYXNob2Zmc2V0OiAwOzsiIGRhdGEtZWRnZT0idHJ1ZSIgZGF0YS1ldD0iZWRnZSIgZGF0YS1pZD0iTF9ZX0FBXzAiIGRhdGEtcG9pbnRzPSJXM3NpZUNJNk1UTTRNQzQ1T0RrNU9Ea3hOekl6TVRVc0lua2lPakV5T0RNdU1UTXhNVEEwTlRjM05qZzFmU3g3SW5naU9qRTBOelV1TXpVNU16YzFMQ0o1SWpveE16Z3lMak0wTXpjMWZTeDdJbmdpT2pFME56VXVNelU1TXpjMUxDSjVJam94TkRFM0xqZzBNemMxZlYwPSIgbWFya2VyLWVuZD0idXJsKCNteS1zdmdfZmxvd2NoYXJ0LXYyLXBvaW50RW5kLW1hcmdpbikiLz48cGF0aCBkPSJNMTU5Ny4yNDYwOTM3NSwxMDM2LjM1MTU2MjVMMTU5Ny4yNDYwOTM3NSwxMDkxLjkwNjI1TDE1OTcuMjQ2MDkzNzUsMTE5NC44NzUiIGlkPSJMX0xfQUJfMCIgY2xhc3M9ImVkZ2UtdGhpY2tuZXNzLW5vcm1hbCBlZGdlLXBhdHRlcm4tc29saWQgZWRnZS10aGlja25lc3Mtbm9ybWFsIGVkZ2UtcGF0dGVybi1zb2xpZCBmbG93Y2hhcnQtbGluayIgc3R5bGU9InN0cm9rZS1kYXNoYXJyYXk6IDAgMCAxNDkuNTIzNDM3NSA5OyBzdHJva2UtZGFzaG9mZnNldDogMDs7IiBkYXRhLWVkZ2U9InRydWUiIGRhdGEtZXQ9ImVkZ2UiIGRhdGEtaWQ9IkxfTF9BQl8wIiBkYXRhLXBvaW50cz0iVzNzaWVDSTZNVFU1Tnk0eU5EWXdPVE0zTlN3aWVTSTZNVEF6Tmk0ek5URTFOakkxZlN4N0luZ2lPakUxT1RjdU1qUTJNRGt6TnpVc0lua2lPakV3T1RFdU9UQTJNalY5TEhzaWVDSTZNVFU1Tnk0eU5EWXdPVE0zTlN3aWVTSTZNVEU1T0M0NE56VjlYUT09IiBtYXJrZXItZW5kPSJ1cmwoI215LXN2Z19mbG93Y2hhcnQtdjItcG9pbnRFbmQtbWFyZ2luKSIvPjxwYXRoIGQ9Ik0xODc4LjIxNDg0Mzc1LDEwMzYuMzUxNTYyNUwxODc4LjIxNDg0Mzc1LDEwODEuMTUzNzk5MjU1MTQzMlExODc4LjIxNDg0Mzc1LDEwOTEuOTA2MjUgMTg3OC40MjU2MzU2MDAxMzEsMTEwMi42NTY2MzQzNTY2ODY1TDE4NzguNjM2NDI3NDUwMjYyMywxMTEzLjQwNzAxODcxMzM3MzIiIGlkPSJMX01fQUNfMCIgY2xhc3M9ImVkZ2UtdGhpY2tuZXNzLW5vcm1hbCBlZGdlLXBhdHRlcm4tc29saWQgZWRnZS10aGlja25lc3Mtbm9ybWFsIGVkZ2UtcGF0dGVybi1zb2xpZCBmbG93Y2hhcnQtbGluayIgc3R5bGU9InN0cm9rZS1kYXNoYXJyYXk6IDAgMCA2OC4wNTg4NzYwMzc1OTc2NiA5OyBzdHJva2UtZGFzaG9mZnNldDogMDs7IiBkYXRhLWVkZ2U9InRydWUiIGRhdGEtZXQ9ImVkZ2UiIGRhdGEtaWQ9IkxfTV9BQ18wIiBkYXRhLXBvaW50cz0iVzNzaWVDSTZNVGczT0M0eU1UUTRORE0zTlN3aWVTSTZNVEF6Tmk0ek5URTFOakkxZlN4N0luZ2lPakU0TnpndU1qRTBPRFF6TnpVc0lua2lPakV3T1RFdU9UQTJNalY5TEhzaWVDSTZNVGczT0M0M01UUTRORE0zTlN3aWVTSTZNVEV4Tnk0ME1EWXlOWDFkIiBtYXJrZXItZW5kPSJ1cmwoI215LXN2Z19mbG93Y2hhcnQtdjItcG9pbnRFbmQtbWFyZ2luKSIvPjxwYXRoIGQ9Ik0xODIyLjY2MTI4ODE3ODU1NDMsMTI5MS4yOTAxOTQ0Mjg1NTQzTDE3NDQuMzI5OTY0MTU3MzgyLDEzNzIuNzAzNTI5ODMzNjg3OFExNzM1LjA1NDY4NzUsMTM4Mi4zNDM3NSAxNzM1LjA1NDY4NzUsMTM5NS43MjE1MTUyMDY3MTNMMTczNS4wNTQ2ODc1LDE0MjQuMzQzNzUiIGlkPSJMX0FDX0FEXzAiIGNsYXNzPSJlZGdlLXRoaWNrbmVzcy1ub3JtYWwgZWRnZS1wYXR0ZXJuLXNvbGlkIGVkZ2UtdGhpY2tuZXNzLW5vcm1hbCBlZGdlLXBhdHRlcm4tc29saWQgZmxvd2NoYXJ0LWxpbmsiIHN0eWxlPSJzdHJva2UtZGFzaGFycmF5OiAwIDAgMTU4LjA3MjQ5NDUwNjgzNTk0IDk7IHN0cm9rZS1kYXNob2Zmc2V0OiAwOzsiIGRhdGEtZWRnZT0idHJ1ZSIgZGF0YS1ldD0iZWRnZSIgZGF0YS1pZD0iTF9BQ19BRF8wIiBkYXRhLXBvaW50cz0iVzNzaWVDSTZNVGd5TWk0Mk5qRXlPRGd4TnpnMU5UUXpMQ0o1SWpveE1qa3hMakk1TURFNU5EUXlPRFUxTkROOUxIc2llQ0k2TVRjek5TNHdOVFEyT0RjMUxDSjVJam94TXpneUxqTTBNemMxZlN4N0luZ2lPakUzTXpVdU1EVTBOamczTlN3aWVTSTZNVFF5T0M0ek5ETTNOWDFkIiBtYXJrZXItZW5kPSJ1cmwoI215LXN2Z19mbG93Y2hhcnQtdjItcG9pbnRFbmQtbWFyZ2luKSIvPjxwYXRoIGQ9Ik0xOTMxLjk3MDQ1OTE3ODI5NjgsMTI5NC4wODgxMzQ1NzE3MDMyTDE5OTguNjg4NjgyMzE0NDc1NSwxMzcxLjQ3MTQ5NTI5NjE1OVEyMDA4LjA2MjUsMTM4Mi4zNDM3NSAyMDA4LjA2MjUsMTM5Ni42OTkwNDEwMjI3MDgxTDIwMDguMDYyNSwxNDEzLjg0Mzc1IiBpZD0iTF9BQ19BRV8wIiBjbGFzcz0iZWRnZS10aGlja25lc3Mtbm9ybWFsIGVkZ2UtcGF0dGVybi1zb2xpZCBlZGdlLXRoaWNrbmVzcy1ub3JtYWwgZWRnZS1wYXR0ZXJuLXNvbGlkIGZsb3djaGFydC1saW5rIiBzdHlsZT0ic3Ryb2tlLWRhc2hhcnJheTogMCAwIDEzNy44Mzg1NzcyNzA1MDc4IDk7IHN0cm9rZS1kYXNob2Zmc2V0OiAwOzsiIGRhdGEtZWRnZT0idHJ1ZSIgZGF0YS1ldD0iZWRnZSIgZGF0YS1pZD0iTF9BQ19BRV8wIiBkYXRhLXBvaW50cz0iVzNzaWVDSTZNVGt6TVM0NU56QTBOVGt4TnpneU9UWTRMQ0o1SWpveE1qazBMakE0T0RFek5EVTNNVGN3TXpKOUxIc2llQ0k2TWpBd09DNHdOakkxTENKNUlqb3hNemd5TGpNME16YzFmU3g3SW5naU9qSXdNRGd1TURZeU5Td2llU0k2TVRReE55NDRORE0zTlgxZCIgbWFya2VyLWVuZD0idXJsKCNteS1zdmdfZmxvd2NoYXJ0LXYyLXBvaW50RW5kLW1hcmdpbikiLz48cGF0aCBkPSJNMjQyMi4xNTYyNSwxMDM2LjM1MTU2MjVMMjQyMi4xNTYyNSwxMDcwLjk3MTI5MzY2MDYwMzFRMjQyMi4xNTYyNSwxMDkxLjkwNjI1IDI0MjIuMzg0NDQ5MjE3MjczNCwxMTEyLjgzOTk2MjU3MjA2MTVMMjQyMi42MTI2NDg0MzQ1NDcsMTEzMy43NzM2NzUxNDQxMjMiIGlkPSJMX05fQUZfMCIgY2xhc3M9ImVkZ2UtdGhpY2tuZXNzLW5vcm1hbCBlZGdlLXBhdHRlcm4tc29saWQgZWRnZS10aGlja25lc3Mtbm9ybWFsIGVkZ2UtcGF0dGVybi1zb2xpZCBmbG93Y2hhcnQtbGluayIgc3R5bGU9InN0cm9rZS1kYXNoYXJyYXk6IDAgMCA4OC40MjQyMDE5NjUzMzIwMyA5OyBzdHJva2UtZGFzaG9mZnNldDogMDs7IiBkYXRhLWVkZ2U9InRydWUiIGRhdGEtZXQ9ImVkZ2UiIGRhdGEtaWQ9IkxfTl9BRl8wIiBkYXRhLXBvaW50cz0iVzNzaWVDSTZNalF5TWk0eE5UWXlOU3dpZVNJNk1UQXpOaTR6TlRFMU5qSTFmU3g3SW5naU9qSTBNakl1TVRVMk1qVXNJbmtpT2pFd09URXVPVEEyTWpWOUxIc2llQ0k2TWpReU1pNDJOVFl5TlN3aWVTSTZNVEV6Tnk0M056TTBNemMxZlYwPSIgbWFya2VyLWVuZD0idXJsKCNteS1zdmdfZmxvd2NoYXJ0LXYyLXBvaW50RW5kLW1hcmdpbikiLz48cGF0aCBkPSJNMjM3OC40MzE0MzE5NjMzMzc3LDEyODIuNzUxNzQ0NDYzMzM3N0wyMjk5LjQxMTI4NTA2NTgwNDMsMTM3MS44MDc2NDYwMzk2MDY0UTIyOTAuMDYyNSwxMzgyLjM0Mzc1IDIyOTAuMDYyNSwxMzk2LjQyOTUzMjUwODI4OTJMMjI5MC4wNjI1LDE0MTMuODQzNzUiIGlkPSJMX0FGX0FHXzAiIGNsYXNzPSJlZGdlLXRoaWNrbmVzcy1ub3JtYWwgZWRnZS1wYXR0ZXJuLXNvbGlkIGVkZ2UtdGhpY2tuZXNzLW5vcm1hbCBlZGdlLXBhdHRlcm4tc29saWQgZmxvd2NoYXJ0LWxpbmsiIHN0eWxlPSJzdHJva2UtZGFzaGFycmF5OiAwIDAgMTU0LjQzMDQ4MDk1NzAzMTI1IDk7IHN0cm9rZS1kYXNob2Zmc2V0OiAwOzsiIGRhdGEtZWRnZT0idHJ1ZSIgZGF0YS1ldD0iZWRnZSIgZGF0YS1pZD0iTF9BRl9BR18wIiBkYXRhLXBvaW50cz0iVzNzaWVDSTZNak0zT0M0ME16RTBNekU1TmpNek16YzNMQ0o1SWpveE1qZ3lMamMxTVRjME5EUTJNek16TnpkOUxIc2llQ0k2TWpJNU1DNHdOakkxTENKNUlqb3hNemd5TGpNME16YzFmU3g3SW5naU9qSXlPVEF1TURZeU5Td2llU0k2TVRReE55NDRORE0zTlgxZCIgbWFya2VyLWVuZD0idXJsKCNteS1zdmdfZmxvd2NoYXJ0LXYyLXBvaW50RW5kLW1hcmdpbikiLz48cGF0aCBkPSJNMjQ2Ni44ODEwNjgwMzY2NjIzLDEyODIuNzUxNzQ0NDYzMzM3N0wyNTQ0Ljg5MTIzMTQ5MTk1NSwxMzcxLjY3NTY3MjYzOTcyNDNRMjU1NC4yNSwxMzgyLjM0Mzc1IDI1NTQuMjUsMTM5Ni41MzUxMDAyNzIzMzE0TDI1NTQuMjUsMTQyNC4zNDM3NSIgaWQ9IkxfQUZfQUhfMCIgY2xhc3M9ImVkZ2UtdGhpY2tuZXNzLW5vcm1hbCBlZGdlLXBhdHRlcm4tc29saWQgZWRnZS10aGlja25lc3Mtbm9ybWFsIGVkZ2UtcGF0dGVybi1zb2xpZCBmbG93Y2hhcnQtbGluayIgc3R5bGU9InN0cm9rZS1kYXNoYXJyYXk6IDAgMCAxNjQuMjc4NTE4Njc2NzU3OCA5OyBzdHJva2UtZGFzaG9mZnNldDogMDs7IiBkYXRhLWVkZ2U9InRydWUiIGRhdGEtZXQ9ImVkZ2UiIGRhdGEtaWQ9IkxfQUZfQUhfMCIgZGF0YS1wb2ludHM9Ilczc2llQ0k2TWpRMk5pNDRPREV3Tmpnd016WTJOakl6TENKNUlqb3hNamd5TGpjMU1UYzBORFEyTXpNek56ZDlMSHNpZUNJNk1qVTFOQzR5TlN3aWVTSTZNVE00TWk0ek5ETTNOWDBzZXlKNElqb3lOVFUwTGpJMUxDSjVJam94TkRJNExqTTBNemMxZlYwPSIgbWFya2VyLWVuZD0idXJsKCNteS1zdmdfZmxvd2NoYXJ0LXYyLXBvaW50RW5kLW1hcmdpbikiLz48cGF0aCBkPSJNMjkwMS42ODM1OTM3NSwxMDM2LjM1MTU2MjVMMjkwMS42ODM1OTM3NSwxMDY0LjEyODkwNjI1UTI5MDEuNjgzNTkzNzUsMTA5MS45MDYyNSAyOTAxLjg3OTc4Njg0NzQ4MTcsMTExOS42ODI5MDA4NzkzNjU3TDI5MDIuMTU1MzQxNTAyNTIxNCwxMTU4LjY5NTQxMjI3NDkzMDMiIGlkPSJMX09fQUlfMCIgY2xhc3M9ImVkZ2UtdGhpY2tuZXNzLW5vcm1hbCBlZGdlLXBhdHRlcm4tc29saWQgZWRnZS10aGlja25lc3Mtbm9ybWFsIGVkZ2UtcGF0dGVybi1zb2xpZCBmbG93Y2hhcnQtbGluayIgc3R5bGU9InN0cm9rZS1kYXNoYXJyYXk6IDAgMCAxMTMuMzQ1MzIxNjU1MjczNDQgOTsgc3Ryb2tlLWRhc2hvZmZzZXQ6IDA7OyIgZGF0YS1lZGdlPSJ0cnVlIiBkYXRhLWV0PSJlZGdlIiBkYXRhLWlkPSJMX09fQUlfMCIgZGF0YS1wb2ludHM9Ilczc2llQ0k2TWprd01TNDJPRE0xT1RNM05Td2llU0k2TVRBek5pNHpOVEUxTmpJMWZTeDdJbmdpT2pJNU1ERXVOamd6TlRrek56VXNJbmtpT2pFd09URXVPVEEyTWpWOUxIc2llQ0k2TWprd01pNHhPRE0xT1RNM05Td2llU0k2TVRFMk1pNDJPVFV6TVRJMWZWMD0iIG1hcmtlci1lbmQ9InVybCgjbXktc3ZnX2Zsb3djaGFydC12Mi1wb2ludEVuZC1tYXJnaW4pIi8+PHBhdGggZD0iTTI4NzIuNDI1Njk0MDk5NzE2NiwxMjcyLjI5Njc4Nzg0OTcxNjZMMjc5OS4wMDY4OTU0NTEzMDY3LDEzNjkuNzU1MTIxMTYxMzM5M1EyNzg5LjUyMzQzNzUsMTM4Mi4zNDM3NSAyNzg5LjUyMzQzNzUsMTM5OC4xMDQ3NjM2MzMzODUzTDI3ODkuNTIzNDM3NSwxNDI0LjM0Mzc1IiBpZD0iTF9BSV9BSl8wIiBjbGFzcz0iZWRnZS10aGlja25lc3Mtbm9ybWFsIGVkZ2UtcGF0dGVybi1zb2xpZCBlZGdlLXRoaWNrbmVzcy1ub3JtYWwgZWRnZS1wYXR0ZXJuLXNvbGlkIGZsb3djaGFydC1saW5rIiBzdHlsZT0ic3Ryb2tlLWRhc2hhcnJheTogMCAwIDE2OS42OTk4MTM4NDI3NzM0NCA5OyBzdHJva2UtZGFzaG9mZnNldDogMDs7IiBkYXRhLWVkZ2U9InRydWUiIGRhdGEtZXQ9ImVkZ2UiIGRhdGEtaWQ9IkxfQUlfQUpfMCIgZGF0YS1wb2ludHM9Ilczc2llQ0k2TWpnM01pNDBNalUyT1RRd09UazNNVFkyTENKNUlqb3hNamN5TGpJNU5qYzROemcwT1RjeE5qWjlMSHNpZUNJNk1qYzRPUzQxTWpNME16YzFMQ0o1SWpveE16Z3lMak0wTXpjMWZTeDdJbmdpT2pJM09Ea3VOVEl6TkRNM05Td2llU0k2TVRReU9DNHpORE0zTlgxZCIgbWFya2VyLWVuZD0idXJsKCNteS1zdmdfZmxvd2NoYXJ0LXYyLXBvaW50RW5kLW1hcmdpbikiLz48cGF0aCBkPSJNMjkzMS45NDE0OTM0MDAyODM0LDEyNzIuMjk2Nzg3ODQ5NzE2NkwzMDA0LjM1MTA5NjcwOTk1MiwxMzY5LjU4OTA2Mjg4MDQzNVEzMDEzLjg0Mzc1LDEzODIuMzQzNzUgMzAxMy44NDM3NSwxMzk4LjI0MzE5OTk5MDU4MzJMMzAxMy44NDM3NSwxNDI0LjM0Mzc1IiBpZD0iTF9BSV9BS18wIiBjbGFzcz0iZWRnZS10aGlja25lc3Mtbm9ybWFsIGVkZ2UtcGF0dGVybi1zb2xpZCBlZGdlLXRoaWNrbmVzcy1ub3JtYWwgZWRnZS1wYXR0ZXJuLXNvbGlkIGZsb3djaGFydC1saW5rIiBzdHlsZT0ic3Ryb2tlLWRhc2hhcnJheTogMCAwIDE2OS4xMTAzMDU3ODYxMzI4IDk7IHN0cm9rZS1kYXNob2Zmc2V0OiAwOzsiIGRhdGEtZWRnZT0idHJ1ZSIgZGF0YS1ldD0iZWRnZSIgZGF0YS1pZD0iTF9BSV9BS18wIiBkYXRhLXBvaW50cz0iVzNzaWVDSTZNamt6TVM0NU5ERTBPVE0wTURBeU9ETTBMQ0o1SWpveE1qY3lMakk1TmpjNE56ZzBPVGN4TmpaOUxIc2llQ0k2TXpBeE15NDRORE0zTlN3aWVTSTZNVE00TWk0ek5ETTNOWDBzZXlKNElqb3pNREV6TGpnME16YzFMQ0o1SWpveE5ESTRMak0wTXpjMWZWMD0iIG1hcmtlci1lbmQ9InVybCgjbXktc3ZnX2Zsb3djaGFydC12Mi1wb2ludEVuZC1tYXJnaW4pIi8+PC9nPjxnIGNsYXNzPSJlZGdlTGFiZWxzIj48ZyBjbGFzcz0iZWRnZUxhYmVsIj48ZyBjbGFzcz0ibGFiZWwiIGRhdGEtaWQ9IkxfQV9CXzAiIHRyYW5zZm9ybT0idHJhbnNsYXRlKDAsIDApIj48Zm9yZWlnbk9iamVjdCB3aWR0aD0iMCIgaGVpZ2h0PSIwIj48ZGl2IHhtbG5zPSJodHRwOi8vd3d3LnczLm9yZy8xOTk5L3hodG1sIiBjbGFzcz0ibGFiZWxCa2ciIHN0eWxlPSJkaXNwbGF5OiB0YWJsZS1jZWxsOyB3aGl0ZS1zcGFjZTogbm9ybWFsOyBsaW5lLWhlaWdodDogMS41OyBtYXgtd2lkdGg6IDIwMHB4OyB0ZXh0LWFsaWduOiBjZW50ZXI7Ij48c3BhbiBjbGFzcz0iZWRnZUxhYmVsIj48L3NwYW4+PC9kaXY+PC9mb3JlaWduT2JqZWN0PjwvZz48L2c+PGcgY2xhc3M9ImVkZ2VMYWJlbCI+PGcgY2xhc3M9ImxhYmVsIiBkYXRhLWlkPSJMX0JfQ18wIiB0cmFuc2Zvcm09InRyYW5zbGF0ZSgwLCAwKSI+PGZvcmVpZ25PYmplY3Qgd2lkdGg9IjAiIGhlaWdodD0iMCI+PGRpdiB4bWxucz0iaHR0cDovL3d3dy53My5vcmcvMTk5OS94aHRtbCIgY2xhc3M9ImxhYmVsQmtnIiBzdHlsZT0iZGlzcGxheTogdGFibGUtY2VsbDsgd2hpdGUtc3BhY2U6IG5vcm1hbDsgbGluZS1oZWlnaHQ6IDEuNTsgbWF4LXdpZHRoOiAyMDBweDsgdGV4dC1hbGlnbjogY2VudGVyOyI+PHNwYW4gY2xhc3M9ImVkZ2VMYWJlbCI+PC9zcGFuPjwvZGl2PjwvZm9yZWlnbk9iamVjdD48L2c+PC9nPjxnIGNsYXNzPSJlZGdlTGFiZWwiIHRyYW5zZm9ybT0idHJhbnNsYXRlKDE3NTguODgyODEyNSwgNTExLjU2MjUpIj48ZyBjbGFzcz0ibGFiZWwiIGRhdGEtaWQ9IkxfQ19EXzAiIHRyYW5zZm9ybT0idHJhbnNsYXRlKC0xMC45MjE4NzUsIC0xMC41KSI+PGZvcmVpZ25PYmplY3Qgd2lkdGg9IjIxLjg0Mzc1IiBoZWlnaHQ9IjIxIj48ZGl2IHhtbG5zPSJodHRwOi8vd3d3LnczLm9yZy8xOTk5L3hodG1sIiBjbGFzcz0ibGFiZWxCa2ciIHN0eWxlPSJkaXNwbGF5OiB0YWJsZS1jZWxsOyB3aGl0ZS1zcGFjZTogbm9ybWFsOyBsaW5lLWhlaWdodDogMS41OyBtYXgtd2lkdGg6IDIwMHB4OyB0ZXh0LWFsaWduOiBjZW50ZXI7Ij48c3BhbiBjbGFzcz0iZWRnZUxhYmVsIj48cD7QotCw0Lo8L3A+PC9zcGFuPjwvZGl2PjwvZm9yZWlnbk9iamVjdD48L2c+PC9nPjxnIGNsYXNzPSJlZGdlTGFiZWwiIHRyYW5zZm9ybT0idHJhbnNsYXRlKDE5OTcuNTQ2ODc1LCA1MTEuNTYyNSkiPjxnIGNsYXNzPSJsYWJlbCIgZGF0YS1pZD0iTF9DX0VfMCIgdHJhbnNmb3JtPSJ0cmFuc2xhdGUoLTYuNjE3MTg3NSwgLTEwLjUpIj48Zm9yZWlnbk9iamVjdCB3aWR0aD0iMTMuMjM0Mzc1IiBoZWlnaHQ9IjIxIj48ZGl2IHhtbG5zPSJodHRwOi8vd3d3LnczLm9yZy8xOTk5L3hodG1sIiBjbGFzcz0ibGFiZWxCa2ciIHN0eWxlPSJkaXNwbGF5OiB0YWJsZS1jZWxsOyB3aGl0ZS1zcGFjZTogbm9ybWFsOyBsaW5lLWhlaWdodDogMS41OyBtYXgtd2lkdGg6IDIwMHB4OyB0ZXh0LWFsaWduOiBjZW50ZXI7Ij48c3BhbiBjbGFzcz0iZWRnZUxhYmVsIj48cD7QndGWPC9wPjwvc3Bhbj48L2Rpdj48L2ZvcmVpZ25PYmplY3Q+PC9nPjwvZz48ZyBjbGFzcz0iZWRnZUxhYmVsIj48ZyBjbGFzcz0ibGFiZWwiIGRhdGEtaWQ9IkxfRF9GXzAiIHRyYW5zZm9ybT0idHJhbnNsYXRlKDAsIDApIj48Zm9yZWlnbk9iamVjdCB3aWR0aD0iMCIgaGVpZ2h0PSIwIj48ZGl2IHhtbG5zPSJodHRwOi8vd3d3LnczLm9yZy8xOTk5L3hodG1sIiBjbGFzcz0ibGFiZWxCa2ciIHN0eWxlPSJkaXNwbGF5OiB0YWJsZS1jZWxsOyB3aGl0ZS1zcGFjZTogbm9ybWFsOyBsaW5lLWhlaWdodDogMS41OyBtYXgtd2lkdGg6IDIwMHB4OyB0ZXh0LWFsaWduOiBjZW50ZXI7Ij48c3BhbiBjbGFzcz0iZWRnZUxhYmVsIj48L3NwYW4+PC9kaXY+PC9mb3JlaWduT2JqZWN0PjwvZz48L2c+PGcgY2xhc3M9ImVkZ2VMYWJlbCI+PGcgY2xhc3M9ImxhYmVsIiBkYXRhLWlkPSJMX0VfRl8wIiB0cmFuc2Zvcm09InRyYW5zbGF0ZSgwLCAwKSI+PGZvcmVpZ25PYmplY3Qgd2lkdGg9IjAiIGhlaWdodD0iMCI+PGRpdiB4bWxucz0iaHR0cDovL3d3dy53My5vcmcvMTk5OS94aHRtbCIgY2xhc3M9ImxhYmVsQmtnIiBzdHlsZT0iZGlzcGxheTogdGFibGUtY2VsbDsgd2hpdGUtc3BhY2U6IG5vcm1hbDsgbGluZS1oZWlnaHQ6IDEuNTsgbWF4LXdpZHRoOiAyMDBweDsgdGV4dC1hbGlnbjogY2VudGVyOyI+PHNwYW4gY2xhc3M9ImVkZ2VMYWJlbCI+PC9zcGFuPjwvZGl2PjwvZm9yZWlnbk9iamVjdD48L2c+PC9nPjxnIGNsYXNzPSJlZGdlTGFiZWwiPjxnIGNsYXNzPSJsYWJlbCIgZGF0YS1pZD0iTF9GX0dfMCIgdHJhbnNmb3JtPSJ0cmFuc2xhdGUoMCwgMCkiPjxmb3JlaWduT2JqZWN0IHdpZHRoPSIwIiBoZWlnaHQ9IjAiPjxkaXYgeG1sbnM9Imh0dHA6Ly93d3cudzMub3JnLzE5OTkveGh0bWwiIGNsYXNzPSJsYWJlbEJrZyIgc3R5bGU9ImRpc3BsYXk6IHRhYmxlLWNlbGw7IHdoaXRlLXNwYWNlOiBub3JtYWw7IGxpbmUtaGVpZ2h0OiAxLjU7IG1heC13aWR0aDogMjAwcHg7IHRleHQtYWxpZ246IGNlbnRlcjsiPjxzcGFuIGNsYXNzPSJlZGdlTGFiZWwiPjwvc3Bhbj48L2Rpdj48L2ZvcmVpZ25PYmplY3Q+PC9nPjwvZz48ZyBjbGFzcz0iZWRnZUxhYmVsIj48ZyBjbGFzcz0ibGFiZWwiIGRhdGEtaWQ9IkxfR19IXzAiIHRyYW5zZm9ybT0idHJhbnNsYXRlKDAsIDApIj48Zm9yZWlnbk9iamVjdCB3aWR0aD0iMCIgaGVpZ2h0PSIwIj48ZGl2IHhtbG5zPSJodHRwOi8vd3d3LnczLm9yZy8xOTk5L3hodG1sIiBjbGFzcz0ibGFiZWxCa2ciIHN0eWxlPSJkaXNwbGF5OiB0YWJsZS1jZWxsOyB3aGl0ZS1zcGFjZTogbm9ybWFsOyBsaW5lLWhlaWdodDogMS41OyBtYXgtd2lkdGg6IDIwMHB4OyB0ZXh0LWFsaWduOiBjZW50ZXI7Ij48c3BhbiBjbGFzcz0iZWRnZUxhYmVsIj48L3NwYW4+PC9kaXY+PC9mb3JlaWduT2JqZWN0PjwvZz48L2c+PGcgY2xhc3M9ImVkZ2VMYWJlbCI+PGcgY2xhc3M9ImxhYmVsIiBkYXRhLWlkPSJMX0dfSV8wIiB0cmFuc2Zvcm09InRyYW5zbGF0ZSgwLCAwKSI+PGZvcmVpZ25PYmplY3Qgd2lkdGg9IjAiIGhlaWdodD0iMCI+PGRpdiB4bWxucz0iaHR0cDovL3d3dy53My5vcmcvMTk5OS94aHRtbCIgY2xhc3M9ImxhYmVsQmtnIiBzdHlsZT0iZGlzcGxheTogdGFibGUtY2VsbDsgd2hpdGUtc3BhY2U6IG5vcm1hbDsgbGluZS1oZWlnaHQ6IDEuNTsgbWF4LXdpZHRoOiAyMDBweDsgdGV4dC1hbGlnbjogY2VudGVyOyI+PHNwYW4gY2xhc3M9ImVkZ2VMYWJlbCI+PC9zcGFuPjwvZGl2PjwvZm9yZWlnbk9iamVjdD48L2c+PC9nPjxnIGNsYXNzPSJlZGdlTGFiZWwiPjxnIGNsYXNzPSJsYWJlbCIgZGF0YS1pZD0iTF9HX0pfMCIgdHJhbnNmb3JtPSJ0cmFuc2xhdGUoMCwgMCkiPjxmb3JlaWduT2JqZWN0IHdpZHRoPSIwIiBoZWlnaHQ9IjAiPjxkaXYgeG1sbnM9Imh0dHA6Ly93d3cudzMub3JnLzE5OTkveGh0bWwiIGNsYXNzPSJsYWJlbEJrZyIgc3R5bGU9ImRpc3BsYXk6IHRhYmxlLWNlbGw7IHdoaXRlLXNwYWNlOiBub3JtYWw7IGxpbmUtaGVpZ2h0OiAxLjU7IG1heC13aWR0aDogMjAwcHg7IHRleHQtYWxpZ246IGNlbnRlcjsiPjxzcGFuIGNsYXNzPSJlZGdlTGFiZWwiPjwvc3Bhbj48L2Rpdj48L2ZvcmVpZ25PYmplY3Q+PC9nPjwvZz48ZyBjbGFzcz0iZWRnZUxhYmVsIj48ZyBjbGFzcz0ibGFiZWwiIGRhdGEtaWQ9IkxfR19LXzAiIHRyYW5zZm9ybT0idHJhbnNsYXRlKDAsIDApIj48Zm9yZWlnbk9iamVjdCB3aWR0aD0iMCIgaGVpZ2h0PSIwIj48ZGl2IHhtbG5zPSJodHRwOi8vd3d3LnczLm9yZy8xOTk5L3hodG1sIiBjbGFzcz0ibGFiZWxCa2ciIHN0eWxlPSJkaXNwbGF5OiB0YWJsZS1jZWxsOyB3aGl0ZS1zcGFjZTogbm9ybWFsOyBsaW5lLWhlaWdodDogMS41OyBtYXgtd2lkdGg6IDIwMHB4OyB0ZXh0LWFsaWduOiBjZW50ZXI7Ij48c3BhbiBjbGFzcz0iZWRnZUxhYmVsIj48L3NwYW4+PC9kaXY+PC9mb3JlaWduT2JqZWN0PjwvZz48L2c+PGcgY2xhc3M9ImVkZ2VMYWJlbCI+PGcgY2xhc3M9ImxhYmVsIiBkYXRhLWlkPSJMX0dfTF8wIiB0cmFuc2Zvcm09InRyYW5zbGF0ZSgwLCAwKSI+PGZvcmVpZ25PYmplY3Qgd2lkdGg9IjAiIGhlaWdodD0iMCI+PGRpdiB4bWxucz0iaHR0cDovL3d3dy53My5vcmcvMTk5OS94aHRtbCIgY2xhc3M9ImxhYmVsQmtnIiBzdHlsZT0iZGlzcGxheTogdGFibGUtY2VsbDsgd2hpdGUtc3BhY2U6IG5vcm1hbDsgbGluZS1oZWlnaHQ6IDEuNTsgbWF4LXdpZHRoOiAyMDBweDsgdGV4dC1hbGlnbjogY2VudGVyOyI+PHNwYW4gY2xhc3M9ImVkZ2VMYWJlbCI+PC9zcGFuPjwvZGl2PjwvZm9yZWlnbk9iamVjdD48L2c+PC9nPjxnIGNsYXNzPSJlZGdlTGFiZWwiPjxnIGNsYXNzPSJsYWJlbCIgZGF0YS1pZD0iTF9HX01fMCIgdHJhbnNmb3JtPSJ0cmFuc2xhdGUoMCwgMCkiPjxmb3JlaWduT2JqZWN0IHdpZHRoPSIwIiBoZWlnaHQ9IjAiPjxkaXYgeG1sbnM9Imh0dHA6Ly93d3cudzMub3JnLzE5OTkveGh0bWwiIGNsYXNzPSJsYWJlbEJrZyIgc3R5bGU9ImRpc3BsYXk6IHRhYmxlLWNlbGw7IHdoaXRlLXNwYWNlOiBub3JtYWw7IGxpbmUtaGVpZ2h0OiAxLjU7IG1heC13aWR0aDogMjAwcHg7IHRleHQtYWxpZ246IGNlbnRlcjsiPjxzcGFuIGNsYXNzPSJlZGdlTGFiZWwiPjwvc3Bhbj48L2Rpdj48L2ZvcmVpZ25PYmplY3Q+PC9nPjwvZz48ZyBjbGFzcz0iZWRnZUxhYmVsIj48ZyBjbGFzcz0ibGFiZWwiIGRhdGEtaWQ9IkxfR19OXzAiIHRyYW5zZm9ybT0idHJhbnNsYXRlKDAsIDApIj48Zm9yZWlnbk9iamVjdCB3aWR0aD0iMCIgaGVpZ2h0PSIwIj48ZGl2IHhtbG5zPSJodHRwOi8vd3d3LnczLm9yZy8xOTk5L3hodG1sIiBjbGFzcz0ibGFiZWxCa2ciIHN0eWxlPSJkaXNwbGF5OiB0YWJsZS1jZWxsOyB3aGl0ZS1zcGFjZTogbm9ybWFsOyBsaW5lLWhlaWdodDogMS41OyBtYXgtd2lkdGg6IDIwMHB4OyB0ZXh0LWFsaWduOiBjZW50ZXI7Ij48c3BhbiBjbGFzcz0iZWRnZUxhYmVsIj48L3NwYW4+PC9kaXY+PC9mb3JlaWduT2JqZWN0PjwvZz48L2c+PGcgY2xhc3M9ImVkZ2VMYWJlbCI+PGcgY2xhc3M9ImxhYmVsIiBkYXRhLWlkPSJMX0dfT18wIiB0cmFuc2Zvcm09InRyYW5zbGF0ZSgwLCAwKSI+PGZvcmVpZ25PYmplY3Qgd2lkdGg9IjAiIGhlaWdodD0iMCI+PGRpdiB4bWxucz0iaHR0cDovL3d3dy53My5vcmcvMTk5OS94aHRtbCIgY2xhc3M9ImxhYmVsQmtnIiBzdHlsZT0iZGlzcGxheTogdGFibGUtY2VsbDsgd2hpdGUtc3BhY2U6IG5vcm1hbDsgbGluZS1oZWlnaHQ6IDEuNTsgbWF4LXdpZHRoOiAyMDBweDsgdGV4dC1hbGlnbjogY2VudGVyOyI+PHNwYW4gY2xhc3M9ImVkZ2VMYWJlbCI+PC9zcGFuPjwvZGl2PjwvZm9yZWlnbk9iamVjdD48L2c+PC9nPjxnIGNsYXNzPSJlZGdlTGFiZWwiPjxnIGNsYXNzPSJsYWJlbCIgZGF0YS1pZD0iTF9HX1BfMCIgdHJhbnNmb3JtPSJ0cmFuc2xhdGUoMCwgMCkiPjxmb3JlaWduT2JqZWN0IHdpZHRoPSIwIiBoZWlnaHQ9IjAiPjxkaXYgeG1sbnM9Imh0dHA6Ly93d3cudzMub3JnLzE5OTkveGh0bWwiIGNsYXNzPSJsYWJlbEJrZyIgc3R5bGU9ImRpc3BsYXk6IHRhYmxlLWNlbGw7IHdoaXRlLXNwYWNlOiBub3JtYWw7IGxpbmUtaGVpZ2h0OiAxLjU7IG1heC13aWR0aDogMjAwcHg7IHRleHQtYWxpZ246IGNlbnRlcjsiPjxzcGFuIGNsYXNzPSJlZGdlTGFiZWwiPjwvc3Bhbj48L2Rpdj48L2ZvcmVpZ25PYmplY3Q+PC9nPjwvZz48ZyBjbGFzcz0iZWRnZUxhYmVsIj48ZyBjbGFzcz0ibGFiZWwiIGRhdGEtaWQ9IkxfR19RXzAiIHRyYW5zZm9ybT0idHJhbnNsYXRlKDAsIDApIj48Zm9yZWlnbk9iamVjdCB3aWR0aD0iMCIgaGVpZ2h0PSIwIj48ZGl2IHhtbG5zPSJodHRwOi8vd3d3LnczLm9yZy8xOTk5L3hodG1sIiBjbGFzcz0ibGFiZWxCa2ciIHN0eWxlPSJkaXNwbGF5OiB0YWJsZS1jZWxsOyB3aGl0ZS1zcGFjZTogbm9ybWFsOyBsaW5lLWhlaWdodDogMS41OyBtYXgtd2lkdGg6IDIwMHB4OyB0ZXh0LWFsaWduOiBjZW50ZXI7Ij48c3BhbiBjbGFzcz0iZWRnZUxhYmVsIj48L3NwYW4+PC9kaXY+PC9mb3JlaWduT2JqZWN0PjwvZz48L2c+PGcgY2xhc3M9ImVkZ2VMYWJlbCI+PGcgY2xhc3M9ImxhYmVsIiBkYXRhLWlkPSJMX0dfUl8wIiB0cmFuc2Zvcm09InRyYW5zbGF0ZSgwLCAwKSI+PGZvcmVpZ25PYmplY3Qgd2lkdGg9IjAiIGhlaWdodD0iMCI+PGRpdiB4bWxucz0iaHR0cDovL3d3dy53My5vcmcvMTk5OS94aHRtbCIgY2xhc3M9ImxhYmVsQmtnIiBzdHlsZT0iZGlzcGxheTogdGFibGUtY2VsbDsgd2hpdGUtc3BhY2U6IG5vcm1hbDsgbGluZS1oZWlnaHQ6IDEuNTsgbWF4LXdpZHRoOiAyMDBweDsgdGV4dC1hbGlnbjogY2VudGVyOyI+PHNwYW4gY2xhc3M9ImVkZ2VMYWJlbCI+PC9zcGFuPjwvZGl2PjwvZm9yZWlnbk9iamVjdD48L2c+PC9nPjxnIGNsYXNzPSJlZGdlTGFiZWwiPjxnIGNsYXNzPSJsYWJlbCIgZGF0YS1pZD0iTF9JX1NfMCIgdHJhbnNmb3JtPSJ0cmFuc2xhdGUoMCwgMCkiPjxmb3JlaWduT2JqZWN0IHdpZHRoPSIwIiBoZWlnaHQ9IjAiPjxkaXYgeG1sbnM9Imh0dHA6Ly93d3cudzMub3JnLzE5OTkveGh0bWwiIGNsYXNzPSJsYWJlbEJrZyIgc3R5bGU9ImRpc3BsYXk6IHRhYmxlLWNlbGw7IHdoaXRlLXNwYWNlOiBub3JtYWw7IGxpbmUtaGVpZ2h0OiAxLjU7IG1heC13aWR0aDogMjAwcHg7IHRleHQtYWxpZ246IGNlbnRlcjsiPjxzcGFuIGNsYXNzPSJlZGdlTGFiZWwiPjwvc3Bhbj48L2Rpdj48L2ZvcmVpZ25PYmplY3Q+PC9nPjwvZz48ZyBjbGFzcz0iZWRnZUxhYmVsIiB0cmFuc2Zvcm09InRyYW5zbGF0ZSgxODQuMjY5NTMxMjUsIDEzODIuMzQzNzUpIj48ZyBjbGFzcz0ibGFiZWwiIGRhdGEtaWQ9IkxfU19UXzAiIHRyYW5zZm9ybT0idHJhbnNsYXRlKC02LjYxNzE4NzUsIC0xMC41KSI+PGZvcmVpZ25PYmplY3Qgd2lkdGg9IjEzLjIzNDM3NSIgaGVpZ2h0PSIyMSI+PGRpdiB4bWxucz0iaHR0cDovL3d3dy53My5vcmcvMTk5OS94aHRtbCIgY2xhc3M9ImxhYmVsQmtnIiBzdHlsZT0iZGlzcGxheTogdGFibGUtY2VsbDsgd2hpdGUtc3BhY2U6IG5vcm1hbDsgbGluZS1oZWlnaHQ6IDEuNTsgbWF4LXdpZHRoOiAyMDBweDsgdGV4dC1hbGlnbjogY2VudGVyOyI+PHNwYW4gY2xhc3M9ImVkZ2VMYWJlbCI+PHA+0J3RljwvcD48L3NwYW4+PC9kaXY+PC9mb3JlaWduT2JqZWN0PjwvZz48L2c+PGcgY2xhc3M9ImVkZ2VMYWJlbCIgdHJhbnNmb3JtPSJ0cmFuc2xhdGUoNDUwLjU3NDIxODc1LCAxMzgyLjM0Mzc1KSI+PGcgY2xhc3M9ImxhYmVsIiBkYXRhLWlkPSJMX1NfVV8wIiB0cmFuc2Zvcm09InRyYW5zbGF0ZSgtMTAuOTIxODc1LCAtMTAuNSkiPjxmb3JlaWduT2JqZWN0IHdpZHRoPSIyMS44NDM3NSIgaGVpZ2h0PSIyMSI+PGRpdiB4bWxucz0iaHR0cDovL3d3dy53My5vcmcvMTk5OS94aHRtbCIgY2xhc3M9ImxhYmVsQmtnIiBzdHlsZT0iZGlzcGxheTogdGFibGUtY2VsbDsgd2hpdGUtc3BhY2U6IG5vcm1hbDsgbGluZS1oZWlnaHQ6IDEuNTsgbWF4LXdpZHRoOiAyMDBweDsgdGV4dC1hbGlnbjogY2VudGVyOyI+PHNwYW4gY2xhc3M9ImVkZ2VMYWJlbCI+PHA+0KLQsNC6PC9wPjwvc3Bhbj48L2Rpdj48L2ZvcmVpZ25PYmplY3Q+PC9nPjwvZz48ZyBjbGFzcz0iZWRnZUxhYmVsIj48ZyBjbGFzcz0ibGFiZWwiIGRhdGEtaWQ9IkxfSl9WXzAiIHRyYW5zZm9ybT0idHJhbnNsYXRlKDAsIDApIj48Zm9yZWlnbk9iamVjdCB3aWR0aD0iMCIgaGVpZ2h0PSIwIj48ZGl2IHhtbG5zPSJodHRwOi8vd3d3LnczLm9yZy8xOTk5L3hodG1sIiBjbGFzcz0ibGFiZWxCa2ciIHN0eWxlPSJkaXNwbGF5OiB0YWJsZS1jZWxsOyB3aGl0ZS1zcGFjZTogbm9ybWFsOyBsaW5lLWhlaWdodDogMS41OyBtYXgtd2lkdGg6IDIwMHB4OyB0ZXh0LWFsaWduOiBjZW50ZXI7Ij48c3BhbiBjbGFzcz0iZWRnZUxhYmVsIj48L3NwYW4+PC9kaXY+PC9mb3JlaWduT2JqZWN0PjwvZz48L2c+PGcgY2xhc3M9ImVkZ2VMYWJlbCIgdHJhbnNmb3JtPSJ0cmFuc2xhdGUoNzA1LjM3MTA5Mzc1LCAxMzgyLjM0Mzc1KSI+PGcgY2xhc3M9ImxhYmVsIiBkYXRhLWlkPSJMX1ZfV18wIiB0cmFuc2Zvcm09InRyYW5zbGF0ZSgtNi42MTcxODc1LCAtMTAuNSkiPjxmb3JlaWduT2JqZWN0IHdpZHRoPSIxMy4yMzQzNzUiIGhlaWdodD0iMjEiPjxkaXYgeG1sbnM9Imh0dHA6Ly93d3cudzMub3JnLzE5OTkveGh0bWwiIGNsYXNzPSJsYWJlbEJrZyIgc3R5bGU9ImRpc3BsYXk6IHRhYmxlLWNlbGw7IHdoaXRlLXNwYWNlOiBub3JtYWw7IGxpbmUtaGVpZ2h0OiAxLjU7IG1heC13aWR0aDogMjAwcHg7IHRleHQtYWxpZ246IGNlbnRlcjsiPjxzcGFuIGNsYXNzPSJlZGdlTGFiZWwiPjxwPtCd0ZY8L3A+PC9zcGFuPjwvZGl2PjwvZm9yZWlnbk9iamVjdD48L2c+PC9nPjxnIGNsYXNzPSJlZGdlTGFiZWwiIHRyYW5zZm9ybT0idHJhbnNsYXRlKDk1NC4wNjY0MDYyNSwgMTM4Mi4zNDM3NSkiPjxnIGNsYXNzPSJsYWJlbCIgZGF0YS1pZD0iTF9WX1hfMCIgdHJhbnNmb3JtPSJ0cmFuc2xhdGUoLTEwLjkyMTg3NSwgLTEwLjUpIj48Zm9yZWlnbk9iamVjdCB3aWR0aD0iMjEuODQzNzUiIGhlaWdodD0iMjEiPjxkaXYgeG1sbnM9Imh0dHA6Ly93d3cudzMub3JnLzE5OTkveGh0bWwiIGNsYXNzPSJsYWJlbEJrZyIgc3R5bGU9ImRpc3BsYXk6IHRhYmxlLWNlbGw7IHdoaXRlLXNwYWNlOiBub3JtYWw7IGxpbmUtaGVpZ2h0OiAxLjU7IG1heC13aWR0aDogMjAwcHg7IHRleHQtYWxpZ246IGNlbnRlcjsiPjxzcGFuIGNsYXNzPSJlZGdlTGFiZWwiPjxwPtCi0LDQujwvcD48L3NwYW4+PC9kaXY+PC9mb3JlaWduT2JqZWN0PjwvZz48L2c+PGcgY2xhc3M9ImVkZ2VMYWJlbCI+PGcgY2xhc3M9ImxhYmVsIiBkYXRhLWlkPSJMX0tfWV8wIiB0cmFuc2Zvcm09InRyYW5zbGF0ZSgwLCAwKSI+PGZvcmVpZ25PYmplY3Qgd2lkdGg9IjAiIGhlaWdodD0iMCI+PGRpdiB4bWxucz0iaHR0cDovL3d3dy53My5vcmcvMTk5OS94aHRtbCIgY2xhc3M9ImxhYmVsQmtnIiBzdHlsZT0iZGlzcGxheTogdGFibGUtY2VsbDsgd2hpdGUtc3BhY2U6IG5vcm1hbDsgbGluZS1oZWlnaHQ6IDEuNTsgbWF4LXdpZHRoOiAyMDBweDsgdGV4dC1hbGlnbjogY2VudGVyOyI+PHNwYW4gY2xhc3M9ImVkZ2VMYWJlbCI+PC9zcGFuPjwvZGl2PjwvZm9yZWlnbk9iamVjdD48L2c+PC9nPjxnIGNsYXNzPSJlZGdlTGFiZWwiIHRyYW5zZm9ybT0idHJhbnNsYXRlKDEyMDMuNDEwMTU2MjUsIDEzODIuMzQzNzUpIj48ZyBjbGFzcz0ibGFiZWwiIGRhdGEtaWQ9IkxfWV9aXzAiIHRyYW5zZm9ybT0idHJhbnNsYXRlKC02LjYxNzE4NzUsIC0xMC41KSI+PGZvcmVpZ25PYmplY3Qgd2lkdGg9IjEzLjIzNDM3NSIgaGVpZ2h0PSIyMSI+PGRpdiB4bWxucz0iaHR0cDovL3d3dy53My5vcmcvMTk5OS94aHRtbCIgY2xhc3M9ImxhYmVsQmtnIiBzdHlsZT0iZGlzcGxheTogdGFibGUtY2VsbDsgd2hpdGUtc3BhY2U6IG5vcm1hbDsgbGluZS1oZWlnaHQ6IDEuNTsgbWF4LXdpZHRoOiAyMDBweDsgdGV4dC1hbGlnbjogY2VudGVyOyI+PHNwYW4gY2xhc3M9ImVkZ2VMYWJlbCI+PHA+0J3RljwvcD48L3NwYW4+PC9kaXY+PC9mb3JlaWduT2JqZWN0PjwvZz48L2c+PGcgY2xhc3M9ImVkZ2VMYWJlbCIgdHJhbnNmb3JtPSJ0cmFuc2xhdGUoMTQ3NS4zNTkzNzUsIDEzODIuMzQzNzUpIj48ZyBjbGFzcz0ibGFiZWwiIGRhdGEtaWQ9IkxfWV9BQV8wIiB0cmFuc2Zvcm09InRyYW5zbGF0ZSgtMTAuOTIxODc1LCAtMTAuNSkiPjxmb3JlaWduT2JqZWN0IHdpZHRoPSIyMS44NDM3NSIgaGVpZ2h0PSIyMSI+PGRpdiB4bWxucz0iaHR0cDovL3d3dy53My5vcmcvMTk5OS94aHRtbCIgY2xhc3M9ImxhYmVsQmtnIiBzdHlsZT0iZGlzcGxheTogdGFibGUtY2VsbDsgd2hpdGUtc3BhY2U6IG5vcm1hbDsgbGluZS1oZWlnaHQ6IDEuNTsgbWF4LXdpZHRoOiAyMDBweDsgdGV4dC1hbGlnbjogY2VudGVyOyI+PHNwYW4gY2xhc3M9ImVkZ2VMYWJlbCI+PHA+0KLQsNC6PC9wPjwvc3Bhbj48L2Rpdj48L2ZvcmVpZ25PYmplY3Q+PC9nPjwvZz48ZyBjbGFzcz0iZWRnZUxhYmVsIj48ZyBjbGFzcz0ibGFiZWwiIGRhdGEtaWQ9IkxfTF9BQl8wIiB0cmFuc2Zvcm09InRyYW5zbGF0ZSgwLCAwKSI+PGZvcmVpZ25PYmplY3Qgd2lkdGg9IjAiIGhlaWdodD0iMCI+PGRpdiB4bWxucz0iaHR0cDovL3d3dy53My5vcmcvMTk5OS94aHRtbCIgY2xhc3M9ImxhYmVsQmtnIiBzdHlsZT0iZGlzcGxheTogdGFibGUtY2VsbDsgd2hpdGUtc3BhY2U6IG5vcm1hbDsgbGluZS1oZWlnaHQ6IDEuNTsgbWF4LXdpZHRoOiAyMDBweDsgdGV4dC1hbGlnbjogY2VudGVyOyI+PHNwYW4gY2xhc3M9ImVkZ2VMYWJlbCI+PC9zcGFuPjwvZGl2PjwvZm9yZWlnbk9iamVjdD48L2c+PC9nPjxnIGNsYXNzPSJlZGdlTGFiZWwiPjxnIGNsYXNzPSJsYWJlbCIgZGF0YS1pZD0iTF9NX0FDXzAiIHRyYW5zZm9ybT0idHJhbnNsYXRlKDAsIDApIj48Zm9yZWlnbk9iamVjdCB3aWR0aD0iMCIgaGVpZ2h0PSIwIj48ZGl2IHhtbG5zPSJodHRwOi8vd3d3LnczLm9yZy8xOTk5L3hodG1sIiBjbGFzcz0ibGFiZWxCa2ciIHN0eWxlPSJkaXNwbGF5OiB0YWJsZS1jZWxsOyB3aGl0ZS1zcGFjZTogbm9ybWFsOyBsaW5lLWhlaWdodDogMS41OyBtYXgtd2lkdGg6IDIwMHB4OyB0ZXh0LWFsaWduOiBjZW50ZXI7Ij48c3BhbiBjbGFzcz0iZWRnZUxhYmVsIj48L3NwYW4+PC9kaXY+PC9mb3JlaWduT2JqZWN0PjwvZz48L2c+PGcgY2xhc3M9ImVkZ2VMYWJlbCIgdHJhbnNmb3JtPSJ0cmFuc2xhdGUoMTczNS4wNTQ2ODc1LCAxMzgyLjM0Mzc1KSI+PGcgY2xhc3M9ImxhYmVsIiBkYXRhLWlkPSJMX0FDX0FEXzAiIHRyYW5zZm9ybT0idHJhbnNsYXRlKC02LjYxNzE4NzUsIC0xMC41KSI+PGZvcmVpZ25PYmplY3Qgd2lkdGg9IjEzLjIzNDM3NSIgaGVpZ2h0PSIyMSI+PGRpdiB4bWxucz0iaHR0cDovL3d3dy53My5vcmcvMTk5OS94aHRtbCIgY2xhc3M9ImxhYmVsQmtnIiBzdHlsZT0iZGlzcGxheTogdGFibGUtY2VsbDsgd2hpdGUtc3BhY2U6IG5vcm1hbDsgbGluZS1oZWlnaHQ6IDEuNTsgbWF4LXdpZHRoOiAyMDBweDsgdGV4dC1hbGlnbjogY2VudGVyOyI+PHNwYW4gY2xhc3M9ImVkZ2VMYWJlbCI+PHA+0J3RljwvcD48L3NwYW4+PC9kaXY+PC9mb3JlaWduT2JqZWN0PjwvZz48L2c+PGcgY2xhc3M9ImVkZ2VMYWJlbCIgdHJhbnNmb3JtPSJ0cmFuc2xhdGUoMjAwOC4wNjI1LCAxMzgyLjM0Mzc1KSI+PGcgY2xhc3M9ImxhYmVsIiBkYXRhLWlkPSJMX0FDX0FFXzAiIHRyYW5zZm9ybT0idHJhbnNsYXRlKC0xMC45MjE4NzUsIC0xMC41KSI+PGZvcmVpZ25PYmplY3Qgd2lkdGg9IjIxLjg0Mzc1IiBoZWlnaHQ9IjIxIj48ZGl2IHhtbG5zPSJodHRwOi8vd3d3LnczLm9yZy8xOTk5L3hodG1sIiBjbGFzcz0ibGFiZWxCa2ciIHN0eWxlPSJkaXNwbGF5OiB0YWJsZS1jZWxsOyB3aGl0ZS1zcGFjZTogbm9ybWFsOyBsaW5lLWhlaWdodDogMS41OyBtYXgtd2lkdGg6IDIwMHB4OyB0ZXh0LWFsaWduOiBjZW50ZXI7Ij48c3BhbiBjbGFzcz0iZWRnZUxhYmVsIj48cD7QotCw0Lo8L3A+PC9zcGFuPjwvZGl2PjwvZm9yZWlnbk9iamVjdD48L2c+PC9nPjxnIGNsYXNzPSJlZGdlTGFiZWwiPjxnIGNsYXNzPSJsYWJlbCIgZGF0YS1pZD0iTF9OX0FGXzAiIHRyYW5zZm9ybT0idHJhbnNsYXRlKDAsIDApIj48Zm9yZWlnbk9iamVjdCB3aWR0aD0iMCIgaGVpZ2h0PSIwIj48ZGl2IHhtbG5zPSJodHRwOi8vd3d3LnczLm9yZy8xOTk5L3hodG1sIiBjbGFzcz0ibGFiZWxCa2ciIHN0eWxlPSJkaXNwbGF5OiB0YWJsZS1jZWxsOyB3aGl0ZS1zcGFjZTogbm9ybWFsOyBsaW5lLWhlaWdodDogMS41OyBtYXgtd2lkdGg6IDIwMHB4OyB0ZXh0LWFsaWduOiBjZW50ZXI7Ij48c3BhbiBjbGFzcz0iZWRnZUxhYmVsIj48L3NwYW4+PC9kaXY+PC9mb3JlaWduT2JqZWN0PjwvZz48L2c+PGcgY2xhc3M9ImVkZ2VMYWJlbCIgdHJhbnNmb3JtPSJ0cmFuc2xhdGUoMjI5MC4wNjI1LCAxMzgyLjM0Mzc1KSI+PGcgY2xhc3M9ImxhYmVsIiBkYXRhLWlkPSJMX0FGX0FHXzAiIHRyYW5zZm9ybT0idHJhbnNsYXRlKC02LjYxNzE4NzUsIC0xMC41KSI+PGZvcmVpZ25PYmplY3Qgd2lkdGg9IjEzLjIzNDM3NSIgaGVpZ2h0PSIyMSI+PGRpdiB4bWxucz0iaHR0cDovL3d3dy53My5vcmcvMTk5OS94aHRtbCIgY2xhc3M9ImxhYmVsQmtnIiBzdHlsZT0iZGlzcGxheTogdGFibGUtY2VsbDsgd2hpdGUtc3BhY2U6IG5vcm1hbDsgbGluZS1oZWlnaHQ6IDEuNTsgbWF4LXdpZHRoOiAyMDBweDsgdGV4dC1hbGlnbjogY2VudGVyOyI+PHNwYW4gY2xhc3M9ImVkZ2VMYWJlbCI+PHA+0J3RljwvcD48L3NwYW4+PC9kaXY+PC9mb3JlaWduT2JqZWN0PjwvZz48L2c+PGcgY2xhc3M9ImVkZ2VMYWJlbCIgdHJhbnNmb3JtPSJ0cmFuc2xhdGUoMjU1NC4yNSwgMTM4Mi4zNDM3NSkiPjxnIGNsYXNzPSJsYWJlbCIgZGF0YS1pZD0iTF9BRl9BSF8wIiB0cmFuc2Zvcm09InRyYW5zbGF0ZSgtMTAuOTIxODc1LCAtMTAuNSkiPjxmb3JlaWduT2JqZWN0IHdpZHRoPSIyMS44NDM3NSIgaGVpZ2h0PSIyMSI+PGRpdiB4bWxucz0iaHR0cDovL3d3dy53My5vcmcvMTk5OS94aHRtbCIgY2xhc3M9ImxhYmVsQmtnIiBzdHlsZT0iZGlzcGxheTogdGFibGUtY2VsbDsgd2hpdGUtc3BhY2U6IG5vcm1hbDsgbGluZS1oZWlnaHQ6IDEuNTsgbWF4LXdpZHRoOiAyMDBweDsgdGV4dC1hbGlnbjogY2VudGVyOyI+PHNwYW4gY2xhc3M9ImVkZ2VMYWJlbCI+PHA+0KLQsNC6PC9wPjwvc3Bhbj48L2Rpdj48L2ZvcmVpZ25PYmplY3Q+PC9nPjwvZz48ZyBjbGFzcz0iZWRnZUxhYmVsIj48ZyBjbGFzcz0ibGFiZWwiIGRhdGEtaWQ9IkxfT19BSV8wIiB0cmFuc2Zvcm09InRyYW5zbGF0ZSgwLCAwKSI+PGZvcmVpZ25PYmplY3Qgd2lkdGg9IjAiIGhlaWdodD0iMCI+PGRpdiB4bWxucz0iaHR0cDovL3d3dy53My5vcmcvMTk5OS94aHRtbCIgY2xhc3M9ImxhYmVsQmtnIiBzdHlsZT0iZGlzcGxheTogdGFibGUtY2VsbDsgd2hpdGUtc3BhY2U6IG5vcm1hbDsgbGluZS1oZWlnaHQ6IDEuNTsgbWF4LXdpZHRoOiAyMDBweDsgdGV4dC1hbGlnbjogY2VudGVyOyI+PHNwYW4gY2xhc3M9ImVkZ2VMYWJlbCI+PC9zcGFuPjwvZGl2PjwvZm9yZWlnbk9iamVjdD48L2c+PC9nPjxnIGNsYXNzPSJlZGdlTGFiZWwiIHRyYW5zZm9ybT0idHJhbnNsYXRlKDI3ODkuNTIzNDM3NSwgMTM4Mi4zNDM3NSkiPjxnIGNsYXNzPSJsYWJlbCIgZGF0YS1pZD0iTF9BSV9BSl8wIiB0cmFuc2Zvcm09InRyYW5zbGF0ZSgtNi42MTcxODc1LCAtMTAuNSkiPjxmb3JlaWduT2JqZWN0IHdpZHRoPSIxMy4yMzQzNzUiIGhlaWdodD0iMjEiPjxkaXYgeG1sbnM9Imh0dHA6Ly93d3cudzMub3JnLzE5OTkveGh0bWwiIGNsYXNzPSJsYWJlbEJrZyIgc3R5bGU9ImRpc3BsYXk6IHRhYmxlLWNlbGw7IHdoaXRlLXNwYWNlOiBub3JtYWw7IGxpbmUtaGVpZ2h0OiAxLjU7IG1heC13aWR0aDogMjAwcHg7IHRleHQtYWxpZ246IGNlbnRlcjsiPjxzcGFuIGNsYXNzPSJlZGdlTGFiZWwiPjxwPtCd0ZY8L3A+PC9zcGFuPjwvZGl2PjwvZm9yZWlnbk9iamVjdD48L2c+PC9nPjxnIGNsYXNzPSJlZGdlTGFiZWwiIHRyYW5zZm9ybT0idHJhbnNsYXRlKDMwMTMuODQzNzUsIDEzODIuMzQzNzUpIj48ZyBjbGFzcz0ibGFiZWwiIGRhdGEtaWQ9IkxfQUlfQUtfMCIgdHJhbnNmb3JtPSJ0cmFuc2xhdGUoLTEwLjkyMTg3NSwgLTEwLjUpIj48Zm9yZWlnbk9iamVjdCB3aWR0aD0iMjEuODQzNzUiIGhlaWdodD0iMjEiPjxkaXYgeG1sbnM9Imh0dHA6Ly93d3cudzMub3JnLzE5OTkveGh0bWwiIGNsYXNzPSJsYWJlbEJrZyIgc3R5bGU9ImRpc3BsYXk6IHRhYmxlLWNlbGw7IHdoaXRlLXNwYWNlOiBub3JtYWw7IGxpbmUtaGVpZ2h0OiAxLjU7IG1heC13aWR0aDogMjAwcHg7IHRleHQtYWxpZ246IGNlbnRlcjsiPjxzcGFuIGNsYXNzPSJlZGdlTGFiZWwiPjxwPtCi0LDQujwvcD48L3NwYW4+PC9kaXY+PC9mb3JlaWduT2JqZWN0PjwvZz48L2c+PC9nPjxnIGNsYXNzPSJub2RlcyI+PGcgY2xhc3M9Im5vZGUgZGVmYXVsdCIgaWQ9ImZsb3djaGFydC1BLTAiIGRhdGEtaWQ9IkEiIGRhdGEtbm9kZT0idHJ1ZSIgZGF0YS1ldD0ibm9kZSIgZGF0YS1sb29rPSJuZW8iIHRyYW5zZm9ybT0idHJhbnNsYXRlKDE4NzguMjE0ODQzNzUsIDY2LjI0MjE4NzUpIj48Y2lyY2xlIGNsYXNzPSJiYXNpYyBsYWJlbC1jb250YWluZXIiIHN0eWxlPSJmaWxsOiM5MEVFOTAgIWltcG9ydGFudCIgcj0iNTguMjQyMTg3NSIgY3g9IjAiIGN5PSIwIi8+PGcgY2xhc3M9ImxhYmVsIiBzdHlsZT0iIiB0cmFuc2Zvcm09InRyYW5zbGF0ZSgtMjYuMjQyMTg3NSwgLTEwLjUpIj48cmVjdC8+PGZvcmVpZ25PYmplY3Qgd2lkdGg9IjUyLjQ4NDM3NSIgaGVpZ2h0PSIyMSI+PGRpdiB4bWxucz0iaHR0cDovL3d3dy53My5vcmcvMTk5OS94aHRtbCIgc3R5bGU9ImRpc3BsYXk6IHRhYmxlLWNlbGw7IHdoaXRlLXNwYWNlOiBub3JtYWw7IGxpbmUtaGVpZ2h0OiAxLjU7IG1heC13aWR0aDogMjAwcHg7IHRleHQtYWxpZ246IGNlbnRlcjsiPjxzcGFuIGNsYXNzPSJub2RlTGFiZWwiPjxwPtCf0L7Rh9Cw0YLQvtC6PC9wPjwvc3Bhbj48L2Rpdj48L2ZvcmVpZ25PYmplY3Q+PC9nPjwvZz48ZyBjbGFzcz0ibm9kZSBkZWZhdWx0IiBpZD0iZmxvd2NoYXJ0LUItMSIgZGF0YS1pZD0iQiIgZGF0YS1ub2RlPSJ0cnVlIiBkYXRhLWV0PSJub2RlIiBkYXRhLWxvb2s9Im5lbyIgdHJhbnNmb3JtPSJ0cmFuc2xhdGUoMTg3OC4yMTQ4NDM3NSwgMTk2Ljk4NDM3NSkiPjxyZWN0IGNsYXNzPSJiYXNpYyBsYWJlbC1jb250YWluZXIiIHN0eWxlPSIiIHJ4PSIzIiBkYXRhLWlkPSJCIiByeT0iMyIgeD0iLTgzLjUyMzQzNzUiIHk9Ii0yMi41IiB3aWR0aD0iMTY3LjA0Njg3NSIgaGVpZ2h0PSI0NSIgc3Ryb2tlPSJ1cmwoI2dyYWRpZW50KSIvPjxnIGNsYXNzPSJsYWJlbCIgc3R5bGU9IiIgdHJhbnNmb3JtPSJ0cmFuc2xhdGUoLTY3LjUyMzQzNzUsIC0xMC41KSI+PHJlY3QvPjxmb3JlaWduT2JqZWN0IHdpZHRoPSIxMzUuMDQ2ODc1IiBoZWlnaHQ9IjIxIj48ZGl2IHhtbG5zPSJodHRwOi8vd3d3LnczLm9yZy8xOTk5L3hodG1sIiBzdHlsZT0iZGlzcGxheTogdGFibGUtY2VsbDsgd2hpdGUtc3BhY2U6IG5vcm1hbDsgbGluZS1oZWlnaHQ6IDEuNTsgbWF4LXdpZHRoOiAyMDBweDsgdGV4dC1hbGlnbjogY2VudGVyOyI+PHNwYW4gY2xhc3M9Im5vZGVMYWJlbCI+PHA+0IbQvdGW0YbRltCw0LvRltC30LDRhtGW0Y8g0YHQuNGB0YLQtdC80Lg8L3A+PC9zcGFuPjwvZGl2PjwvZm9yZWlnbk9iamVjdD48L2c+PC9nPjxnIGNsYXNzPSJub2RlIGRlZmF1bHQiIGlkPSJmbG93Y2hhcnQtQy0zIiBkYXRhLWlkPSJDIiBkYXRhLW5vZGU9InRydWUiIGRhdGEtZXQ9Im5vZGUiIGRhdGEtbG9vaz0ibmVvIiB0cmFuc2Zvcm09InRyYW5zbGF0ZSgxODc4LjIxNDg0Mzc1LCAzNzIuNzczNDM3NSkiPjxwb2x5Z29uIHBvaW50cz0iMTAzLjI4OTA2MjUsMCAyMDYuNTc4MTI1LC0xMDMuMjg5MDYyNSAxMDMuMjg5MDYyNSwtMjA2LjU3ODEyNSAwLC0xMDMuMjg5MDYyNSIgY2xhc3M9ImxhYmVsLWNvbnRhaW5lciIgdHJhbnNmb3JtPSJ0cmFuc2xhdGUoLTEwMy4yODkwNjI1LDEwMy4yODkwNjI1KSIvPjxnIGNsYXNzPSJsYWJlbCIgc3R5bGU9IiIgdHJhbnNmb3JtPSJ0cmFuc2xhdGUoLTczLjI4OTA2MjUsIC0xMC41KSI+PHJlY3QvPjxmb3JlaWduT2JqZWN0IHdpZHRoPSIxNDYuNTc4MTI1IiBoZWlnaHQ9IjIxIj48ZGl2IHhtbG5zPSJodHRwOi8vd3d3LnczLm9yZy8xOTk5L3hodG1sIiBzdHlsZT0iZGlzcGxheTogdGFibGUtY2VsbDsgd2hpdGUtc3BhY2U6IG5vcm1hbDsgbGluZS1oZWlnaHQ6IDEuNTsgbWF4LXdpZHRoOiAyMDBweDsgdGV4dC1hbGlnbjogY2VudGVyOyI+PHNwYW4gY2xhc3M9Im5vZGVMYWJlbCI+PHA+0KTQsNC50LsgcGhvbmVzLnR4dCDRltGB0L3Rg9GUPzwvcD48L3NwYW4+PC9kaXY+PC9mb3JlaWduT2JqZWN0PjwvZz48L2c+PGcgY2xhc3M9Im5vZGUgZGVmYXVsdCIgaWQ9ImZsb3djaGFydC1ELTUiIGRhdGEtaWQ9IkQiIGRhdGEtbm9kZT0idHJ1ZSIgZGF0YS1ldD0ibm9kZSIgZGF0YS1sb29rPSJuZW8iIHRyYW5zZm9ybT0idHJhbnNsYXRlKDE3NTguODgyODEyNSwgNTY5LjU2MjUpIj48cmVjdCBjbGFzcz0iYmFzaWMgbGFiZWwtY29udGFpbmVyIiBzdHlsZT0iIiBkYXRhLWlkPSJEIiB4PSItMTAxLjg0Mzc1IiB5PSItMjIuNSIgd2lkdGg9IjIwMy42ODc1IiBoZWlnaHQ9IjQ1IiBzdHJva2U9InVybCgjZ3JhZGllbnQpIi8+PGcgY2xhc3M9ImxhYmVsIiBzdHlsZT0iIiB0cmFuc2Zvcm09InRyYW5zbGF0ZSgtODUuODQzNzUsIC0xMC41KSI+PHJlY3QvPjxmb3JlaWduT2JqZWN0IHdpZHRoPSIxNzEuNjg3NSIgaGVpZ2h0PSIyMSI+PGRpdiB4bWxucz0iaHR0cDovL3d3dy53My5vcmcvMTk5OS94aHRtbCIgc3R5bGU9ImRpc3BsYXk6IHRhYmxlLWNlbGw7IHdoaXRlLXNwYWNlOiBub3JtYWw7IGxpbmUtaGVpZ2h0OiAxLjU7IG1heC13aWR0aDogMjAwcHg7IHRleHQtYWxpZ246IGNlbnRlcjsiPjxzcGFuIGNsYXNzPSJub2RlTGFiZWwiPjxwPtCX0LDQstCw0L3RgtCw0LbQuNGC0Lgg0LTQsNC90ZYg0Lcg0YTQsNC50LvRgzwvcD48L3NwYW4+PC9kaXY+PC9mb3JlaWduT2JqZWN0PjwvZz48L2c+PGcgY2xhc3M9Im5vZGUgZGVmYXVsdCIgaWQ9ImZsb3djaGFydC1FLTciIGRhdGEtaWQ9IkUiIGRhdGEtbm9kZT0idHJ1ZSIgZGF0YS1ldD0ibm9kZSIgZGF0YS1sb29rPSJuZW8iIHRyYW5zZm9ybT0idHJhbnNsYXRlKDE5OTcuNTQ2ODc1LCA1NjkuNTYyNSkiPjxyZWN0IGNsYXNzPSJiYXNpYyBsYWJlbC1jb250YWluZXIiIHN0eWxlPSIiIGRhdGEtaWQ9IkUiIHg9Ii04Ni44MjAzMTI1IiB5PSItMjIuNSIgd2lkdGg9IjE3My42NDA2MjUiIGhlaWdodD0iNDUiIHN0cm9rZT0idXJsKCNncmFkaWVudCkiLz48ZyBjbGFzcz0ibGFiZWwiIHN0eWxlPSIiIHRyYW5zZm9ybT0idHJhbnNsYXRlKC03MC44MjAzMTI1LCAtMTAuNSkiPjxyZWN0Lz48Zm9yZWlnbk9iamVjdCB3aWR0aD0iMTQxLjY0MDYyNSIgaGVpZ2h0PSIyMSI+PGRpdiB4bWxucz0iaHR0cDovL3d3dy53My5vcmcvMTk5OS94aHRtbCIgc3R5bGU9ImRpc3BsYXk6IHRhYmxlLWNlbGw7IHdoaXRlLXNwYWNlOiBub3JtYWw7IGxpbmUtaGVpZ2h0OiAxLjU7IG1heC13aWR0aDogMjAwcHg7IHRleHQtYWxpZ246IGNlbnRlcjsiPjxzcGFuIGNsYXNzPSJub2RlTGFiZWwiPjxwPtCh0YLQstC+0YDQuNGC0Lgg0YLQtdGB0YLQvtCy0ZYg0LTQsNC90ZY8L3A+PC9zcGFuPjwvZGl2PjwvZm9yZWlnbk9iamVjdD48L2c+PC9nPjxnIGNsYXNzPSJub2RlIGRlZmF1bHQiIGlkPSJmbG93Y2hhcnQtRi05IiBkYXRhLWlkPSJGIiBkYXRhLW5vZGU9InRydWUiIGRhdGEtZXQ9Im5vZGUiIGRhdGEtbG9vaz0ibmVvIiB0cmFuc2Zvcm09InRyYW5zbGF0ZSgxODc4LjIxNDg0Mzc1LCA2NzUuMDYyNSkiPjxyZWN0IGNsYXNzPSJiYXNpYyBsYWJlbC1jb250YWluZXIiIHN0eWxlPSIiIGRhdGEtaWQ9IkYiIHg9Ii0xMTYiIHk9Ii0zMyIgd2lkdGg9IjIzMiIgaGVpZ2h0PSI2NiIgc3Ryb2tlPSJ1cmwoI2dyYWRpZW50KSIvPjxnIGNsYXNzPSJsYWJlbCIgc3R5bGU9IiIgdHJhbnNmb3JtPSJ0cmFuc2xhdGUoLTEwMCwgLTIxKSI+PHJlY3QvPjxmb3JlaWduT2JqZWN0IHdpZHRoPSIyMDAiIGhlaWdodD0iNDIiPjxkaXYgeG1sbnM9Imh0dHA6Ly93d3cudzMub3JnLzE5OTkveGh0bWwiIHN0eWxlPSJkaXNwbGF5OiB0YWJsZTsgd2hpdGUtc3BhY2U6IGJyZWFrLXNwYWNlczsgbGluZS1oZWlnaHQ6IDEuNTsgbWF4LXdpZHRoOiAyMDBweDsgdGV4dC1hbGlnbjogY2VudGVyOyB3aWR0aDogMjAwcHg7Ij48c3BhbiBjbGFzcz0ibm9kZUxhYmVsIj48cD7QktGW0LTQvtCx0YDQsNC30LjRgtC4INGC0LDQsdC70LjRhtGOINGC0LXQu9C10YTQvtC90ZbQsjwvcD48L3NwYW4+PC9kaXY+PC9mb3JlaWduT2JqZWN0PjwvZz48L2c+PGcgY2xhc3M9Im5vZGUgZGVmYXVsdCIgaWQ9ImZsb3djaGFydC1HLTEzIiBkYXRhLWlkPSJHIiBkYXRhLW5vZGU9InRydWUiIGRhdGEtZXQ9Im5vZGUiIGRhdGEtbG9vaz0ibmVvIiB0cmFuc2Zvcm09InRyYW5zbGF0ZSgxODc4LjIxNDg0Mzc1LCA4MzQuNDI5Njg3NSkiPjxwb2x5Z29uIHBvaW50cz0iNzYuMzY3MTg3NSwwIDE1Mi43MzQzNzUsLTc2LjM2NzE4NzUgNzYuMzY3MTg3NSwtMTUyLjczNDM3NSAwLC03Ni4zNjcxODc1IiBjbGFzcz0ibGFiZWwtY29udGFpbmVyIiB0cmFuc2Zvcm09InRyYW5zbGF0ZSgtNzYuMzY3MTg3NSw3Ni4zNjcxODc1KSIgc3R5bGU9ImZpbGw6Izg3Q0VFQiAhaW1wb3J0YW50Ii8+PGcgY2xhc3M9ImxhYmVsIiBzdHlsZT0iIiB0cmFuc2Zvcm09InRyYW5zbGF0ZSgtNDYuMzY3MTg3NSwgLTEwLjUpIj48cmVjdC8+PGZvcmVpZ25PYmplY3Qgd2lkdGg9IjkyLjczNDM3NSIgaGVpZ2h0PSIyMSI+PGRpdiB4bWxucz0iaHR0cDovL3d3dy53My5vcmcvMTk5OS94aHRtbCIgc3R5bGU9ImRpc3BsYXk6IHRhYmxlLWNlbGw7IHdoaXRlLXNwYWNlOiBub3JtYWw7IGxpbmUtaGVpZ2h0OiAxLjU7IG1heC13aWR0aDogMjAwcHg7IHRleHQtYWxpZ246IGNlbnRlcjsiPjxzcGFuIGNsYXNzPSJub2RlTGFiZWwiPjxwPtCT0L7Qu9C+0LLQvdC1INC80LXQvdGOPC9wPjwvc3Bhbj48L2Rpdj48L2ZvcmVpZ25PYmplY3Q+PC9nPjwvZz48ZyBjbGFzcz0ibm9kZSBkZWZhdWx0IiBpZD0iZmxvd2NoYXJ0LUgtMTUiIGRhdGEtaWQ9IkgiIGRhdGEtbm9kZT0idHJ1ZSIgZGF0YS1ldD0ibm9kZSIgZGF0YS1sb29rPSJuZW8iIHRyYW5zZm9ybT0idHJhbnNsYXRlKDk4LjgwNDY4NzUsIDEwMTMuODUxNTYyNSkiPjxyZWN0IGNsYXNzPSJiYXNpYyBsYWJlbC1jb250YWluZXIiIHN0eWxlPSIiIGRhdGEtaWQ9IkgiIHg9Ii05MC44MDQ2ODc1IiB5PSItMjIuNSIgd2lkdGg9IjE4MS42MDkzNzUiIGhlaWdodD0iNDUiIHN0cm9rZT0idXJsKCNncmFkaWVudCkiLz48ZyBjbGFzcz0ibGFiZWwiIHN0eWxlPSIiIHRyYW5zZm9ybT0idHJhbnNsYXRlKC03NC44MDQ2ODc1LCAtMTAuNSkiPjxyZWN0Lz48Zm9yZWlnbk9iamVjdCB3aWR0aD0iMTQ5LjYwOTM3NSIgaGVpZ2h0PSIyMSI+PGRpdiB4bWxucz0iaHR0cDovL3d3dy53My5vcmcvMTk5OS94aHRtbCIgc3R5bGU9ImRpc3BsYXk6IHRhYmxlLWNlbGw7IHdoaXRlLXNwYWNlOiBub3JtYWw7IGxpbmUtaGVpZ2h0OiAxLjU7IG1heC13aWR0aDogMjAwcHg7IHRleHQtYWxpZ246IGNlbnRlcjsiPjxzcGFuIGNsYXNzPSJub2RlTGFiZWwiPjxwPtCf0L7QutCw0LfQsNGC0Lgg0LLRgdGWINGC0LXQu9C10YTQvtC90Lg8L3A+PC9zcGFuPjwvZGl2PjwvZm9yZWlnbk9iamVjdD48L2c+PC9nPjxnIGNsYXNzPSJub2RlIGRlZmF1bHQiIGlkPSJmbG93Y2hhcnQtSS0xNyIgZGF0YS1pZD0iSSIgZGF0YS1ub2RlPSJ0cnVlIiBkYXRhLWV0PSJub2RlIiBkYXRhLWxvb2s9Im5lbyIgdHJhbnNmb3JtPSJ0cmFuc2xhdGUoMzE3LjQyMTg3NSwgMTAxMy44NTE1NjI1KSI+PHJlY3QgY2xhc3M9ImJhc2ljIGxhYmVsLWNvbnRhaW5lciIgc3R5bGU9IiIgZGF0YS1pZD0iSSIgeD0iLTc3LjgxMjUiIHk9Ii0yMi41IiB3aWR0aD0iMTU1LjYyNSIgaGVpZ2h0PSI0NSIgc3Ryb2tlPSJ1cmwoI2dyYWRpZW50KSIvPjxnIGNsYXNzPSJsYWJlbCIgc3R5bGU9IiIgdHJhbnNmb3JtPSJ0cmFuc2xhdGUoLTYxLjgxMjUsIC0xMC41KSI+PHJlY3QvPjxmb3JlaWduT2JqZWN0IHdpZHRoPSIxMjMuNjI1IiBoZWlnaHQ9IjIxIj48ZGl2IHhtbG5zPSJodHRwOi8vd3d3LnczLm9yZy8xOTk5L3hodG1sIiBzdHlsZT0iZGlzcGxheTogdGFibGUtY2VsbDsgd2hpdGUtc3BhY2U6IG5vcm1hbDsgbGluZS1oZWlnaHQ6IDEuNTsgbWF4LXdpZHRoOiAyMDBweDsgdGV4dC1hbGlnbjogY2VudGVyOyI+PHNwYW4gY2xhc3M9Im5vZGVMYWJlbCI+PHA+0J/QvtGI0YPQuiDQt9CwINC80L7QtNC10LvQu9GOPC9wPjwvc3Bhbj48L2Rpdj48L2ZvcmVpZ25PYmplY3Q+PC9nPjwvZz48ZyBjbGFzcz0ibm9kZSBkZWZhdWx0IiBpZD0iZmxvd2NoYXJ0LUotMTkiIGRhdGEtaWQ9IkoiIGRhdGEtbm9kZT0idHJ1ZSIgZGF0YS1ldD0ibm9kZSIgZGF0YS1sb29rPSJuZW8iIHRyYW5zZm9ybT0idHJhbnNsYXRlKDgyOS43MTg3NSwgMTAxMy44NTE1NjI1KSI+PHJlY3QgY2xhc3M9ImJhc2ljIGxhYmVsLWNvbnRhaW5lciIgc3R5bGU9IiIgZGF0YS1pZD0iSiIgeD0iLTcxLjcxODc1IiB5PSItMjIuNSIgd2lkdGg9IjE0My40Mzc1IiBoZWlnaHQ9IjQ1IiBzdHJva2U9InVybCgjZ3JhZGllbnQpIi8+PGcgY2xhc3M9ImxhYmVsIiBzdHlsZT0iIiB0cmFuc2Zvcm09InRyYW5zbGF0ZSgtNTUuNzE4NzUsIC0xMC41KSI+PHJlY3QvPjxmb3JlaWduT2JqZWN0IHdpZHRoPSIxMTEuNDM3NSIgaGVpZ2h0PSIyMSI+PGRpdiB4bWxucz0iaHR0cDovL3d3dy53My5vcmcvMTk5OS94aHRtbCIgc3R5bGU9ImRpc3BsYXk6IHRhYmxlLWNlbGw7IHdoaXRlLXNwYWNlOiBub3JtYWw7IGxpbmUtaGVpZ2h0OiAxLjU7IG1heC13aWR0aDogMjAwcHg7IHRleHQtYWxpZ246IGNlbnRlcjsiPjxzcGFuIGNsYXNzPSJub2RlTGFiZWwiPjxwPtCf0L7RiNGD0Log0LfQsCDRgNC+0LrQsNC80Lg8L3A+PC9zcGFuPjwvZGl2PjwvZm9yZWlnbk9iamVjdD48L2c+PC9nPjxnIGNsYXNzPSJub2RlIGRlZmF1bHQiIGlkPSJmbG93Y2hhcnQtSy0yMSIgZGF0YS1pZD0iSyIgZGF0YS1ub2RlPSJ0cnVlIiBkYXRhLWV0PSJub2RlIiBkYXRhLWxvb2s9Im5lbyIgdHJhbnNmb3JtPSJ0cmFuc2xhdGUoMTMzMi4xOTkyMTg3NSwgMTAxMy44NTE1NjI1KSI+PHJlY3QgY2xhc3M9ImJhc2ljIGxhYmVsLWNvbnRhaW5lciIgc3R5bGU9IiIgZGF0YS1pZD0iSyIgeD0iLTkxLjc1IiB5PSItMjIuNSIgd2lkdGg9IjE4My41IiBoZWlnaHQ9IjQ1IiBzdHJva2U9InVybCgjZ3JhZGllbnQpIi8+PGcgY2xhc3M9ImxhYmVsIiBzdHlsZT0iIiB0cmFuc2Zvcm09InRyYW5zbGF0ZSgtNzUuNzUsIC0xMC41KSI+PHJlY3QvPjxmb3JlaWduT2JqZWN0IHdpZHRoPSIxNTEuNSIgaGVpZ2h0PSIyMSI+PGRpdiB4bWxucz0iaHR0cDovL3d3dy53My5vcmcvMTk5OS94aHRtbCIgc3R5bGU9ImRpc3BsYXk6IHRhYmxlLWNlbGw7IHdoaXRlLXNwYWNlOiBub3JtYWw7IGxpbmUtaGVpZ2h0OiAxLjU7IG1heC13aWR0aDogMjAwcHg7IHRleHQtYWxpZ246IGNlbnRlcjsiPjxzcGFuIGNsYXNzPSJub2RlTGFiZWwiPjxwPtCf0L7RiNGD0Log0LfQsCDRgNC+0LrQvtC8INGWINGG0ZbQvdC+0Y48L3A+PC9zcGFuPjwvZGl2PjwvZm9yZWlnbk9iamVjdD48L2c+PC9nPjxnIGNsYXNzPSJub2RlIGRlZmF1bHQiIGlkPSJmbG93Y2hhcnQtTC0yMyIgZGF0YS1pZD0iTCIgZGF0YS1ub2RlPSJ0cnVlIiBkYXRhLWV0PSJub2RlIiBkYXRhLWxvb2s9Im5lbyIgdHJhbnNmb3JtPSJ0cmFuc2xhdGUoMTU5Ny4yNDYwOTM3NSwgMTAxMy44NTE1NjI1KSI+PHJlY3QgY2xhc3M9ImJhc2ljIGxhYmVsLWNvbnRhaW5lciIgc3R5bGU9IiIgZGF0YS1pZD0iTCIgeD0iLTY1LjMxMjUiIHk9Ii0yMi41IiB3aWR0aD0iMTMwLjYyNSIgaGVpZ2h0PSI0NSIgc3Ryb2tlPSJ1cmwoI2dyYWRpZW50KSIvPjxnIGNsYXNzPSJsYWJlbCIgc3R5bGU9IiIgdHJhbnNmb3JtPSJ0cmFuc2xhdGUoLTQ5LjMxMjUsIC0xMC41KSI+PHJlY3QvPjxmb3JlaWduT2JqZWN0IHdpZHRoPSI5OC42MjUiIGhlaWdodD0iMjEiPjxkaXYgeG1sbnM9Imh0dHA6Ly93d3cudzMub3JnLzE5OTkveGh0bWwiIHN0eWxlPSJkaXNwbGF5OiB0YWJsZS1jZWxsOyB3aGl0ZS1zcGFjZTogbm9ybWFsOyBsaW5lLWhlaWdodDogMS41OyBtYXgtd2lkdGg6IDIwMHB4OyB0ZXh0LWFsaWduOiBjZW50ZXI7Ij48c3BhbiBjbGFzcz0ibm9kZUxhYmVsIj48cD7QodC+0YDRgtGD0LLQsNGC0Lgg0LTQsNC90ZY8L3A+PC9zcGFuPjwvZGl2PjwvZm9yZWlnbk9iamVjdD48L2c+PC9nPjxnIGNsYXNzPSJub2RlIGRlZmF1bHQiIGlkPSJmbG93Y2hhcnQtTS0yNSIgZGF0YS1pZD0iTSIgZGF0YS1ub2RlPSJ0cnVlIiBkYXRhLWV0PSJub2RlIiBkYXRhLWxvb2s9Im5lbyIgdHJhbnNmb3JtPSJ0cmFuc2xhdGUoMTg3OC4yMTQ4NDM3NSwgMTAxMy44NTE1NjI1KSI+PHJlY3QgY2xhc3M9ImJhc2ljIGxhYmVsLWNvbnRhaW5lciIgc3R5bGU9IiIgZGF0YS1pZD0iTSIgeD0iLTEwOC40NDUzMTI1IiB5PSItMjIuNSIgd2lkdGg9IjIxNi44OTA2MjUiIGhlaWdodD0iNDUiIHN0cm9rZT0idXJsKCNncmFkaWVudCkiLz48ZyBjbGFzcz0ibGFiZWwiIHN0eWxlPSIiIHRyYW5zZm9ybT0idHJhbnNsYXRlKC05Mi40NDUzMTI1LCAtMTAuNSkiPjxyZWN0Lz48Zm9yZWlnbk9iamVjdCB3aWR0aD0iMTg0Ljg5MDYyNSIgaGVpZ2h0PSIyMSI+PGRpdiB4bWxucz0iaHR0cDovL3d3dy53My5vcmcvMTk5OS94aHRtbCIgc3R5bGU9ImRpc3BsYXk6IHRhYmxlLWNlbGw7IHdoaXRlLXNwYWNlOiBub3JtYWw7IGxpbmUtaGVpZ2h0OiAxLjU7IG1heC13aWR0aDogMjAwcHg7IHRleHQtYWxpZ246IGNlbnRlcjsiPjxzcGFuIGNsYXNzPSJub2RlTGFiZWwiPjxwPtCf0L7RiNGD0Log0LfQsCDRgdC10YDRltC50L3QuNC8INC90L7QvNC10YDQvtC8PC9wPjwvc3Bhbj48L2Rpdj48L2ZvcmVpZ25PYmplY3Q+PC9nPjwvZz48ZyBjbGFzcz0ibm9kZSBkZWZhdWx0IiBpZD0iZmxvd2NoYXJ0LU4tMjciIGRhdGEtaWQ9Ik4iIGRhdGEtbm9kZT0idHJ1ZSIgZGF0YS1ldD0ibm9kZSIgZGF0YS1sb29rPSJuZW8iIHRyYW5zZm9ybT0idHJhbnNsYXRlKDI0MjIuMTU2MjUsIDEwMTMuODUxNTYyNSkiPjxyZWN0IGNsYXNzPSJiYXNpYyBsYWJlbC1jb250YWluZXIiIHN0eWxlPSIiIGRhdGEtaWQ9Ik4iIHg9Ii02OS43MzQzNzUiIHk9Ii0yMi41IiB3aWR0aD0iMTM5LjQ2ODc1IiBoZWlnaHQ9IjQ1IiBzdHJva2U9InVybCgjZ3JhZGllbnQpIi8+PGcgY2xhc3M9ImxhYmVsIiBzdHlsZT0iIiB0cmFuc2Zvcm09InRyYW5zbGF0ZSgtNTMuNzM0Mzc1LCAtMTAuNSkiPjxyZWN0Lz48Zm9yZWlnbk9iamVjdCB3aWR0aD0iMTA3LjQ2ODc1IiBoZWlnaHQ9IjIxIj48ZGl2IHhtbG5zPSJodHRwOi8vd3d3LnczLm9yZy8xOTk5L3hodG1sIiBzdHlsZT0iZGlzcGxheTogdGFibGUtY2VsbDsgd2hpdGUtc3BhY2U6IG5vcm1hbDsgbGluZS1oZWlnaHQ6IDEuNTsgbWF4LXdpZHRoOiAyMDBweDsgdGV4dC1hbGlnbjogY2VudGVyOyI+PHNwYW4gY2xhc3M9Im5vZGVMYWJlbCI+PHA+0JTQvtC00LDRgtC4INGC0LXQu9C10YTQvtC9PC9wPjwvc3Bhbj48L2Rpdj48L2ZvcmVpZ25PYmplY3Q+PC9nPjwvZz48ZyBjbGFzcz0ibm9kZSBkZWZhdWx0IiBpZD0iZmxvd2NoYXJ0LU8tMjkiIGRhdGEtaWQ9Ik8iIGRhdGEtbm9kZT0idHJ1ZSIgZGF0YS1ldD0ibm9kZSIgZGF0YS1sb29rPSJuZW8iIHRyYW5zZm9ybT0idHJhbnNsYXRlKDI5MDEuNjgzNTkzNzUsIDEwMTMuODUxNTYyNSkiPjxyZWN0IGNsYXNzPSJiYXNpYyBsYWJlbC1jb250YWluZXIiIHN0eWxlPSIiIGRhdGEtaWQ9Ik8iIHg9Ii03Ny44OTg0Mzc1IiB5PSItMjIuNSIgd2lkdGg9IjE1NS43OTY4NzUiIGhlaWdodD0iNDUiIHN0cm9rZT0idXJsKCNncmFkaWVudCkiLz48ZyBjbGFzcz0ibGFiZWwiIHN0eWxlPSIiIHRyYW5zZm9ybT0idHJhbnNsYXRlKC02MS44OTg0Mzc1LCAtMTAuNSkiPjxyZWN0Lz48Zm9yZWlnbk9iamVjdCB3aWR0aD0iMTIzLjc5Njg3NSIgaGVpZ2h0PSIyMSI+PGRpdiB4bWxucz0iaHR0cDovL3d3dy53My5vcmcvMTk5OS94aHRtbCIgc3R5bGU9ImRpc3BsYXk6IHRhYmxlLWNlbGw7IHdoaXRlLXNwYWNlOiBub3JtYWw7IGxpbmUtaGVpZ2h0OiAxLjU7IG1heC13aWR0aDogMjAwcHg7IHRleHQtYWxpZ246IGNlbnRlcjsiPjxzcGFuIGNsYXNzPSJub2RlTGFiZWwiPjxwPtCS0LjQtNCw0LvQuNGC0Lgg0YLQtdC70LXRhNC+0L08L3A+PC9zcGFuPjwvZGl2PjwvZm9yZWlnbk9iamVjdD48L2c+PC9nPjxnIGNsYXNzPSJub2RlIGRlZmF1bHQiIGlkPSJmbG93Y2hhcnQtUC0zMSIgZGF0YS1pZD0iUCIgZGF0YS1ub2RlPSJ0cnVlIiBkYXRhLWV0PSJub2RlIiBkYXRhLWxvb2s9Im5lbyIgdHJhbnNmb3JtPSJ0cmFuc2xhdGUoMzEwMC4xMjg5MDYyNSwgMTAxMy44NTE1NjI1KSI+PHJlY3QgY2xhc3M9ImJhc2ljIGxhYmVsLWNvbnRhaW5lciIgc3R5bGU9IiIgZGF0YS1pZD0iUCIgeD0iLTcwLjU0Njg3NSIgeT0iLTIyLjUiIHdpZHRoPSIxNDEuMDkzNzUiIGhlaWdodD0iNDUiIHN0cm9rZT0idXJsKCNncmFkaWVudCkiLz48ZyBjbGFzcz0ibGFiZWwiIHN0eWxlPSIiIHRyYW5zZm9ybT0idHJhbnNsYXRlKC01NC41NDY4NzUsIC0xMC41KSI+PHJlY3QvPjxmb3JlaWduT2JqZWN0IHdpZHRoPSIxMDkuMDkzNzUiIGhlaWdodD0iMjEiPjxkaXYgeG1sbnM9Imh0dHA6Ly93d3cudzMub3JnLzE5OTkveGh0bWwiIHN0eWxlPSJkaXNwbGF5OiB0YWJsZS1jZWxsOyB3aGl0ZS1zcGFjZTogbm9ybWFsOyBsaW5lLWhlaWdodDogMS41OyBtYXgtd2lkdGg6IDIwMHB4OyB0ZXh0LWFsaWduOiBjZW50ZXI7Ij48c3BhbiBjbGFzcz0ibm9kZUxhYmVsIj48cD7Ql9Cx0LXRgNC10LPRgtC4INGDINGE0LDQudC7PC9wPjwvc3Bhbj48L2Rpdj48L2ZvcmVpZ25PYmplY3Q+PC9nPjwvZz48ZyBjbGFzcz0ibm9kZSBkZWZhdWx0IiBpZD0iZmxvd2NoYXJ0LVEtMzMiIGRhdGEtaWQ9IlEiIGRhdGEtbm9kZT0idHJ1ZSIgZGF0YS1ldD0ibm9kZSIgZGF0YS1sb29rPSJuZW8iIHRyYW5zZm9ybT0idHJhbnNsYXRlKDMzMDcuMTc1NzgxMjUsIDEwMTMuODUxNTYyNSkiPjxyZWN0IGNsYXNzPSJiYXNpYyBsYWJlbC1jb250YWluZXIiIHN0eWxlPSIiIGRhdGEtaWQ9IlEiIHg9Ii04Ni41IiB5PSItMjIuNSIgd2lkdGg9IjE3MyIgaGVpZ2h0PSI0NSIgc3Ryb2tlPSJ1cmwoI2dyYWRpZW50KSIvPjxnIGNsYXNzPSJsYWJlbCIgc3R5bGU9IiIgdHJhbnNmb3JtPSJ0cmFuc2xhdGUoLTcwLjUsIC0xMC41KSI+PHJlY3QvPjxmb3JlaWduT2JqZWN0IHdpZHRoPSIxNDEiIGhlaWdodD0iMjEiPjxkaXYgeG1sbnM9Imh0dHA6Ly93d3cudzMub3JnLzE5OTkveGh0bWwiIHN0eWxlPSJkaXNwbGF5OiB0YWJsZS1jZWxsOyB3aGl0ZS1zcGFjZTogbm9ybWFsOyBsaW5lLWhlaWdodDogMS41OyBtYXgtd2lkdGg6IDIwMHB4OyB0ZXh0LWFsaWduOiBjZW50ZXI7Ij48c3BhbiBjbGFzcz0ibm9kZUxhYmVsIj48cD7Ql9Cw0LLQsNC90YLQsNC20LjRgtC4INC3INGE0LDQudC70YM8L3A+PC9zcGFuPjwvZGl2PjwvZm9yZWlnbk9iamVjdD48L2c+PC9nPjxnIGNsYXNzPSJub2RlIGRlZmF1bHQiIGlkPSJmbG93Y2hhcnQtUi0zNSIgZGF0YS1pZD0iUiIgZGF0YS1ub2RlPSJ0cnVlIiBkYXRhLWV0PSJub2RlIiBkYXRhLWxvb2s9Im5lbyIgdHJhbnNmb3JtPSJ0cmFuc2xhdGUoMzQ5Ni43MzA0Njg3NSwgMTAxMy44NTE1NjI1KSI+PGNpcmNsZSBjbGFzcz0iYmFzaWMgbGFiZWwtY29udGFpbmVyIiBzdHlsZT0iZmlsbDojRkZCNkMxICFpbXBvcnRhbnQiIHI9IjUzLjA1NDY4NzUiIGN4PSIwIiBjeT0iMCIvPjxnIGNsYXNzPSJsYWJlbCIgc3R5bGU9IiIgdHJhbnNmb3JtPSJ0cmFuc2xhdGUoLTIxLjA1NDY4NzUsIC0xMC41KSI+PHJlY3QvPjxmb3JlaWduT2JqZWN0IHdpZHRoPSI0Mi4xMDkzNzUiIGhlaWdodD0iMjEiPjxkaXYgeG1sbnM9Imh0dHA6Ly93d3cudzMub3JnLzE5OTkveGh0bWwiIHN0eWxlPSJkaXNwbGF5OiB0YWJsZS1jZWxsOyB3aGl0ZS1zcGFjZTogbm9ybWFsOyBsaW5lLWhlaWdodDogMS41OyBtYXgtd2lkdGg6IDIwMHB4OyB0ZXh0LWFsaWduOiBjZW50ZXI7Ij48c3BhbiBjbGFzcz0ibm9kZUxhYmVsIj48cD7QmtGW0L3QtdGG0Yw8L3A+PC9zcGFuPjwvZGl2PjwvZm9yZWlnbk9iamVjdD48L2c+PC9nPjxnIGNsYXNzPSJub2RlIGRlZmF1bHQiIGlkPSJmbG93Y2hhcnQtUy00MCIgZGF0YS1pZD0iUyIgZGF0YS1ub2RlPSJ0cnVlIiBkYXRhLWV0PSJub2RlIiBkYXRhLWxvb2s9Im5lbyIgdHJhbnNmb3JtPSJ0cmFuc2xhdGUoMzE3LjQyMTg3NSwgMTIzMS44NzUpIj48cG9seWdvbiBwb2ludHM9Ijg3LjgwNDY4NzUsMCAxNzUuNjA5Mzc1LC04Ny44MDQ2ODc1IDg3LjgwNDY4NzUsLTE3NS42MDkzNzUgMCwtODcuODA0Njg3NSIgY2xhc3M9ImxhYmVsLWNvbnRhaW5lciIgdHJhbnNmb3JtPSJ0cmFuc2xhdGUoLTg3LjgwNDY4NzUsODcuODA0Njg3NSkiLz48ZyBjbGFzcz0ibGFiZWwiIHN0eWxlPSIiIHRyYW5zZm9ybT0idHJhbnNsYXRlKC01Ny44MDQ2ODc1LCAtMTAuNSkiPjxyZWN0Lz48Zm9yZWlnbk9iamVjdCB3aWR0aD0iMTE1LjYwOTM3NSIgaGVpZ2h0PSIyMSI+PGRpdiB4bWxucz0iaHR0cDovL3d3dy53My5vcmcvMTk5OS94aHRtbCIgc3R5bGU9ImRpc3BsYXk6IHRhYmxlLWNlbGw7IHdoaXRlLXNwYWNlOiBub3JtYWw7IGxpbmUtaGVpZ2h0OiAxLjU7IG1heC13aWR0aDogMjAwcHg7IHRleHQtYWxpZ246IGNlbnRlcjsiPjxzcGFuIGNsYXNzPSJub2RlTGFiZWwiPjxwPtCc0L7QtNC10LvRjCDQstCy0LXQtNC10L3QsD88L3A+PC9zcGFuPjwvZGl2PjwvZm9yZWlnbk9iamVjdD48L2c+PC9nPjxnIGNsYXNzPSJub2RlIGRlZmF1bHQgZXJyb3IiIGlkPSJmbG93Y2hhcnQtVC00MiIgZGF0YS1pZD0iVCIgZGF0YS1ub2RlPSJ0cnVlIiBkYXRhLWV0PSJub2RlIiBkYXRhLWxvb2s9Im5lbyIgdHJhbnNmb3JtPSJ0cmFuc2xhdGUoMTg0LjI2OTUzMTI1LCAxNDUwLjg0Mzc1KSI+PHJlY3QgY2xhc3M9ImJhc2ljIGxhYmVsLWNvbnRhaW5lciIgc3R5bGU9ImZpbGw6I0ZGQTA3QSAhaW1wb3J0YW50IiBkYXRhLWlkPSJUIiB4PSItMTAyLjQzNzUiIHk9Ii0yMi41IiB3aWR0aD0iMjA0Ljg3NSIgaGVpZ2h0PSI0NSIgc3Ryb2tlPSJ1cmwoI2dyYWRpZW50KSIvPjxnIGNsYXNzPSJsYWJlbCIgc3R5bGU9IiIgdHJhbnNmb3JtPSJ0cmFuc2xhdGUoLTg2LjQzNzUsIC0xMC41KSI+PHJlY3QvPjxmb3JlaWduT2JqZWN0IHdpZHRoPSIxNzIuODc1IiBoZWlnaHQ9IjIxIj48ZGl2IHhtbG5zPSJodHRwOi8vd3d3LnczLm9yZy8xOTk5L3hodG1sIiBzdHlsZT0iZGlzcGxheTogdGFibGUtY2VsbDsgd2hpdGUtc3BhY2U6IG5vcm1hbDsgbGluZS1oZWlnaHQ6IDEuNTsgbWF4LXdpZHRoOiAyMDBweDsgdGV4dC1hbGlnbjogY2VudGVyOyI+PHNwYW4gY2xhc3M9Im5vZGVMYWJlbCI+PHA+0J/QvtC80LjQu9C60LA6INC/0L7RgNC+0LbQvdGPINC80L7QtNC10LvRjDwvcD48L3NwYW4+PC9kaXY+PC9mb3JlaWduT2JqZWN0PjwvZz48L2c+PGcgY2xhc3M9Im5vZGUgZGVmYXVsdCIgaWQ9ImZsb3djaGFydC1VLTQ0IiBkYXRhLWlkPSJVIiBkYXRhLW5vZGU9InRydWUiIGRhdGEtZXQ9Im5vZGUiIGRhdGEtbG9vaz0ibmVvIiB0cmFuc2Zvcm09InRyYW5zbGF0ZSg0NTAuNTc0MjE4NzUsIDE0NTAuODQzNzUpIj48cmVjdCBjbGFzcz0iYmFzaWMgbGFiZWwtY29udGFpbmVyIiBzdHlsZT0iIiBkYXRhLWlkPSJVIiB4PSItMTEzLjg2NzE4NzUiIHk9Ii0yMi41IiB3aWR0aD0iMjI3LjczNDM3NSIgaGVpZ2h0PSI0NSIgc3Ryb2tlPSJ1cmwoI2dyYWRpZW50KSIvPjxnIGNsYXNzPSJsYWJlbCIgc3R5bGU9IiIgdHJhbnNmb3JtPSJ0cmFuc2xhdGUoLTk3Ljg2NzE4NzUsIC0xMC41KSI+PHJlY3QvPjxmb3JlaWduT2JqZWN0IHdpZHRoPSIxOTUuNzM0Mzc1IiBoZWlnaHQ9IjIxIj48ZGl2IHhtbG5zPSJodHRwOi8vd3d3LnczLm9yZy8xOTk5L3hodG1sIiBzdHlsZT0iZGlzcGxheTogdGFibGUtY2VsbDsgd2hpdGUtc3BhY2U6IG5vcm1hbDsgbGluZS1oZWlnaHQ6IDEuNTsgbWF4LXdpZHRoOiAyMDBweDsgdGV4dC1hbGlnbjogY2VudGVyOyI+PHNwYW4gY2xhc3M9Im5vZGVMYWJlbCI+PHA+0JfQvdCw0LnRgtC4INGC0LXQu9C10YTQvtC90Lgg0LfQsCDQvNC+0LTQtdC70LvRjjwvcD48L3NwYW4+PC9kaXY+PC9mb3JlaWduT2JqZWN0PjwvZz48L2c+PGcgY2xhc3M9Im5vZGUgZGVmYXVsdCIgaWQ9ImZsb3djaGFydC1WLTQ2IiBkYXRhLWlkPSJWIiBkYXRhLW5vZGU9InRydWUiIGRhdGEtZXQ9Im5vZGUiIGRhdGEtbG9vaz0ibmVvIiB0cmFuc2Zvcm09InRyYW5zbGF0ZSg4MjkuNzE4NzUsIDEyMzEuODc1KSI+PHBvbHlnb24gcG9pbnRzPSI3Ny45MDYyNSwwIDE1NS44MTI1LC03Ny45MDYyNSA3Ny45MDYyNSwtMTU1LjgxMjUgMCwtNzcuOTA2MjUiIGNsYXNzPSJsYWJlbC1jb250YWluZXIiIHRyYW5zZm9ybT0idHJhbnNsYXRlKC03Ny45MDYyNSw3Ny45MDYyNSkiLz48ZyBjbGFzcz0ibGFiZWwiIHN0eWxlPSIiIHRyYW5zZm9ybT0idHJhbnNsYXRlKC00Ny45MDYyNSwgLTEwLjUpIj48cmVjdC8+PGZvcmVpZ25PYmplY3Qgd2lkdGg9Ijk1LjgxMjUiIGhlaWdodD0iMjEiPjxkaXYgeG1sbnM9Imh0dHA6Ly93d3cudzMub3JnLzE5OTkveGh0bWwiIHN0eWxlPSJkaXNwbGF5OiB0YWJsZS1jZWxsOyB3aGl0ZS1zcGFjZTogbm9ybWFsOyBsaW5lLWhlaWdodDogMS41OyBtYXgtd2lkdGg6IDIwMHB4OyB0ZXh0LWFsaWduOiBjZW50ZXI7Ij48c3BhbiBjbGFzcz0ibm9kZUxhYmVsIj48cD7QoNC+0LrQuCDQstCy0LXQtNC10L3Qvj88L3A+PC9zcGFuPjwvZGl2PjwvZm9yZWlnbk9iamVjdD48L2c+PC9nPjxnIGNsYXNzPSJub2RlIGRlZmF1bHQgZXJyb3IiIGlkPSJmbG93Y2hhcnQtVy00OCIgZGF0YS1pZD0iVyIgZGF0YS1ub2RlPSJ0cnVlIiBkYXRhLWV0PSJub2RlIiBkYXRhLWxvb2s9Im5lbyIgdHJhbnNmb3JtPSJ0cmFuc2xhdGUoNzA1LjM3MTA5Mzc1LCAxNDUwLjg0Mzc1KSI+PHJlY3QgY2xhc3M9ImJhc2ljIGxhYmVsLWNvbnRhaW5lciIgc3R5bGU9ImZpbGw6I0ZGQTA3QSAhaW1wb3J0YW50IiBkYXRhLWlkPSJXIiB4PSItOTAuOTI5Njg3NSIgeT0iLTIyLjUiIHdpZHRoPSIxODEuODU5Mzc1IiBoZWlnaHQ9IjQ1IiBzdHJva2U9InVybCgjZ3JhZGllbnQpIi8+PGcgY2xhc3M9ImxhYmVsIiBzdHlsZT0iIiB0cmFuc2Zvcm09InRyYW5zbGF0ZSgtNzQuOTI5Njg3NSwgLTEwLjUpIj48cmVjdC8+PGZvcmVpZ25PYmplY3Qgd2lkdGg9IjE0OS44NTkzNzUiIGhlaWdodD0iMjEiPjxkaXYgeG1sbnM9Imh0dHA6Ly93d3cudzMub3JnLzE5OTkveGh0bWwiIHN0eWxlPSJkaXNwbGF5OiB0YWJsZS1jZWxsOyB3aGl0ZS1zcGFjZTogbm9ybWFsOyBsaW5lLWhlaWdodDogMS41OyBtYXgtd2lkdGg6IDIwMHB4OyB0ZXh0LWFsaWduOiBjZW50ZXI7Ij48c3BhbiBjbGFzcz0ibm9kZUxhYmVsIj48cD7Qn9C+0LzQuNC70LrQsDog0L/QvtGA0L7QttC90ZYg0YDQvtC60Lg8L3A+PC9zcGFuPjwvZGl2PjwvZm9yZWlnbk9iamVjdD48L2c+PC9nPjxnIGNsYXNzPSJub2RlIGRlZmF1bHQiIGlkPSJmbG93Y2hhcnQtWC01MCIgZGF0YS1pZD0iWCIgZGF0YS1ub2RlPSJ0cnVlIiBkYXRhLWV0PSJub2RlIiBkYXRhLWxvb2s9Im5lbyIgdHJhbnNmb3JtPSJ0cmFuc2xhdGUoOTU0LjA2NjQwNjI1LCAxNDUwLjg0Mzc1KSI+PHJlY3QgY2xhc3M9ImJhc2ljIGxhYmVsLWNvbnRhaW5lciIgc3R5bGU9IiIgZGF0YS1pZD0iWCIgeD0iLTEwNy43NjU2MjUiIHk9Ii0yMi41IiB3aWR0aD0iMjE1LjUzMTI1IiBoZWlnaHQ9IjQ1IiBzdHJva2U9InVybCgjZ3JhZGllbnQpIi8+PGcgY2xhc3M9ImxhYmVsIiBzdHlsZT0iIiB0cmFuc2Zvcm09InRyYW5zbGF0ZSgtOTEuNzY1NjI1LCAtMTAuNSkiPjxyZWN0Lz48Zm9yZWlnbk9iamVjdCB3aWR0aD0iMTgzLjUzMTI1IiBoZWlnaHQ9IjIxIj48ZGl2IHhtbG5zPSJodHRwOi8vd3d3LnczLm9yZy8xOTk5L3hodG1sIiBzdHlsZT0iZGlzcGxheTogdGFibGUtY2VsbDsgd2hpdGUtc3BhY2U6IG5vcm1hbDsgbGluZS1oZWlnaHQ6IDEuNTsgbWF4LXdpZHRoOiAyMDBweDsgdGV4dC1hbGlnbjogY2VudGVyOyI+PHNwYW4gY2xhc3M9Im5vZGVMYWJlbCI+PHA+0JfQvdCw0LnRgtC4INGC0LXQu9C10YTQvtC90Lgg0LfQsCDRgNC+0LrQsNC80Lg8L3A+PC9zcGFuPjwvZGl2PjwvZm9yZWlnbk9iamVjdD48L2c+PC9nPjxnIGNsYXNzPSJub2RlIGRlZmF1bHQiIGlkPSJmbG93Y2hhcnQtWS01MiIgZGF0YS1pZD0iWSIgZGF0YS1ub2RlPSJ0cnVlIiBkYXRhLWV0PSJub2RlIiBkYXRhLWxvb2s9Im5lbyIgdHJhbnNmb3JtPSJ0cmFuc2xhdGUoMTMzMi4xOTkyMTg3NSwgMTIzMS44NzUpIj48cG9seWdvbiBwb2ludHM9Ijk5LjA0Njg3NSwwIDE5OC4wOTM3NSwtOTkuMDQ2ODc1IDk5LjA0Njg3NSwtMTk4LjA5Mzc1IDAsLTk5LjA0Njg3NSIgY2xhc3M9ImxhYmVsLWNvbnRhaW5lciIgdHJhbnNmb3JtPSJ0cmFuc2xhdGUoLTk5LjA0Njg3NSw5OS4wNDY4NzUpIi8+PGcgY2xhc3M9ImxhYmVsIiBzdHlsZT0iIiB0cmFuc2Zvcm09InRyYW5zbGF0ZSgtNjkuMDQ2ODc1LCAtMTAuNSkiPjxyZWN0Lz48Zm9yZWlnbk9iamVjdCB3aWR0aD0iMTM4LjA5Mzc1IiBoZWlnaHQ9IjIxIj48ZGl2IHhtbG5zPSJodHRwOi8vd3d3LnczLm9yZy8xOTk5L3hodG1sIiBzdHlsZT0iZGlzcGxheTogdGFibGUtY2VsbDsgd2hpdGUtc3BhY2U6IG5vcm1hbDsgbGluZS1oZWlnaHQ6IDEuNTsgbWF4LXdpZHRoOiAyMDBweDsgdGV4dC1hbGlnbjogY2VudGVyOyI+PHNwYW4gY2xhc3M9Im5vZGVMYWJlbCI+PHA+0KDQvtC60Lgg0Lkg0YbRltC90Lgg0LLQstC10LTQtdC90L4/PC9wPjwvc3Bhbj48L2Rpdj48L2ZvcmVpZ25PYmplY3Q+PC9nPjwvZz48ZyBjbGFzcz0ibm9kZSBkZWZhdWx0IGVycm9yIiBpZD0iZmxvd2NoYXJ0LVotNTQiIGRhdGEtaWQ9IloiIGRhdGEtbm9kZT0idHJ1ZSIgZGF0YS1ldD0ibm9kZSIgZGF0YS1sb29rPSJuZW8iIHRyYW5zZm9ybT0idHJhbnNsYXRlKDEyMDMuNDEwMTU2MjUsIDE0NTAuODQzNzUpIj48cmVjdCBjbGFzcz0iYmFzaWMgbGFiZWwtY29udGFpbmVyIiBzdHlsZT0iZmlsbDojRkZBMDdBICFpbXBvcnRhbnQiIGRhdGEtaWQ9IloiIHg9Ii05MS41NzgxMjUiIHk9Ii0yMi41IiB3aWR0aD0iMTgzLjE1NjI1IiBoZWlnaHQ9IjQ1IiBzdHJva2U9InVybCgjZ3JhZGllbnQpIi8+PGcgY2xhc3M9ImxhYmVsIiBzdHlsZT0iIiB0cmFuc2Zvcm09InRyYW5zbGF0ZSgtNzUuNTc4MTI1LCAtMTAuNSkiPjxyZWN0Lz48Zm9yZWlnbk9iamVjdCB3aWR0aD0iMTUxLjE1NjI1IiBoZWlnaHQ9IjIxIj48ZGl2IHhtbG5zPSJodHRwOi8vd3d3LnczLm9yZy8xOTk5L3hodG1sIiBzdHlsZT0iZGlzcGxheTogdGFibGUtY2VsbDsgd2hpdGUtc3BhY2U6IG5vcm1hbDsgbGluZS1oZWlnaHQ6IDEuNTsgbWF4LXdpZHRoOiAyMDBweDsgdGV4dC1hbGlnbjogY2VudGVyOyI+PHNwYW4gY2xhc3M9Im5vZGVMYWJlbCI+PHA+0J/QvtC80LjQu9C60LA6INC/0L7RgNC+0LbQvdGWINC/0L7Qu9GPPC9wPjwvc3Bhbj48L2Rpdj48L2ZvcmVpZ25PYmplY3Q+PC9nPjwvZz48ZyBjbGFzcz0ibm9kZSBkZWZhdWx0IiBpZD0iZmxvd2NoYXJ0LUFBLTU2IiBkYXRhLWlkPSJBQSIgZGF0YS1ub2RlPSJ0cnVlIiBkYXRhLWV0PSJub2RlIiBkYXRhLWxvb2s9Im5lbyIgdHJhbnNmb3JtPSJ0cmFuc2xhdGUoMTQ3NS4zNTkzNzUsIDE0NTAuODQzNzUpIj48cmVjdCBjbGFzcz0iYmFzaWMgbGFiZWwtY29udGFpbmVyIiBzdHlsZT0iIiBkYXRhLWlkPSJBQSIgeD0iLTExNiIgeT0iLTMzIiB3aWR0aD0iMjMyIiBoZWlnaHQ9IjY2IiBzdHJva2U9InVybCgjZ3JhZGllbnQpIi8+PGcgY2xhc3M9ImxhYmVsIiBzdHlsZT0iIiB0cmFuc2Zvcm09InRyYW5zbGF0ZSgtMTAwLCAtMjEpIj48cmVjdC8+PGZvcmVpZ25PYmplY3Qgd2lkdGg9IjIwMCIgaGVpZ2h0PSI0MiI+PGRpdiB4bWxucz0iaHR0cDovL3d3dy53My5vcmcvMTk5OS94aHRtbCIgc3R5bGU9ImRpc3BsYXk6IHRhYmxlOyB3aGl0ZS1zcGFjZTogYnJlYWstc3BhY2VzOyBsaW5lLWhlaWdodDogMS41OyBtYXgtd2lkdGg6IDIwMHB4OyB0ZXh0LWFsaWduOiBjZW50ZXI7IHdpZHRoOiAyMDBweDsiPjxzcGFuIGNsYXNzPSJub2RlTGFiZWwiPjxwPtCX0L3QsNC50YLQuCDRgtC10LvQtdGE0L7QvdC4INC30LAg0YDQvtC60L7QvCDRgtCwINGG0ZbQvdC+0Y48L3A+PC9zcGFuPjwvZGl2PjwvZm9yZWlnbk9iamVjdD48L2c+PC9nPjxnIGNsYXNzPSJub2RlIGRlZmF1bHQiIGlkPSJmbG93Y2hhcnQtQUItNTgiIGRhdGEtaWQ9IkFCIiBkYXRhLW5vZGU9InRydWUiIGRhdGEtZXQ9Im5vZGUiIGRhdGEtbG9vaz0ibmVvIiB0cmFuc2Zvcm09InRyYW5zbGF0ZSgxNTk3LjI0NjA5Mzc1LCAxMjMxLjg3NSkiPjxyZWN0IGNsYXNzPSJiYXNpYyBsYWJlbC1jb250YWluZXIiIHN0eWxlPSIiIGRhdGEtaWQ9IkFCIiB4PSItMTE2IiB5PSItMzMiIHdpZHRoPSIyMzIiIGhlaWdodD0iNjYiIHN0cm9rZT0idXJsKCNncmFkaWVudCkiLz48ZyBjbGFzcz0ibGFiZWwiIHN0eWxlPSIiIHRyYW5zZm9ybT0idHJhbnNsYXRlKC0xMDAsIC0yMSkiPjxyZWN0Lz48Zm9yZWlnbk9iamVjdCB3aWR0aD0iMjAwIiBoZWlnaHQ9IjQyIj48ZGl2IHhtbG5zPSJodHRwOi8vd3d3LnczLm9yZy8xOTk5L3hodG1sIiBzdHlsZT0iZGlzcGxheTogdGFibGU7IHdoaXRlLXNwYWNlOiBicmVhay1zcGFjZXM7IGxpbmUtaGVpZ2h0OiAxLjU7IG1heC13aWR0aDogMjAwcHg7IHRleHQtYWxpZ246IGNlbnRlcjsgd2lkdGg6IDIwMHB4OyI+PHNwYW4gY2xhc3M9Im5vZGVMYWJlbCI+PHA+0KHQvtGA0YLRg9Cy0LDRgtC4INC30LAg0LTQsNGC0L7RjiDRliDRgdC10YDRltC50L3QuNC8INC90L7QvNC10YDQvtC8PC9wPjwvc3Bhbj48L2Rpdj48L2ZvcmVpZ25PYmplY3Q+PC9nPjwvZz48ZyBjbGFzcz0ibm9kZSBkZWZhdWx0IiBpZD0iZmxvd2NoYXJ0LUFDLTYwIiBkYXRhLWlkPSJBQyIgZGF0YS1ub2RlPSJ0cnVlIiBkYXRhLWV0PSJub2RlIiBkYXRhLWxvb2s9Im5lbyIgdHJhbnNmb3JtPSJ0cmFuc2xhdGUoMTg3OC4yMTQ4NDM3NSwgMTIzMS44NzUpIj48cG9seWdvbiBwb2ludHM9IjExNC45Njg3NSwwIDIyOS45Mzc1LC0xMTQuOTY4NzUgMTE0Ljk2ODc1LC0yMjkuOTM3NSAwLC0xMTQuOTY4NzUiIGNsYXNzPSJsYWJlbC1jb250YWluZXIiIHRyYW5zZm9ybT0idHJhbnNsYXRlKC0xMTQuOTY4NzUsMTE0Ljk2ODc1KSIvPjxnIGNsYXNzPSJsYWJlbCIgc3R5bGU9IiIgdHJhbnNmb3JtPSJ0cmFuc2xhdGUoLTg0Ljk2ODc1LCAtMTAuNSkiPjxyZWN0Lz48Zm9yZWlnbk9iamVjdCB3aWR0aD0iMTY5LjkzNzUiIGhlaWdodD0iMjEiPjxkaXYgeG1sbnM9Imh0dHA6Ly93d3cudzMub3JnLzE5OTkveGh0bWwiIHN0eWxlPSJkaXNwbGF5OiB0YWJsZS1jZWxsOyB3aGl0ZS1zcGFjZTogbm9ybWFsOyBsaW5lLWhlaWdodDogMS41OyBtYXgtd2lkdGg6IDIwMHB4OyB0ZXh0LWFsaWduOiBjZW50ZXI7Ij48c3BhbiBjbGFzcz0ibm9kZUxhYmVsIj48cD7QodC10YDRltC50L3QuNC5INC90L7QvNC10YAg0LLQstC10LTQtdC90L4/PC9wPjwvc3Bhbj48L2Rpdj48L2ZvcmVpZ25PYmplY3Q+PC9nPjwvZz48ZyBjbGFzcz0ibm9kZSBkZWZhdWx0IGVycm9yIiBpZD0iZmxvd2NoYXJ0LUFELTYyIiBkYXRhLWlkPSJBRCIgZGF0YS1ub2RlPSJ0cnVlIiBkYXRhLWV0PSJub2RlIiBkYXRhLWxvb2s9Im5lbyIgdHJhbnNmb3JtPSJ0cmFuc2xhdGUoMTczNS4wNTQ2ODc1LCAxNDUwLjg0Mzc1KSI+PHJlY3QgY2xhc3M9ImJhc2ljIGxhYmVsLWNvbnRhaW5lciIgc3R5bGU9ImZpbGw6I0ZGQTA3QSAhaW1wb3J0YW50IiBkYXRhLWlkPSJBRCIgeD0iLTkzLjY5NTMxMjUiIHk9Ii0yMi41IiB3aWR0aD0iMTg3LjM5MDYyNSIgaGVpZ2h0PSI0NSIgc3Ryb2tlPSJ1cmwoI2dyYWRpZW50KSIvPjxnIGNsYXNzPSJsYWJlbCIgc3R5bGU9IiIgdHJhbnNmb3JtPSJ0cmFuc2xhdGUoLTc3LjY5NTMxMjUsIC0xMC41KSI+PHJlY3QvPjxmb3JlaWduT2JqZWN0IHdpZHRoPSIxNTUuMzkwNjI1IiBoZWlnaHQ9IjIxIj48ZGl2IHhtbG5zPSJodHRwOi8vd3d3LnczLm9yZy8xOTk5L3hodG1sIiBzdHlsZT0iZGlzcGxheTogdGFibGUtY2VsbDsgd2hpdGUtc3BhY2U6IG5vcm1hbDsgbGluZS1oZWlnaHQ6IDEuNTsgbWF4LXdpZHRoOiAyMDBweDsgdGV4dC1hbGlnbjogY2VudGVyOyI+PHNwYW4gY2xhc3M9Im5vZGVMYWJlbCI+PHA+0J/QvtC80LjQu9C60LA6INC/0L7RgNC+0LbQvdGUINC/0L7Qu9C1PC9wPjwvc3Bhbj48L2Rpdj48L2ZvcmVpZ25PYmplY3Q+PC9nPjwvZz48ZyBjbGFzcz0ibm9kZSBkZWZhdWx0IiBpZD0iZmxvd2NoYXJ0LUFFLTY0IiBkYXRhLWlkPSJBRSIgZGF0YS1ub2RlPSJ0cnVlIiBkYXRhLWV0PSJub2RlIiBkYXRhLWxvb2s9Im5lbyIgdHJhbnNmb3JtPSJ0cmFuc2xhdGUoMjAwOC4wNjI1LCAxNDUwLjg0Mzc1KSI+PHJlY3QgY2xhc3M9ImJhc2ljIGxhYmVsLWNvbnRhaW5lciIgc3R5bGU9IiIgZGF0YS1pZD0iQUUiIHg9Ii0xMTYiIHk9Ii0zMyIgd2lkdGg9IjIzMiIgaGVpZ2h0PSI2NiIgc3Ryb2tlPSJ1cmwoI2dyYWRpZW50KSIvPjxnIGNsYXNzPSJsYWJlbCIgc3R5bGU9IiIgdHJhbnNmb3JtPSJ0cmFuc2xhdGUoLTEwMCwgLTIxKSI+PHJlY3QvPjxmb3JlaWduT2JqZWN0IHdpZHRoPSIyMDAiIGhlaWdodD0iNDIiPjxkaXYgeG1sbnM9Imh0dHA6Ly93d3cudzMub3JnLzE5OTkveGh0bWwiIHN0eWxlPSJkaXNwbGF5OiB0YWJsZTsgd2hpdGUtc3BhY2U6IGJyZWFrLXNwYWNlczsgbGluZS1oZWlnaHQ6IDEuNTsgbWF4LXdpZHRoOiAyMDBweDsgdGV4dC1hbGlnbjogY2VudGVyOyB3aWR0aDogMjAwcHg7Ij48c3BhbiBjbGFzcz0ibm9kZUxhYmVsIj48cD7Ql9C90LDQudGC0Lgg0YLQtdC70LXRhNC+0L0g0LfQsCDRgdC10YDRltC50L3QuNC8INC90L7QvNC10YDQvtC8PC9wPjwvc3Bhbj48L2Rpdj48L2ZvcmVpZ25PYmplY3Q+PC9nPjwvZz48ZyBjbGFzcz0ibm9kZSBkZWZhdWx0IiBpZD0iZmxvd2NoYXJ0LUFGLTY2IiBkYXRhLWlkPSJBRiIgZGF0YS1ub2RlPSJ0cnVlIiBkYXRhLWV0PSJub2RlIiBkYXRhLWxvb2s9Im5lbyIgdHJhbnNmb3JtPSJ0cmFuc2xhdGUoMjQyMi4xNTYyNSwgMTIzMS44NzUpIj48cG9seWdvbiBwb2ludHM9Ijk0LjYwMTU2MjUsMCAxODkuMjAzMTI1LC05NC42MDE1NjI1IDk0LjYwMTU2MjUsLTE4OS4yMDMxMjUgMCwtOTQuNjAxNTYyNSIgY2xhc3M9ImxhYmVsLWNvbnRhaW5lciIgdHJhbnNmb3JtPSJ0cmFuc2xhdGUoLTk0LjYwMTU2MjUsOTQuNjAxNTYyNSkiLz48ZyBjbGFzcz0ibGFiZWwiIHN0eWxlPSIiIHRyYW5zZm9ybT0idHJhbnNsYXRlKC02NC42MDE1NjI1LCAtMTAuNSkiPjxyZWN0Lz48Zm9yZWlnbk9iamVjdCB3aWR0aD0iMTI5LjIwMzEyNSIgaGVpZ2h0PSIyMSI+PGRpdiB4bWxucz0iaHR0cDovL3d3dy53My5vcmcvMTk5OS94aHRtbCIgc3R5bGU9ImRpc3BsYXk6IHRhYmxlLWNlbGw7IHdoaXRlLXNwYWNlOiBub3JtYWw7IGxpbmUtaGVpZ2h0OiAxLjU7IG1heC13aWR0aDogMjAwcHg7IHRleHQtYWxpZ246IGNlbnRlcjsiPjxzcGFuIGNsYXNzPSJub2RlTGFiZWwiPjxwPtCS0YHRliDQv9C+0LvRjyDQt9Cw0L/QvtCy0L3QtdC90ZY/PC9wPjwvc3Bhbj48L2Rpdj48L2ZvcmVpZ25PYmplY3Q+PC9nPjwvZz48ZyBjbGFzcz0ibm9kZSBkZWZhdWx0IGVycm9yIiBpZD0iZmxvd2NoYXJ0LUFHLTY4IiBkYXRhLWlkPSJBRyIgZGF0YS1ub2RlPSJ0cnVlIiBkYXRhLWV0PSJub2RlIiBkYXRhLWxvb2s9Im5lbyIgdHJhbnNmb3JtPSJ0cmFuc2xhdGUoMjI5MC4wNjI1LCAxNDUwLjg0Mzc1KSI+PHJlY3QgY2xhc3M9ImJhc2ljIGxhYmVsLWNvbnRhaW5lciIgc3R5bGU9ImZpbGw6I0ZGQTA3QSAhaW1wb3J0YW50IiBkYXRhLWlkPSJBRyIgeD0iLTExNiIgeT0iLTMzIiB3aWR0aD0iMjMyIiBoZWlnaHQ9IjY2IiBzdHJva2U9InVybCgjZ3JhZGllbnQpIi8+PGcgY2xhc3M9ImxhYmVsIiBzdHlsZT0iIiB0cmFuc2Zvcm09InRyYW5zbGF0ZSgtMTAwLCAtMjEpIj48cmVjdC8+PGZvcmVpZ25PYmplY3Qgd2lkdGg9IjIwMCIgaGVpZ2h0PSI0MiI+PGRpdiB4bWxucz0iaHR0cDovL3d3dy53My5vcmcvMTk5OS94aHRtbCIgc3R5bGU9ImRpc3BsYXk6IHRhYmxlOyB3aGl0ZS1zcGFjZTogYnJlYWstc3BhY2VzOyBsaW5lLWhlaWdodDogMS41OyBtYXgtd2lkdGg6IDIwMHB4OyB0ZXh0LWFsaWduOiBjZW50ZXI7IHdpZHRoOiAyMDBweDsiPjxzcGFuIGNsYXNzPSJub2RlTGFiZWwiPjxwPtCf0L7QvNC40LvQutCwOiDRh9Cw0YHRgtC40L3QsCDQv9C+0LvRltCyINC/0L7RgNC+0LbQvdGWPC9wPjwvc3Bhbj48L2Rpdj48L2ZvcmVpZ25PYmplY3Q+PC9nPjwvZz48ZyBjbGFzcz0ibm9kZSBkZWZhdWx0IiBpZD0iZmxvd2NoYXJ0LUFILTcwIiBkYXRhLWlkPSJBSCIgZGF0YS1ub2RlPSJ0cnVlIiBkYXRhLWV0PSJub2RlIiBkYXRhLWxvb2s9Im5lbyIgdHJhbnNmb3JtPSJ0cmFuc2xhdGUoMjU1NC4yNSwgMTQ1MC44NDM3NSkiPjxyZWN0IGNsYXNzPSJiYXNpYyBsYWJlbC1jb250YWluZXIiIHN0eWxlPSIiIGRhdGEtaWQ9IkFIIiB4PSItOTguMTg3NSIgeT0iLTIyLjUiIHdpZHRoPSIxOTYuMzc1IiBoZWlnaHQ9IjQ1IiBzdHJva2U9InVybCgjZ3JhZGllbnQpIi8+PGcgY2xhc3M9ImxhYmVsIiBzdHlsZT0iIiB0cmFuc2Zvcm09InRyYW5zbGF0ZSgtODIuMTg3NSwgLTEwLjUpIj48cmVjdC8+PGZvcmVpZ25PYmplY3Qgd2lkdGg9IjE2NC4zNzUiIGhlaWdodD0iMjEiPjxkaXYgeG1sbnM9Imh0dHA6Ly93d3cudzMub3JnLzE5OTkveGh0bWwiIHN0eWxlPSJkaXNwbGF5OiB0YWJsZS1jZWxsOyB3aGl0ZS1zcGFjZTogbm9ybWFsOyBsaW5lLWhlaWdodDogMS41OyBtYXgtd2lkdGg6IDIwMHB4OyB0ZXh0LWFsaWduOiBjZW50ZXI7Ij48c3BhbiBjbGFzcz0ibm9kZUxhYmVsIj48cD7QodGC0LLQvtGA0LjRgtC4INC90L7QstC40Lkg0YLQtdC70LXRhNC+0L08L3A+PC9zcGFuPjwvZGl2PjwvZm9yZWlnbk9iamVjdD48L2c+PC9nPjxnIGNsYXNzPSJub2RlIGRlZmF1bHQiIGlkPSJmbG93Y2hhcnQtQUktNzIiIGRhdGEtaWQ9IkFJIiBkYXRhLW5vZGU9InRydWUiIGRhdGEtZXQ9Im5vZGUiIGRhdGEtbG9vaz0ibmVvIiB0cmFuc2Zvcm09InRyYW5zbGF0ZSgyOTAxLjY4MzU5Mzc1LCAxMjMxLjg3NSkiPjxwb2x5Z29uIHBvaW50cz0iNjkuNjc5Njg3NSwwIDEzOS4zNTkzNzUsLTY5LjY3OTY4NzUgNjkuNjc5Njg3NSwtMTM5LjM1OTM3NSAwLC02OS42Nzk2ODc1IiBjbGFzcz0ibGFiZWwtY29udGFpbmVyIiB0cmFuc2Zvcm09InRyYW5zbGF0ZSgtNjkuNjc5Njg3NSw2OS42Nzk2ODc1KSIvPjxnIGNsYXNzPSJsYWJlbCIgc3R5bGU9IiIgdHJhbnNmb3JtPSJ0cmFuc2xhdGUoLTM5LjY3OTY4NzUsIC0xMC41KSI+PHJlY3QvPjxmb3JlaWduT2JqZWN0IHdpZHRoPSI3OS4zNTkzNzUiIGhlaWdodD0iMjEiPjxkaXYgeG1sbnM9Imh0dHA6Ly93d3cudzMub3JnLzE5OTkveGh0bWwiIHN0eWxlPSJkaXNwbGF5OiB0YWJsZS1jZWxsOyB3aGl0ZS1zcGFjZTogbm9ybWFsOyBsaW5lLWhlaWdodDogMS41OyBtYXgtd2lkdGg6IDIwMHB4OyB0ZXh0LWFsaWduOiBjZW50ZXI7Ij48c3BhbiBjbGFzcz0ibm9kZUxhYmVsIj48cD5JRCDQstCy0LXQtNC10L3Qvj88L3A+PC9zcGFuPjwvZGl2PjwvZm9yZWlnbk9iamVjdD48L2c+PC9nPjxnIGNsYXNzPSJub2RlIGRlZmF1bHQgZXJyb3IiIGlkPSJmbG93Y2hhcnQtQUotNzQiIGRhdGEtaWQ9IkFKIiBkYXRhLW5vZGU9InRydWUiIGRhdGEtZXQ9Im5vZGUiIGRhdGEtbG9vaz0ibmVvIiB0cmFuc2Zvcm09InRyYW5zbGF0ZSgyNzg5LjUyMzQzNzUsIDE0NTAuODQzNzUpIj48cmVjdCBjbGFzcz0iYmFzaWMgbGFiZWwtY29udGFpbmVyIiBzdHlsZT0iZmlsbDojRkZBMDdBICFpbXBvcnRhbnQiIGRhdGEtaWQ9IkFKIiB4PSItODcuMDg1OTM3NSIgeT0iLTIyLjUiIHdpZHRoPSIxNzQuMTcxODc1IiBoZWlnaHQ9IjQ1IiBzdHJva2U9InVybCgjZ3JhZGllbnQpIi8+PGcgY2xhc3M9ImxhYmVsIiBzdHlsZT0iIiB0cmFuc2Zvcm09InRyYW5zbGF0ZSgtNzEuMDg1OTM3NSwgLTEwLjUpIj48cmVjdC8+PGZvcmVpZ25PYmplY3Qgd2lkdGg9IjE0Mi4xNzE4NzUiIGhlaWdodD0iMjEiPjxkaXYgeG1sbnM9Imh0dHA6Ly93d3cudzMub3JnLzE5OTkveGh0bWwiIHN0eWxlPSJkaXNwbGF5OiB0YWJsZS1jZWxsOyB3aGl0ZS1zcGFjZTogbm9ybWFsOyBsaW5lLWhlaWdodDogMS41OyBtYXgtd2lkdGg6IDIwMHB4OyB0ZXh0LWFsaWduOiBjZW50ZXI7Ij48c3BhbiBjbGFzcz0ibm9kZUxhYmVsIj48cD7Qn9C+0LzQuNC70LrQsDog0L/QvtGA0L7QttC90ZbQuSBJRDwvcD48L3NwYW4+PC9kaXY+PC9mb3JlaWduT2JqZWN0PjwvZz48L2c+PGcgY2xhc3M9Im5vZGUgZGVmYXVsdCIgaWQ9ImZsb3djaGFydC1BSy03NiIgZGF0YS1pZD0iQUsiIGRhdGEtbm9kZT0idHJ1ZSIgZGF0YS1ldD0ibm9kZSIgZGF0YS1sb29rPSJuZW8iIHRyYW5zZm9ybT0idHJhbnNsYXRlKDMwMTMuODQzNzUsIDE0NTAuODQzNzUpIj48cmVjdCBjbGFzcz0iYmFzaWMgbGFiZWwtY29udGFpbmVyIiBzdHlsZT0iIiBkYXRhLWlkPSJBSyIgeD0iLTg3LjIzNDM3NSIgeT0iLTIyLjUiIHdpZHRoPSIxNzQuNDY4NzUiIGhlaWdodD0iNDUiIHN0cm9rZT0idXJsKCNncmFkaWVudCkiLz48ZyBjbGFzcz0ibGFiZWwiIHN0eWxlPSIiIHRyYW5zZm9ybT0idHJhbnNsYXRlKC03MS4yMzQzNzUsIC0xMC41KSI+PHJlY3QvPjxmb3JlaWduT2JqZWN0IHdpZHRoPSIxNDIuNDY4NzUiIGhlaWdodD0iMjEiPjxkaXYgeG1sbnM9Imh0dHA6Ly93d3cudzMub3JnLzE5OTkveGh0bWwiIHN0eWxlPSJkaXNwbGF5OiB0YWJsZS1jZWxsOyB3aGl0ZS1zcGFjZTogbm9ybWFsOyBsaW5lLWhlaWdodDogMS41OyBtYXgtd2lkdGg6IDIwMHB4OyB0ZXh0LWFsaWduOiBjZW50ZXI7Ij48c3BhbiBjbGFzcz0ibm9kZUxhYmVsIj48cD7Ql9C90LDQudGC0Lgg0YLQtdC70LXRhNC+0L0g0LfQsCBJRDwvcD48L3NwYW4+PC9kaXY+PC9mb3JlaWduT2JqZWN0PjwvZz48L2c+PC9nPjwvZz48L2c+PGRlZnM+PGZpbHRlciBpZD0iZHJvcC1zaGFkb3ciIGhlaWdodD0iMTMwJSIgd2lkdGg9IjEzMCUiPjxmZURyb3BTaGFkb3cgZHg9IjQiIGR5PSI0IiBzdGREZXZpYXRpb249IjAiIGZsb29kLW9wYWNpdHk9IjAuMDYiIGZsb29kLWNvbG9yPSIjMDAwMDAwIi8+PC9maWx0ZXI+PC9kZWZzPjxkZWZzPjxmaWx0ZXIgaWQ9ImRyb3Atc2hhZG93LXNtYWxsIiBoZWlnaHQ9IjE1MCUiIHdpZHRoPSIxNTAlIj48ZmVEcm9wU2hhZG93IGR4PSIyIiBkeT0iMiIgc3RkRGV2aWF0aW9uPSIwIiBmbG9vZC1vcGFjaXR5PSIwLjA2IiBmbG9vZC1jb2xvcj0iIzAwMDAwMCIvPjwvZmlsdGVyPjwvZGVmcz48bGluZWFyR3JhZGllbnQgaWQ9Im15LXN2Zy1ncmFkaWVudCIgZ3JhZGllbnRVbml0cz0ib2JqZWN0Qm91bmRpbmdCb3giIHgxPSIwJSIgeTE9IjAlIiB4Mj0iMTAwJSIgeTI9IjAlIj48c3RvcCBvZmZzZXQ9IjAlIiBzdG9wLWNvbG9yPSIjMDA0MmViIiBzdG9wLW9wYWNpdHk9IjEiLz48c3RvcCBvZmZzZXQ9IjEwMCUiIHN0b3AtY29sb3I9IiNlYjAwNDIiIHN0b3Atb3BhY2l0eT0iMSIvPjwvbGluZWFyR3JhZGllbnQ+PC9zdmc+;" vertex="1" parent="1">
          <mxGeometry x="10" y="-100" width="1200" height="500" as="geometry" />
        </mxCell>
      </root>
    </mxGraphModel>
  </diagram>
</mxfile>
